<svg width="390" height="80" viewBox="0 0 390 80" fill="none" xmlns="http://www.w3.org/2000/svg">
<path d="M16.2307 10.2625V17.2625C15.3223 17.9125 14.3557 18.4 13.3307 18.725C12.3057 19.0417 11.189 19.2 9.98066 19.2C8.53066 19.2 7.21816 18.975 6.04316 18.525C4.8765 18.075 3.88066 17.4458 3.05566 16.6375C2.23066 15.8292 1.59316 14.8625 1.14316 13.7375C0.701497 12.6125 0.480664 11.375 0.480664 10.025C0.480664 8.66667 0.693164 7.425 1.11816 6.3C1.5515 5.16667 2.16816 4.2 2.96816 3.4C3.76816 2.59167 4.73483 1.96667 5.86816 1.525C7.00983 1.075 8.289 0.85 9.70566 0.85C10.4223 0.85 11.0848 0.904166 11.6932 1.0125C12.3098 1.12083 12.8807 1.275 13.4057 1.475C13.9307 1.675 14.414 1.91667 14.8557 2.2C15.3057 2.475 15.7223 2.7875 16.1057 3.1375L15.3432 4.3375C15.2265 4.52917 15.0723 4.65 14.8807 4.7C14.689 4.75 14.4807 4.70417 14.2557 4.5625C14.039 4.4375 13.7973 4.29167 13.5307 4.125C13.2723 3.95833 12.9598 3.80417 12.5932 3.6625C12.2348 3.52083 11.814 3.4 11.3307 3.3C10.8473 3.2 10.2765 3.15 9.61816 3.15C8.63483 3.15 7.74733 3.3125 6.95566 3.6375C6.164 3.95417 5.489 4.4125 4.93066 5.0125C4.37233 5.6125 3.94316 6.3375 3.64316 7.1875C3.34316 8.02917 3.19316 8.975 3.19316 10.025C3.19316 11.125 3.3515 12.1125 3.66816 12.9875C3.98483 13.8542 4.43066 14.5917 5.00566 15.2C5.589 15.8 6.29316 16.2583 7.11816 16.575C7.9515 16.8917 8.88066 17.05 9.90566 17.05C10.3057 17.05 10.6765 17.0292 11.0182 16.9875C11.3682 16.9375 11.7015 16.8708 12.0182 16.7875C12.3348 16.7042 12.639 16.6 12.9307 16.475C13.2307 16.35 13.5265 16.2125 13.8182 16.0625V12.3H11.1682C11.0015 12.3 10.864 12.25 10.7557 12.15C10.6557 12.05 10.6057 11.925 10.6057 11.775V10.2625H16.2307ZM21.9227 8.7375C22.331 7.90417 22.8227 7.25 23.3977 6.775C23.9727 6.3 24.6643 6.0625 25.4727 6.0625C25.7477 6.0625 26.006 6.09583 26.2477 6.1625C26.4977 6.22083 26.7143 6.3125 26.8977 6.4375L26.7352 8.275C26.6768 8.5 26.5393 8.6125 26.3227 8.6125C26.206 8.6125 26.031 8.59167 25.7977 8.55C25.5643 8.5 25.3143 8.475 25.0477 8.475C24.656 8.475 24.3102 8.53333 24.0102 8.65C23.7102 8.75833 23.4393 8.925 23.1977 9.15C22.9643 9.36667 22.756 9.6375 22.5727 9.9625C22.3893 10.2792 22.2185 10.6417 22.0602 11.05V19H19.6227V6.3H21.0227C21.2893 6.3 21.4685 6.35 21.5602 6.45C21.6602 6.54167 21.731 6.70833 21.7727 6.95L21.9227 8.7375ZM37.2266 11.2375C37.2266 10.7542 37.1557 10.3083 37.0141 9.9C36.8807 9.49167 36.6807 9.1375 36.4141 8.8375C36.1474 8.5375 35.8224 8.30417 35.4391 8.1375C35.0557 7.97083 34.6141 7.8875 34.1141 7.8875C33.0891 7.8875 32.2807 8.18333 31.6891 8.775C31.1057 9.36667 30.7349 10.1875 30.5766 11.2375H37.2266ZM39.2391 17.1875C38.9391 17.5375 38.5932 17.8417 38.2016 18.1C37.8099 18.35 37.3932 18.5542 36.9516 18.7125C36.5099 18.8708 36.0516 18.9875 35.5766 19.0625C35.1099 19.1375 34.6474 19.175 34.1891 19.175C33.3141 19.175 32.5016 19.0292 31.7516 18.7375C31.0099 18.4375 30.3641 18.0042 29.8141 17.4375C29.2724 16.8625 28.8474 16.1542 28.5391 15.3125C28.2391 14.4625 28.0891 13.4875 28.0891 12.3875C28.0891 11.5042 28.2266 10.6833 28.5016 9.925C28.7766 9.15833 29.1682 8.49167 29.6766 7.925C30.1932 7.35833 30.8224 6.9125 31.5641 6.5875C32.3057 6.2625 33.1391 6.1 34.0641 6.1C34.8391 6.1 35.5516 6.22917 36.2016 6.4875C36.8599 6.7375 37.4266 7.10417 37.9016 7.5875C38.3766 8.07083 38.7474 8.66667 39.0141 9.375C39.2891 10.0833 39.4266 10.8917 39.4266 11.8C39.4266 12.175 39.3849 12.4292 39.3016 12.5625C39.2182 12.6875 39.0641 12.75 38.8391 12.75H30.5141C30.5391 13.5083 30.6474 14.1708 30.8391 14.7375C31.0307 15.2958 31.2932 15.7625 31.6266 16.1375C31.9682 16.5125 32.3724 16.7917 32.8391 16.975C33.3057 17.1583 33.8266 17.25 34.4016 17.25C34.9432 17.25 35.4099 17.1875 35.8016 17.0625C36.2016 16.9375 36.5432 16.8042 36.8266 16.6625C37.1182 16.5125 37.3599 16.375 37.5516 16.25C37.7516 16.125 37.9266 16.0625 38.0766 16.0625C38.2766 16.0625 38.4307 16.1375 38.5391 16.2875L39.2391 17.1875ZM49.3715 13.3625C48.3798 13.3958 47.5382 13.475 46.8465 13.6C46.1548 13.7167 45.5923 13.875 45.159 14.075C44.7257 14.275 44.4132 14.5125 44.2215 14.7875C44.0298 15.0542 43.934 15.3542 43.934 15.6875C43.934 16.0042 43.984 16.2792 44.084 16.5125C44.1923 16.7375 44.334 16.925 44.509 17.075C44.6923 17.2167 44.9048 17.3208 45.1465 17.3875C45.3882 17.4542 45.6507 17.4875 45.934 17.4875C46.309 17.4875 46.6507 17.45 46.959 17.375C47.2757 17.3 47.5715 17.1958 47.8465 17.0625C48.1215 16.9208 48.384 16.75 48.634 16.55C48.884 16.35 49.1298 16.1208 49.3715 15.8625V13.3625ZM42.2215 8.075C42.9298 7.4 43.6965 6.89583 44.5215 6.5625C45.3548 6.22917 46.2673 6.0625 47.259 6.0625C47.984 6.0625 48.6257 6.18333 49.184 6.425C49.7423 6.65833 50.2132 6.9875 50.5965 7.4125C50.9798 7.8375 51.2673 8.34583 51.459 8.9375C51.659 9.52917 51.759 10.1833 51.759 10.9V19H50.6715C50.4298 19 50.2465 18.9625 50.1215 18.8875C49.9965 18.8042 49.8965 18.6542 49.8215 18.4375L49.559 17.325C49.234 17.625 48.9132 17.8917 48.5965 18.125C48.2798 18.35 47.9465 18.5458 47.5965 18.7125C47.2548 18.8708 46.8882 18.9917 46.4965 19.075C46.1048 19.1583 45.6715 19.2 45.1965 19.2C44.6965 19.2 44.2257 19.1333 43.784 19C43.3507 18.8583 42.9715 18.6458 42.6465 18.3625C42.3215 18.0792 42.0632 17.725 41.8715 17.3C41.6882 16.875 41.5965 16.3792 41.5965 15.8125C41.5965 15.3125 41.7298 14.8333 41.9965 14.375C42.2715 13.9083 42.7132 13.4917 43.3215 13.125C43.9382 12.7583 44.7382 12.4583 45.7215 12.225C46.7132 11.9917 47.9298 11.8583 49.3715 11.825V10.9C49.3715 9.94167 49.1673 9.225 48.759 8.75C48.3507 8.275 47.7507 8.0375 46.959 8.0375C46.4257 8.0375 45.9757 8.10417 45.609 8.2375C45.2507 8.37083 44.9382 8.52083 44.6715 8.6875C44.4132 8.84583 44.184 8.99167 43.984 9.125C43.7923 9.25833 43.5923 9.325 43.384 9.325C43.2173 9.325 43.0715 9.27917 42.9465 9.1875C42.8298 9.09583 42.734 8.9875 42.659 8.8625L42.2215 8.075ZM59.3262 19.2C58.3012 19.2 57.5095 18.9125 56.9512 18.3375C56.4012 17.7625 56.1262 16.9417 56.1262 15.875V8.275H54.6512C54.5095 8.275 54.3887 8.23333 54.2887 8.15C54.197 8.05833 54.1512 7.925 54.1512 7.75V6.7625L56.2137 6.475L56.7637 2.6875C56.797 2.54583 56.8595 2.4375 56.9512 2.3625C57.0512 2.27917 57.1762 2.2375 57.3262 2.2375H58.5637V6.5H62.1637V8.275H58.5637V15.7125C58.5637 16.2125 58.6845 16.5875 58.9262 16.8375C59.1762 17.0792 59.4928 17.2 59.8762 17.2C60.1012 17.2 60.2928 17.1708 60.4512 17.1125C60.6178 17.0542 60.7595 16.9917 60.8762 16.925C60.9928 16.85 61.0928 16.7833 61.1762 16.725C61.2595 16.6667 61.3345 16.6375 61.4012 16.6375C61.4845 16.6375 61.547 16.6583 61.5887 16.7C61.6387 16.7333 61.6887 16.7917 61.7387 16.875L62.4637 18.05C62.0637 18.4167 61.5887 18.7 61.0387 18.9C60.4887 19.1 59.9178 19.2 59.3262 19.2ZM88.8818 6.3L84.7943 19H82.8443C82.611 19 82.4527 18.8458 82.3693 18.5375L79.6943 10.2625C79.6277 10.0542 79.5693 9.85 79.5193 9.65C79.4693 9.44167 79.4235 9.23333 79.3818 9.025C79.3068 9.45833 79.2027 9.87917 79.0693 10.2875L76.3568 18.5375C76.2735 18.8458 76.0943 19 75.8193 19H73.9693L69.8693 6.3H71.7943C71.986 6.3 72.1443 6.34583 72.2693 6.4375C72.4027 6.52917 72.4902 6.64583 72.5318 6.7875L74.8193 14.5875C74.8943 14.9042 74.961 15.2125 75.0193 15.5125C75.0777 15.8125 75.1318 16.1125 75.1818 16.4125C75.2568 16.1125 75.336 15.8125 75.4193 15.5125C75.511 15.2125 75.6027 14.9042 75.6943 14.5875L78.2318 6.7375C78.2735 6.59583 78.3527 6.48333 78.4693 6.4C78.586 6.30833 78.7277 6.2625 78.8943 6.2625H79.9568C80.1402 6.2625 80.2902 6.30833 80.4068 6.4C80.5318 6.48333 80.6152 6.59583 80.6568 6.7375L83.1318 14.5875C83.2235 14.9042 83.311 15.2167 83.3943 15.525C83.4777 15.825 83.5527 16.1292 83.6193 16.4375C83.6693 16.1375 83.7277 15.8375 83.7943 15.5375C83.861 15.2292 83.936 14.9125 84.0193 14.5875L86.3443 6.7875C86.386 6.64583 86.4693 6.52917 86.5943 6.4375C86.7277 6.34583 86.8777 6.3 87.0443 6.3H88.8818ZM98.1244 13.3625C97.1327 13.3958 96.2911 13.475 95.5994 13.6C94.9077 13.7167 94.3452 13.875 93.9119 14.075C93.4786 14.275 93.1661 14.5125 92.9744 14.7875C92.7827 15.0542 92.6869 15.3542 92.6869 15.6875C92.6869 16.0042 92.7369 16.2792 92.8369 16.5125C92.9452 16.7375 93.0869 16.925 93.2619 17.075C93.4452 17.2167 93.6577 17.3208 93.8994 17.3875C94.1411 17.4542 94.4036 17.4875 94.6869 17.4875C95.0619 17.4875 95.4036 17.45 95.7119 17.375C96.0286 17.3 96.3244 17.1958 96.5994 17.0625C96.8744 16.9208 97.1369 16.75 97.3869 16.55C97.6369 16.35 97.8827 16.1208 98.1244 15.8625V13.3625ZM90.9744 8.075C91.6827 7.4 92.4494 6.89583 93.2744 6.5625C94.1077 6.22917 95.0202 6.0625 96.0119 6.0625C96.7369 6.0625 97.3786 6.18333 97.9369 6.425C98.4952 6.65833 98.9661 6.9875 99.3494 7.4125C99.7327 7.8375 100.02 8.34583 100.212 8.9375C100.412 9.52917 100.512 10.1833 100.512 10.9V19H99.4244C99.1827 19 98.9994 18.9625 98.8744 18.8875C98.7494 18.8042 98.6494 18.6542 98.5744 18.4375L98.3119 17.325C97.9869 17.625 97.6661 17.8917 97.3494 18.125C97.0327 18.35 96.6994 18.5458 96.3494 18.7125C96.0077 18.8708 95.6411 18.9917 95.2494 19.075C94.8577 19.1583 94.4244 19.2 93.9494 19.2C93.4494 19.2 92.9786 19.1333 92.5369 19C92.1036 18.8583 91.7244 18.6458 91.3994 18.3625C91.0744 18.0792 90.8161 17.725 90.6244 17.3C90.4411 16.875 90.3494 16.3792 90.3494 15.8125C90.3494 15.3125 90.4827 14.8333 90.7494 14.375C91.0244 13.9083 91.4661 13.4917 92.0744 13.125C92.6911 12.7583 93.4911 12.4583 94.4744 12.225C95.4661 11.9917 96.6827 11.8583 98.1244 11.825V10.9C98.1244 9.94167 97.9202 9.225 97.5119 8.75C97.1036 8.275 96.5036 8.0375 95.7119 8.0375C95.1786 8.0375 94.7286 8.10417 94.3619 8.2375C94.0036 8.37083 93.6911 8.52083 93.4244 8.6875C93.1661 8.84583 92.9369 8.99167 92.7369 9.125C92.5452 9.25833 92.3452 9.325 92.1369 9.325C91.9702 9.325 91.8244 9.27917 91.6994 9.1875C91.5827 9.09583 91.4869 8.9875 91.4119 8.8625L90.9744 8.075ZM115.058 6.3L108.008 22.6875C107.933 22.8708 107.833 23.0125 107.708 23.1125C107.583 23.2125 107.399 23.2625 107.158 23.2625H105.345L107.67 18.2L102.458 6.3H104.583C104.791 6.3 104.953 6.35 105.07 6.45C105.187 6.55 105.27 6.6625 105.32 6.7875L108.545 14.4125C108.612 14.6042 108.674 14.8 108.733 15C108.799 15.1917 108.853 15.3833 108.895 15.575C108.953 15.375 109.016 15.1792 109.083 14.9875C109.149 14.7875 109.22 14.5917 109.295 14.4L112.408 6.7875C112.466 6.64583 112.558 6.52917 112.683 6.4375C112.808 6.34583 112.949 6.3 113.108 6.3H115.058ZM127.609 19.2C126.584 19.2 125.793 18.9125 125.234 18.3375C124.684 17.7625 124.409 16.9417 124.409 15.875V8.275H122.934C122.793 8.275 122.672 8.23333 122.572 8.15C122.48 8.05833 122.434 7.925 122.434 7.75V6.7625L124.497 6.475L125.047 2.6875C125.08 2.54583 125.143 2.4375 125.234 2.3625C125.334 2.27917 125.459 2.2375 125.609 2.2375H126.847V6.5H130.447V8.275H126.847V15.7125C126.847 16.2125 126.968 16.5875 127.209 16.8375C127.459 17.0792 127.776 17.2 128.159 17.2C128.384 17.2 128.576 17.1708 128.734 17.1125C128.901 17.0542 129.043 16.9917 129.159 16.925C129.276 16.85 129.376 16.7833 129.459 16.725C129.543 16.6667 129.618 16.6375 129.684 16.6375C129.768 16.6375 129.83 16.6583 129.872 16.7C129.922 16.7333 129.972 16.7917 130.022 16.875L130.747 18.05C130.347 18.4167 129.872 18.7 129.322 18.9C128.772 19.1 128.201 19.2 127.609 19.2ZM138.531 6.1C139.465 6.1 140.306 6.25417 141.056 6.5625C141.815 6.8625 142.456 7.3 142.981 7.875C143.515 8.44167 143.923 9.12917 144.206 9.9375C144.49 10.7375 144.631 11.6375 144.631 12.6375C144.631 13.6375 144.49 14.5417 144.206 15.35C143.923 16.1583 143.515 16.8458 142.981 17.4125C142.456 17.9792 141.815 18.4167 141.056 18.725C140.306 19.025 139.465 19.175 138.531 19.175C137.59 19.175 136.74 19.025 135.981 18.725C135.231 18.4167 134.59 17.9792 134.056 17.4125C133.523 16.8458 133.11 16.1583 132.819 15.35C132.535 14.5417 132.394 13.6375 132.394 12.6375C132.394 11.6375 132.535 10.7375 132.819 9.9375C133.11 9.12917 133.523 8.44167 134.056 7.875C134.59 7.3 135.231 6.8625 135.981 6.5625C136.74 6.25417 137.59 6.1 138.531 6.1ZM138.531 17.275C139.731 17.275 140.627 16.8708 141.219 16.0625C141.81 15.2542 142.106 14.1167 142.106 12.65C142.106 11.1833 141.81 10.0458 141.219 9.2375C140.627 8.42083 139.731 8.0125 138.531 8.0125C137.315 8.0125 136.406 8.42083 135.806 9.2375C135.215 10.0458 134.919 11.1833 134.919 12.65C134.919 14.1167 135.215 15.2542 135.806 16.0625C136.406 16.8708 137.315 17.275 138.531 17.275ZM159.138 12.6625C159.571 12.6625 159.95 12.6042 160.275 12.4875C160.609 12.3708 160.884 12.2083 161.1 12C161.325 11.7833 161.492 11.525 161.6 11.225C161.717 10.925 161.775 10.5958 161.775 10.2375C161.775 9.50417 161.55 8.92083 161.1 8.4875C160.659 8.04583 160.005 7.825 159.138 7.825C158.28 7.825 157.625 8.04583 157.175 8.4875C156.734 8.92083 156.513 9.50417 156.513 10.2375C156.513 10.5958 156.567 10.925 156.675 11.225C156.792 11.5167 156.959 11.7708 157.175 11.9875C157.4 12.1958 157.675 12.3625 158 12.4875C158.334 12.6042 158.713 12.6625 159.138 12.6625ZM163.025 19.6625C163.025 19.3625 162.942 19.125 162.775 18.95C162.609 18.7667 162.38 18.625 162.088 18.525C161.805 18.4167 161.471 18.3417 161.088 18.3C160.705 18.25 160.3 18.2125 159.875 18.1875C159.459 18.1625 159.03 18.1417 158.588 18.125C158.146 18.1 157.721 18.0583 157.313 18C156.88 18.2167 156.521 18.4792 156.238 18.7875C155.963 19.0958 155.825 19.4583 155.825 19.875C155.825 20.1417 155.892 20.3917 156.025 20.625C156.167 20.8583 156.38 21.0583 156.663 21.225C156.955 21.4 157.317 21.5333 157.75 21.625C158.192 21.725 158.717 21.775 159.325 21.775C159.925 21.775 160.455 21.7208 160.913 21.6125C161.371 21.5125 161.755 21.3667 162.063 21.175C162.38 20.9917 162.617 20.7708 162.775 20.5125C162.942 20.2542 163.025 19.9708 163.025 19.6625ZM165.5 6.775V7.6875C165.5 7.9875 165.313 8.175 164.938 8.25L163.575 8.45C163.692 8.70833 163.784 8.98333 163.85 9.275C163.917 9.55833 163.95 9.85833 163.95 10.175C163.95 10.8 163.83 11.3667 163.588 11.875C163.346 12.375 163.013 12.8042 162.588 13.1625C162.163 13.5208 161.655 13.7958 161.063 13.9875C160.48 14.1792 159.838 14.275 159.138 14.275C158.563 14.275 158.025 14.2125 157.525 14.0875C157.275 14.2375 157.084 14.4042 156.95 14.5875C156.825 14.7625 156.763 14.9375 156.763 15.1125C156.763 15.4042 156.884 15.6208 157.125 15.7625C157.375 15.9042 157.696 16.0083 158.088 16.075C158.488 16.1333 158.942 16.1708 159.45 16.1875C159.967 16.2042 160.488 16.2333 161.013 16.275C161.546 16.3083 162.067 16.375 162.575 16.475C163.092 16.5667 163.546 16.7208 163.938 16.9375C164.338 17.1458 164.659 17.4375 164.9 17.8125C165.15 18.1792 165.275 18.6583 165.275 19.25C165.275 19.8 165.138 20.3333 164.863 20.85C164.596 21.3667 164.205 21.825 163.688 22.225C163.171 22.625 162.542 22.9458 161.8 23.1875C161.059 23.4292 160.217 23.55 159.275 23.55C158.334 23.55 157.513 23.4583 156.813 23.275C156.121 23.0917 155.542 22.8458 155.075 22.5375C154.617 22.2292 154.271 21.8708 154.038 21.4625C153.813 21.0542 153.7 20.6292 153.7 20.1875C153.7 19.5708 153.892 19.05 154.275 18.625C154.659 18.1917 155.188 17.8542 155.863 17.6125C155.496 17.4458 155.205 17.2208 154.988 16.9375C154.771 16.6458 154.663 16.2625 154.663 15.7875C154.663 15.6042 154.696 15.4167 154.763 15.225C154.83 15.025 154.93 14.8292 155.063 14.6375C155.205 14.4375 155.375 14.25 155.575 14.075C155.784 13.9 156.021 13.7417 156.288 13.6C155.663 13.25 155.171 12.7875 154.813 12.2125C154.455 11.6292 154.275 10.95 154.275 10.175C154.275 9.55 154.396 8.9875 154.638 8.4875C154.88 7.9875 155.213 7.55833 155.638 7.2C156.071 6.84167 156.584 6.56667 157.175 6.375C157.775 6.18333 158.43 6.0875 159.138 6.0875C160.238 6.0875 161.184 6.31667 161.975 6.775H165.5ZM176.454 11.2375C176.454 10.7542 176.383 10.3083 176.242 9.9C176.108 9.49167 175.908 9.1375 175.642 8.8375C175.375 8.5375 175.05 8.30417 174.667 8.1375C174.283 7.97083 173.842 7.8875 173.342 7.8875C172.317 7.8875 171.508 8.18333 170.917 8.775C170.333 9.36667 169.962 10.1875 169.804 11.2375H176.454ZM178.467 17.1875C178.167 17.5375 177.821 17.8417 177.429 18.1C177.037 18.35 176.621 18.5542 176.179 18.7125C175.737 18.8708 175.279 18.9875 174.804 19.0625C174.337 19.1375 173.875 19.175 173.417 19.175C172.542 19.175 171.729 19.0292 170.979 18.7375C170.237 18.4375 169.592 18.0042 169.042 17.4375C168.5 16.8625 168.075 16.1542 167.767 15.3125C167.467 14.4625 167.317 13.4875 167.317 12.3875C167.317 11.5042 167.454 10.6833 167.729 9.925C168.004 9.15833 168.396 8.49167 168.904 7.925C169.421 7.35833 170.05 6.9125 170.792 6.5875C171.533 6.2625 172.367 6.1 173.292 6.1C174.067 6.1 174.779 6.22917 175.429 6.4875C176.087 6.7375 176.654 7.10417 177.129 7.5875C177.604 8.07083 177.975 8.66667 178.242 9.375C178.517 10.0833 178.654 10.8917 178.654 11.8C178.654 12.175 178.612 12.4292 178.529 12.5625C178.446 12.6875 178.292 12.75 178.067 12.75H169.742C169.767 13.5083 169.875 14.1708 170.067 14.7375C170.258 15.2958 170.521 15.7625 170.854 16.1375C171.196 16.5125 171.6 16.7917 172.067 16.975C172.533 17.1583 173.054 17.25 173.629 17.25C174.171 17.25 174.637 17.1875 175.029 17.0625C175.429 16.9375 175.771 16.8042 176.054 16.6625C176.346 16.5125 176.587 16.375 176.779 16.25C176.979 16.125 177.154 16.0625 177.304 16.0625C177.504 16.0625 177.658 16.1375 177.767 16.2875L178.467 17.1875ZM201.626 19H199.176V8.275H193.051V15.7125C193.051 16.2125 193.172 16.5875 193.414 16.8375C193.656 17.0792 193.972 17.2 194.364 17.2C194.589 17.2 194.781 17.1708 194.939 17.1125C195.106 17.0542 195.247 16.9917 195.364 16.925C195.481 16.85 195.581 16.7833 195.664 16.725C195.747 16.6667 195.822 16.6375 195.889 16.6375C195.964 16.6375 196.026 16.6583 196.076 16.7C196.126 16.7333 196.176 16.7917 196.226 16.875L196.951 18.05C196.551 18.4167 196.072 18.7 195.514 18.9C194.964 19.1 194.393 19.2 193.801 19.2C192.776 19.2 191.985 18.9125 191.426 18.3375C190.876 17.7625 190.601 16.9417 190.601 15.875V8.275H184.889V15.7125C184.889 16.2125 185.01 16.5875 185.251 16.8375C185.501 17.0792 185.818 17.2 186.201 17.2C186.426 17.2 186.618 17.1708 186.776 17.1125C186.943 17.0542 187.085 16.9917 187.201 16.925C187.318 16.85 187.418 16.7833 187.501 16.725C187.585 16.6667 187.66 16.6375 187.726 16.6375C187.81 16.6375 187.872 16.6583 187.914 16.7C187.964 16.7333 188.014 16.7917 188.064 16.875L188.789 18.05C188.389 18.4167 187.914 18.7 187.364 18.9C186.814 19.1 186.243 19.2 185.651 19.2C184.626 19.2 183.835 18.9125 183.276 18.3375C182.726 17.7625 182.451 16.9417 182.451 15.875V8.275H180.976C180.835 8.275 180.714 8.23333 180.614 8.15C180.522 8.05833 180.476 7.925 180.476 7.75V6.7625L182.551 6.475L183.089 2.6875C183.122 2.54583 183.185 2.4375 183.276 2.3625C183.376 2.27917 183.501 2.2375 183.651 2.2375H184.889V6.5H190.689L191.251 2.6875C191.276 2.54583 191.335 2.4375 191.426 2.3625C191.526 2.27917 191.651 2.2375 191.801 2.2375H193.051V6.5H201.626V19ZM202.126 2.3C202.126 2.525 202.081 2.74167 201.989 2.95C201.897 3.15 201.772 3.32917 201.614 3.4875C201.464 3.6375 201.285 3.75833 201.076 3.85C200.868 3.93333 200.651 3.975 200.426 3.975C200.201 3.975 199.989 3.93333 199.789 3.85C199.589 3.75833 199.41 3.6375 199.251 3.4875C199.101 3.32917 198.981 3.15 198.889 2.95C198.806 2.74167 198.764 2.525 198.764 2.3C198.764 2.06667 198.806 1.84583 198.889 1.6375C198.981 1.42917 199.101 1.25 199.251 1.1C199.41 0.941666 199.589 0.820832 199.789 0.737499C199.989 0.645832 200.201 0.599998 200.426 0.599998C200.651 0.599998 200.868 0.645832 201.076 0.737499C201.285 0.820832 201.464 0.941666 201.614 1.1C201.772 1.25 201.897 1.42917 201.989 1.6375C202.081 1.84583 202.126 2.06667 202.126 2.3ZM207.95 8.0625C208.225 7.77083 208.513 7.50417 208.813 7.2625C209.113 7.02083 209.429 6.81667 209.763 6.65C210.104 6.475 210.467 6.34167 210.85 6.25C211.242 6.15 211.659 6.1 212.1 6.1C212.8 6.1 213.413 6.21667 213.938 6.45C214.471 6.68333 214.917 7.0125 215.275 7.4375C215.634 7.85417 215.904 8.35833 216.088 8.95C216.271 9.54167 216.363 10.1958 216.363 10.9125V19H213.913V10.9125C213.913 10.0042 213.704 9.3 213.288 8.8C212.871 8.29167 212.234 8.0375 211.375 8.0375C210.75 8.0375 210.163 8.1875 209.613 8.4875C209.071 8.77917 208.567 9.17917 208.1 9.6875V19H205.663V6.3H207.125C207.467 6.3 207.679 6.4625 207.763 6.7875L207.95 8.0625ZM224.614 12.6625C225.048 12.6625 225.427 12.6042 225.752 12.4875C226.085 12.3708 226.36 12.2083 226.577 12C226.802 11.7833 226.969 11.525 227.077 11.225C227.194 10.925 227.252 10.5958 227.252 10.2375C227.252 9.50417 227.027 8.92083 226.577 8.4875C226.135 8.04583 225.481 7.825 224.614 7.825C223.756 7.825 223.102 8.04583 222.652 8.4875C222.21 8.92083 221.989 9.50417 221.989 10.2375C221.989 10.5958 222.044 10.925 222.152 11.225C222.269 11.5167 222.435 11.7708 222.652 11.9875C222.877 12.1958 223.152 12.3625 223.477 12.4875C223.81 12.6042 224.189 12.6625 224.614 12.6625ZM228.502 19.6625C228.502 19.3625 228.419 19.125 228.252 18.95C228.085 18.7667 227.856 18.625 227.564 18.525C227.281 18.4167 226.948 18.3417 226.564 18.3C226.181 18.25 225.777 18.2125 225.352 18.1875C224.935 18.1625 224.506 18.1417 224.064 18.125C223.623 18.1 223.198 18.0583 222.789 18C222.356 18.2167 221.998 18.4792 221.714 18.7875C221.439 19.0958 221.302 19.4583 221.302 19.875C221.302 20.1417 221.369 20.3917 221.502 20.625C221.644 20.8583 221.856 21.0583 222.139 21.225C222.431 21.4 222.794 21.5333 223.227 21.625C223.669 21.725 224.194 21.775 224.802 21.775C225.402 21.775 225.931 21.7208 226.389 21.6125C226.848 21.5125 227.231 21.3667 227.539 21.175C227.856 20.9917 228.094 20.7708 228.252 20.5125C228.419 20.2542 228.502 19.9708 228.502 19.6625ZM230.977 6.775V7.6875C230.977 7.9875 230.789 8.175 230.414 8.25L229.052 8.45C229.169 8.70833 229.26 8.98333 229.327 9.275C229.394 9.55833 229.427 9.85833 229.427 10.175C229.427 10.8 229.306 11.3667 229.064 11.875C228.823 12.375 228.489 12.8042 228.064 13.1625C227.639 13.5208 227.131 13.7958 226.539 13.9875C225.956 14.1792 225.314 14.275 224.614 14.275C224.039 14.275 223.502 14.2125 223.002 14.0875C222.752 14.2375 222.56 14.4042 222.427 14.5875C222.302 14.7625 222.239 14.9375 222.239 15.1125C222.239 15.4042 222.36 15.6208 222.602 15.7625C222.852 15.9042 223.173 16.0083 223.564 16.075C223.964 16.1333 224.419 16.1708 224.927 16.1875C225.444 16.2042 225.964 16.2333 226.489 16.275C227.023 16.3083 227.544 16.375 228.052 16.475C228.569 16.5667 229.023 16.7208 229.414 16.9375C229.814 17.1458 230.135 17.4375 230.377 17.8125C230.627 18.1792 230.752 18.6583 230.752 19.25C230.752 19.8 230.614 20.3333 230.339 20.85C230.073 21.3667 229.681 21.825 229.164 22.225C228.648 22.625 228.019 22.9458 227.277 23.1875C226.535 23.4292 225.694 23.55 224.752 23.55C223.81 23.55 222.989 23.4583 222.289 23.275C221.598 23.0917 221.019 22.8458 220.552 22.5375C220.094 22.2292 219.748 21.8708 219.514 21.4625C219.289 21.0542 219.177 20.6292 219.177 20.1875C219.177 19.5708 219.369 19.05 219.752 18.625C220.135 18.1917 220.664 17.8542 221.339 17.6125C220.973 17.4458 220.681 17.2208 220.464 16.9375C220.248 16.6458 220.139 16.2625 220.139 15.7875C220.139 15.6042 220.173 15.4167 220.239 15.225C220.306 15.025 220.406 14.8292 220.539 14.6375C220.681 14.4375 220.852 14.25 221.052 14.075C221.26 13.9 221.498 13.7417 221.764 13.6C221.139 13.25 220.648 12.7875 220.289 12.2125C219.931 11.6292 219.752 10.95 219.752 10.175C219.752 9.55 219.873 8.9875 220.114 8.4875C220.356 7.9875 220.689 7.55833 221.114 7.2C221.548 6.84167 222.06 6.56667 222.652 6.375C223.252 6.18333 223.906 6.0875 224.614 6.0875C225.714 6.0875 226.66 6.31667 227.452 6.775H230.977ZM243.087 6.3V19H240.649V6.3H243.087ZM243.549 2.375C243.549 2.6 243.503 2.81667 243.412 3.025C243.32 3.225 243.195 3.40417 243.037 3.5625C242.887 3.7125 242.708 3.83333 242.499 3.925C242.291 4.00833 242.074 4.05 241.849 4.05C241.624 4.05 241.412 4.00833 241.212 3.925C241.012 3.83333 240.833 3.7125 240.674 3.5625C240.524 3.40417 240.403 3.225 240.312 3.025C240.228 2.81667 240.187 2.6 240.187 2.375C240.187 2.14167 240.228 1.925 240.312 1.725C240.403 1.51667 240.524 1.3375 240.674 1.1875C240.833 1.02917 241.012 0.908332 241.212 0.824999C241.412 0.733333 241.624 0.6875 241.849 0.6875C242.074 0.6875 242.291 0.733333 242.499 0.824999C242.708 0.908332 242.887 1.02917 243.037 1.1875C243.195 1.3375 243.32 1.51667 243.412 1.725C243.503 1.925 243.549 2.14167 243.549 2.375ZM249.403 8.0625C249.678 7.77083 249.966 7.50417 250.266 7.2625C250.566 7.02083 250.882 6.81667 251.216 6.65C251.557 6.475 251.92 6.34167 252.303 6.25C252.695 6.15 253.112 6.1 253.553 6.1C254.253 6.1 254.866 6.21667 255.391 6.45C255.924 6.68333 256.37 7.0125 256.728 7.4375C257.087 7.85417 257.357 8.35833 257.541 8.95C257.724 9.54167 257.816 10.1958 257.816 10.9125V19H255.366V10.9125C255.366 10.0042 255.157 9.3 254.741 8.8C254.324 8.29167 253.687 8.0375 252.828 8.0375C252.203 8.0375 251.616 8.1875 251.066 8.4875C250.524 8.77917 250.02 9.17917 249.553 9.6875V19H247.116V6.3H248.578C248.92 6.3 249.132 6.4625 249.216 6.7875L249.403 8.0625ZM265.409 19.2C264.384 19.2 263.593 18.9125 263.034 18.3375C262.484 17.7625 262.209 16.9417 262.209 15.875V8.275H260.734C260.593 8.275 260.472 8.23333 260.372 8.15C260.28 8.05833 260.234 7.925 260.234 7.75V6.7625L262.297 6.475L262.847 2.6875C262.88 2.54583 262.943 2.4375 263.034 2.3625C263.134 2.27917 263.259 2.2375 263.409 2.2375H264.647V6.5H268.247V8.275H264.647V15.7125C264.647 16.2125 264.768 16.5875 265.009 16.8375C265.259 17.0792 265.576 17.2 265.959 17.2C266.184 17.2 266.376 17.1708 266.534 17.1125C266.701 17.0542 266.843 16.9917 266.959 16.925C267.076 16.85 267.176 16.7833 267.259 16.725C267.343 16.6667 267.418 16.6375 267.484 16.6375C267.568 16.6375 267.63 16.6583 267.672 16.7C267.722 16.7333 267.772 16.7917 267.822 16.875L268.547 18.05C268.147 18.4167 267.672 18.7 267.122 18.9C266.572 19.1 266.001 19.2 265.409 19.2ZM276.331 6.1C277.264 6.1 278.106 6.25417 278.856 6.5625C279.614 6.8625 280.256 7.3 280.781 7.875C281.314 8.44167 281.723 9.12917 282.006 9.9375C282.289 10.7375 282.431 11.6375 282.431 12.6375C282.431 13.6375 282.289 14.5417 282.006 15.35C281.723 16.1583 281.314 16.8458 280.781 17.4125C280.256 17.9792 279.614 18.4167 278.856 18.725C278.106 19.025 277.264 19.175 276.331 19.175C275.389 19.175 274.539 19.025 273.781 18.725C273.031 18.4167 272.389 17.9792 271.856 17.4125C271.323 16.8458 270.91 16.1583 270.619 15.35C270.335 14.5417 270.194 13.6375 270.194 12.6375C270.194 11.6375 270.335 10.7375 270.619 9.9375C270.91 9.12917 271.323 8.44167 271.856 7.875C272.389 7.3 273.031 6.8625 273.781 6.5625C274.539 6.25417 275.389 6.1 276.331 6.1ZM276.331 17.275C277.531 17.275 278.427 16.8708 279.019 16.0625C279.61 15.2542 279.906 14.1167 279.906 12.65C279.906 11.1833 279.61 10.0458 279.019 9.2375C278.427 8.42083 277.531 8.0125 276.331 8.0125C275.114 8.0125 274.206 8.42083 273.606 9.2375C273.014 10.0458 272.719 11.1833 272.719 12.65C272.719 14.1167 273.014 15.2542 273.606 16.0625C274.206 16.8708 275.114 17.275 276.331 17.275ZM294.913 15.875C295.313 16.4 295.742 16.7667 296.2 16.975C296.667 17.1833 297.188 17.2875 297.763 17.2875C298.879 17.2875 299.742 16.8875 300.35 16.0875C300.967 15.2792 301.275 14.1042 301.275 12.5625C301.275 11.7542 301.204 11.0667 301.063 10.5C300.929 9.925 300.729 9.45833 300.463 9.1C300.204 8.73333 299.884 8.46667 299.5 8.3C299.117 8.125 298.684 8.0375 298.2 8.0375C297.492 8.0375 296.875 8.19583 296.35 8.5125C295.834 8.82917 295.354 9.27917 294.913 9.8625V15.875ZM294.788 8.2C295.054 7.88333 295.338 7.59583 295.638 7.3375C295.946 7.07083 296.275 6.84583 296.625 6.6625C296.975 6.47083 297.346 6.325 297.738 6.225C298.138 6.11667 298.563 6.0625 299.013 6.0625C299.738 6.0625 300.392 6.20417 300.975 6.4875C301.567 6.77083 302.071 7.1875 302.488 7.7375C302.904 8.2875 303.225 8.96667 303.45 9.775C303.684 10.5833 303.8 11.5125 303.8 12.5625C303.8 13.5042 303.671 14.3792 303.413 15.1875C303.163 15.9875 302.8 16.6833 302.325 17.275C301.859 17.8667 301.284 18.3333 300.6 18.675C299.925 19.0083 299.163 19.175 298.313 19.175C297.554 19.175 296.904 19.05 296.363 18.8C295.821 18.55 295.338 18.2 294.913 17.75V23.2625H292.475V6.3H293.938C294.279 6.3 294.492 6.4625 294.575 6.7875L294.788 8.2ZM309.338 8.7375C309.746 7.90417 310.238 7.25 310.813 6.775C311.388 6.3 312.079 6.0625 312.888 6.0625C313.163 6.0625 313.421 6.09583 313.663 6.1625C313.913 6.22083 314.129 6.3125 314.313 6.4375L314.15 8.275C314.092 8.5 313.954 8.6125 313.738 8.6125C313.621 8.6125 313.446 8.59167 313.213 8.55C312.979 8.5 312.729 8.475 312.463 8.475C312.071 8.475 311.725 8.53333 311.425 8.65C311.125 8.75833 310.854 8.925 310.613 9.15C310.379 9.36667 310.171 9.6375 309.988 9.9625C309.804 10.2792 309.634 10.6417 309.475 11.05V19H307.038V6.3H308.438C308.704 6.3 308.884 6.35 308.975 6.45C309.075 6.54167 309.146 6.70833 309.188 6.95L309.338 8.7375ZM321.642 6.1C322.575 6.1 323.417 6.25417 324.167 6.5625C324.925 6.8625 325.567 7.3 326.092 7.875C326.625 8.44167 327.033 9.12917 327.317 9.9375C327.6 10.7375 327.742 11.6375 327.742 12.6375C327.742 13.6375 327.6 14.5417 327.317 15.35C327.033 16.1583 326.625 16.8458 326.092 17.4125C325.567 17.9792 324.925 18.4167 324.167 18.725C323.417 19.025 322.575 19.175 321.642 19.175C320.7 19.175 319.85 19.025 319.092 18.725C318.342 18.4167 317.7 17.9792 317.167 17.4125C316.633 16.8458 316.221 16.1583 315.929 15.35C315.646 14.5417 315.504 13.6375 315.504 12.6375C315.504 11.6375 315.646 10.7375 315.929 9.9375C316.221 9.12917 316.633 8.44167 317.167 7.875C317.7 7.3 318.342 6.8625 319.092 6.5625C319.85 6.25417 320.7 6.1 321.642 6.1ZM321.642 17.275C322.842 17.275 323.737 16.8708 324.329 16.0625C324.921 15.2542 325.217 14.1167 325.217 12.65C325.217 11.1833 324.921 10.0458 324.329 9.2375C323.737 8.42083 322.842 8.0125 321.642 8.0125C320.425 8.0125 319.517 8.42083 318.917 9.2375C318.325 10.0458 318.029 11.1833 318.029 12.65C318.029 14.1167 318.325 15.2542 318.917 16.0625C319.517 16.8708 320.425 17.275 321.642 17.275ZM333.4 15.875C333.8 16.4 334.229 16.7667 334.688 16.975C335.154 17.1833 335.675 17.2875 336.25 17.2875C337.367 17.2875 338.229 16.8875 338.838 16.0875C339.454 15.2792 339.763 14.1042 339.763 12.5625C339.763 11.7542 339.692 11.0667 339.55 10.5C339.417 9.925 339.217 9.45833 338.95 9.1C338.692 8.73333 338.371 8.46667 337.988 8.3C337.604 8.125 337.171 8.0375 336.688 8.0375C335.979 8.0375 335.363 8.19583 334.838 8.5125C334.321 8.82917 333.842 9.27917 333.4 9.8625V15.875ZM333.275 8.2C333.542 7.88333 333.825 7.59583 334.125 7.3375C334.433 7.07083 334.763 6.84583 335.113 6.6625C335.463 6.47083 335.833 6.325 336.225 6.225C336.625 6.11667 337.05 6.0625 337.5 6.0625C338.225 6.0625 338.879 6.20417 339.463 6.4875C340.054 6.77083 340.558 7.1875 340.975 7.7375C341.392 8.2875 341.713 8.96667 341.938 9.775C342.171 10.5833 342.288 11.5125 342.288 12.5625C342.288 13.5042 342.158 14.3792 341.9 15.1875C341.65 15.9875 341.288 16.6833 340.813 17.275C340.346 17.8667 339.771 18.3333 339.088 18.675C338.413 19.0083 337.65 19.175 336.8 19.175C336.042 19.175 335.392 19.05 334.85 18.8C334.308 18.55 333.825 18.2 333.4 17.75V23.2625H330.963V6.3H332.425C332.767 6.3 332.979 6.4625 333.063 6.7875L333.275 8.2ZM353.938 11.2375C353.938 10.7542 353.867 10.3083 353.725 9.9C353.592 9.49167 353.392 9.1375 353.125 8.8375C352.858 8.5375 352.533 8.30417 352.15 8.1375C351.767 7.97083 351.325 7.8875 350.825 7.8875C349.8 7.8875 348.992 8.18333 348.4 8.775C347.817 9.36667 347.446 10.1875 347.288 11.2375H353.938ZM355.95 17.1875C355.65 17.5375 355.304 17.8417 354.913 18.1C354.521 18.35 354.104 18.5542 353.663 18.7125C353.221 18.8708 352.763 18.9875 352.288 19.0625C351.821 19.1375 351.358 19.175 350.9 19.175C350.025 19.175 349.213 19.0292 348.463 18.7375C347.721 18.4375 347.075 18.0042 346.525 17.4375C345.983 16.8625 345.558 16.1542 345.25 15.3125C344.95 14.4625 344.8 13.4875 344.8 12.3875C344.8 11.5042 344.938 10.6833 345.213 9.925C345.488 9.15833 345.879 8.49167 346.388 7.925C346.904 7.35833 347.533 6.9125 348.275 6.5875C349.017 6.2625 349.85 6.1 350.775 6.1C351.55 6.1 352.263 6.22917 352.913 6.4875C353.571 6.7375 354.138 7.10417 354.613 7.5875C355.088 8.07083 355.458 8.66667 355.725 9.375C356 10.0833 356.138 10.8917 356.138 11.8C356.138 12.175 356.096 12.4292 356.013 12.5625C355.929 12.6875 355.775 12.75 355.55 12.75H347.225C347.25 13.5083 347.358 14.1708 347.55 14.7375C347.742 15.2958 348.004 15.7625 348.338 16.1375C348.679 16.5125 349.083 16.7917 349.55 16.975C350.017 17.1583 350.538 17.25 351.113 17.25C351.654 17.25 352.121 17.1875 352.513 17.0625C352.913 16.9375 353.254 16.8042 353.538 16.6625C353.829 16.5125 354.071 16.375 354.263 16.25C354.463 16.125 354.638 16.0625 354.788 16.0625C354.988 16.0625 355.142 16.1375 355.25 16.2875L355.95 17.1875ZM361.557 8.7375C361.966 7.90417 362.457 7.25 363.032 6.775C363.607 6.3 364.299 6.0625 365.107 6.0625C365.382 6.0625 365.641 6.09583 365.882 6.1625C366.132 6.22083 366.349 6.3125 366.532 6.4375L366.37 8.275C366.312 8.5 366.174 8.6125 365.957 8.6125C365.841 8.6125 365.666 8.59167 365.432 8.55C365.199 8.5 364.949 8.475 364.682 8.475C364.291 8.475 363.945 8.53333 363.645 8.65C363.345 8.75833 363.074 8.925 362.832 9.15C362.599 9.36667 362.391 9.6375 362.207 9.9625C362.024 10.2792 361.853 10.6417 361.695 11.05V19H359.257V6.3H360.657C360.924 6.3 361.103 6.35 361.195 6.45C361.295 6.54167 361.366 6.70833 361.407 6.95L361.557 8.7375ZM372.888 19.2C371.863 19.2 371.071 18.9125 370.513 18.3375C369.963 17.7625 369.688 16.9417 369.688 15.875V8.275H368.213C368.071 8.275 367.95 8.23333 367.85 8.15C367.759 8.05833 367.713 7.925 367.713 7.75V6.7625L369.775 6.475L370.325 2.6875C370.359 2.54583 370.421 2.4375 370.513 2.3625C370.613 2.27917 370.738 2.2375 370.888 2.2375H372.125V6.5H375.725V8.275H372.125V15.7125C372.125 16.2125 372.246 16.5875 372.488 16.8375C372.738 17.0792 373.054 17.2 373.438 17.2C373.663 17.2 373.854 17.1708 374.013 17.1125C374.179 17.0542 374.321 16.9917 374.438 16.925C374.554 16.85 374.654 16.7833 374.738 16.725C374.821 16.6667 374.896 16.6375 374.963 16.6375C375.046 16.6375 375.109 16.6583 375.15 16.7C375.2 16.7333 375.25 16.7917 375.3 16.875L376.025 18.05C375.625 18.4167 375.15 18.7 374.6 18.9C374.05 19.1 373.479 19.2 372.888 19.2ZM389.57 6.3L382.52 22.6875C382.445 22.8708 382.345 23.0125 382.22 23.1125C382.095 23.2125 381.912 23.2625 381.67 23.2625H379.858L382.183 18.2L376.97 6.3H379.095C379.304 6.3 379.466 6.35 379.583 6.45C379.699 6.55 379.783 6.6625 379.833 6.7875L383.058 14.4125C383.124 14.6042 383.187 14.8 383.245 15C383.312 15.1917 383.366 15.3833 383.408 15.575C383.466 15.375 383.529 15.1792 383.595 14.9875C383.662 14.7875 383.733 14.5917 383.808 14.4L386.92 6.7875C386.979 6.64583 387.07 6.52917 387.195 6.4375C387.32 6.34583 387.462 6.3 387.62 6.3H389.57ZM3.63066 36.3V49H1.19316V36.3H3.63066ZM4.09316 32.375C4.09316 32.6 4.04733 32.8167 3.95566 33.025C3.864 33.225 3.739 33.4042 3.58066 33.5625C3.43066 33.7125 3.2515 33.8333 3.04316 33.925C2.83483 34.0083 2.61816 34.05 2.39316 34.05C2.16816 34.05 1.95566 34.0083 1.75566 33.925C1.55566 33.8333 1.3765 33.7125 1.21816 33.5625C1.06816 33.4042 0.947331 33.225 0.855664 33.025C0.772331 32.8167 0.730664 32.6 0.730664 32.375C0.730664 32.1417 0.772331 31.925 0.855664 31.725C0.947331 31.5167 1.06816 31.3375 1.21816 31.1875C1.3765 31.0292 1.55566 30.9083 1.75566 30.825C1.95566 30.7333 2.16816 30.6875 2.39316 30.6875C2.61816 30.6875 2.83483 30.7333 3.04316 30.825C3.2515 30.9083 3.43066 31.0292 3.58066 31.1875C3.739 31.3375 3.864 31.5167 3.95566 31.725C4.04733 31.925 4.09316 32.1417 4.09316 32.375ZM9.94727 38.0625C10.2223 37.7708 10.5098 37.5042 10.8098 37.2625C11.1098 37.0208 11.4264 36.8167 11.7598 36.65C12.1014 36.475 12.4639 36.3417 12.8473 36.25C13.2389 36.15 13.6556 36.1 14.0973 36.1C14.7973 36.1 15.4098 36.2167 15.9348 36.45C16.4681 36.6833 16.9139 37.0125 17.2723 37.4375C17.6306 37.8542 17.9014 38.3583 18.0848 38.95C18.2681 39.5417 18.3598 40.1958 18.3598 40.9125V49H15.9098V40.9125C15.9098 40.0042 15.7014 39.3 15.2848 38.8C14.8681 38.2917 14.2306 38.0375 13.3723 38.0375C12.7473 38.0375 12.1598 38.1875 11.6098 38.4875C11.0681 38.7792 10.5639 39.1792 10.0973 39.6875V49H7.65977V36.3H9.12227C9.46393 36.3 9.67643 36.4625 9.75977 36.7875L9.94727 38.0625ZM32.9055 36.3L27.7555 49H25.5555L20.4055 36.3H22.418C22.6096 36.3 22.768 36.3458 22.893 36.4375C23.018 36.5292 23.1013 36.6458 23.143 36.7875L26.1805 44.5875C26.2888 44.9125 26.3805 45.2375 26.4555 45.5625C26.5388 45.8792 26.6138 46.1958 26.6805 46.5125C26.7471 46.1958 26.8221 45.8792 26.9055 45.5625C26.9888 45.2458 27.0888 44.9208 27.2055 44.5875L30.2805 36.7875C30.3305 36.6458 30.418 36.5292 30.543 36.4375C30.668 36.3458 30.818 36.3 30.993 36.3H32.9055ZM43.3906 41.2375C43.3906 40.7542 43.3198 40.3083 43.1781 39.9C43.0448 39.4917 42.8448 39.1375 42.5781 38.8375C42.3115 38.5375 41.9865 38.3042 41.6031 38.1375C41.2198 37.9708 40.7781 37.8875 40.2781 37.8875C39.2531 37.8875 38.4448 38.1833 37.8531 38.775C37.2698 39.3667 36.899 40.1875 36.7406 41.2375H43.3906ZM45.4031 47.1875C45.1031 47.5375 44.7573 47.8417 44.3656 48.1C43.974 48.35 43.5573 48.5542 43.1156 48.7125C42.674 48.8708 42.2156 48.9875 41.7406 49.0625C41.274 49.1375 40.8115 49.175 40.3531 49.175C39.4781 49.175 38.6656 49.0292 37.9156 48.7375C37.174 48.4375 36.5281 48.0042 35.9781 47.4375C35.4365 46.8625 35.0115 46.1542 34.7031 45.3125C34.4031 44.4625 34.2531 43.4875 34.2531 42.3875C34.2531 41.5042 34.3906 40.6833 34.6656 39.925C34.9406 39.1583 35.3323 38.4917 35.8406 37.925C36.3573 37.3583 36.9865 36.9125 37.7281 36.5875C38.4698 36.2625 39.3031 36.1 40.2281 36.1C41.0031 36.1 41.7156 36.2292 42.3656 36.4875C43.024 36.7375 43.5906 37.1042 44.0656 37.5875C44.5406 38.0708 44.9115 38.6667 45.1781 39.375C45.4531 40.0833 45.5906 40.8917 45.5906 41.8C45.5906 42.175 45.549 42.4292 45.4656 42.5625C45.3823 42.6875 45.2281 42.75 45.0031 42.75H36.6781C36.7031 43.5083 36.8115 44.1708 37.0031 44.7375C37.1948 45.2958 37.4573 45.7625 37.7906 46.1375C38.1323 46.5125 38.5365 46.7917 39.0031 46.975C39.4698 47.1583 39.9906 47.25 40.5656 47.25C41.1073 47.25 41.574 47.1875 41.9656 47.0625C42.3656 46.9375 42.7073 46.8042 42.9906 46.6625C43.2823 46.5125 43.524 46.375 43.7156 46.25C43.9156 46.125 44.0906 46.0625 44.2406 46.0625C44.4406 46.0625 44.5948 46.1375 44.7031 46.2875L45.4031 47.1875ZM56.198 38.4875C56.1314 38.5958 56.0605 38.675 55.9855 38.725C55.9105 38.7667 55.8147 38.7875 55.698 38.7875C55.5647 38.7875 55.4147 38.7417 55.248 38.65C55.0897 38.5583 54.8939 38.4583 54.6605 38.35C54.4355 38.2417 54.1689 38.1417 53.8605 38.05C53.5522 37.9583 53.1855 37.9125 52.7605 37.9125C52.4105 37.9125 52.0897 37.9583 51.798 38.05C51.5147 38.1333 51.273 38.2542 51.073 38.4125C50.873 38.5625 50.7189 38.7458 50.6105 38.9625C50.5022 39.1708 50.448 39.3958 50.448 39.6375C50.448 39.9542 50.5397 40.2167 50.723 40.425C50.9147 40.6333 51.1605 40.8125 51.4605 40.9625C51.7689 41.1125 52.1147 41.25 52.498 41.375C52.8897 41.4917 53.2855 41.6167 53.6855 41.75C54.0939 41.8833 54.4897 42.0375 54.873 42.2125C55.2647 42.3792 55.6105 42.5917 55.9105 42.85C56.2189 43.1 56.4647 43.4042 56.648 43.7625C56.8397 44.1208 56.9355 44.5583 56.9355 45.075C56.9355 45.6667 56.8272 46.2167 56.6105 46.725C56.4022 47.225 56.0897 47.6583 55.673 48.025C55.2647 48.3917 54.7564 48.6792 54.148 48.8875C53.5397 49.0958 52.8439 49.2 52.0605 49.2C51.1855 49.2 50.3772 49.0542 49.6355 48.7625C48.8939 48.4708 48.273 48.1 47.773 47.65L48.348 46.7125C48.4147 46.5958 48.498 46.5083 48.598 46.45C48.698 46.3833 48.8314 46.35 48.998 46.35C49.1564 46.35 49.3189 46.4083 49.4855 46.525C49.6522 46.6417 49.8522 46.7708 50.0855 46.9125C50.3189 47.0458 50.6022 47.1708 50.9355 47.2875C51.2689 47.3958 51.6855 47.45 52.1855 47.45C52.6022 47.45 52.9647 47.4 53.273 47.3C53.5814 47.1917 53.8355 47.05 54.0355 46.875C54.2439 46.6917 54.398 46.4833 54.498 46.25C54.598 46.0167 54.648 45.7708 54.648 45.5125C54.648 45.1792 54.5522 44.9042 54.3605 44.6875C54.1772 44.4625 53.9314 44.2708 53.623 44.1125C53.323 43.9542 52.9772 43.8167 52.5855 43.7C52.1939 43.5833 51.7939 43.4583 51.3855 43.325C50.9772 43.1917 50.5772 43.0375 50.1855 42.8625C49.7939 42.6875 49.4439 42.4667 49.1355 42.2C48.8355 41.9333 48.5897 41.6083 48.398 41.225C48.2147 40.8417 48.123 40.375 48.123 39.825C48.123 39.3333 48.223 38.8625 48.423 38.4125C48.6314 37.9625 48.9272 37.5667 49.3105 37.225C49.7022 36.8833 50.1814 36.6125 50.748 36.4125C51.323 36.2042 51.9772 36.1 52.7105 36.1C53.5522 36.1 54.3105 36.2333 54.9855 36.5C55.6689 36.7667 56.2522 37.1333 56.7355 37.6L56.198 38.4875ZM64.0498 49.2C63.0248 49.2 62.2331 48.9125 61.6748 48.3375C61.1248 47.7625 60.8498 46.9417 60.8498 45.875V38.275H59.3748C59.2331 38.275 59.1123 38.2333 59.0123 38.15C58.9206 38.0583 58.8748 37.925 58.8748 37.75V36.7625L60.9373 36.475L61.4873 32.6875C61.5206 32.5458 61.5831 32.4375 61.6748 32.3625C61.7748 32.2792 61.8998 32.2375 62.0498 32.2375H63.2873V36.5H66.8873V38.275H63.2873V45.7125C63.2873 46.2125 63.4081 46.5875 63.6498 46.8375C63.8998 47.0792 64.2165 47.2 64.5998 47.2C64.8248 47.2 65.0165 47.1708 65.1748 47.1125C65.3415 47.0542 65.4831 46.9917 65.5998 46.925C65.7165 46.85 65.8165 46.7833 65.8998 46.725C65.9831 46.6667 66.0581 46.6375 66.1248 46.6375C66.2081 46.6375 66.2706 46.6583 66.3123 46.7C66.3623 46.7333 66.4123 46.7917 66.4623 46.875L67.1873 48.05C66.7873 48.4167 66.3123 48.7 65.7623 48.9C65.2123 49.1 64.6415 49.2 64.0498 49.2ZM69.6324 49V36.3H71.0949C71.4366 36.3 71.6491 36.4625 71.7324 36.7875L71.9074 38C72.3741 37.4417 72.8908 36.9875 73.4574 36.6375C74.0324 36.2792 74.7033 36.1 75.4699 36.1C76.3116 36.1 76.9949 36.3333 77.5199 36.8C78.0449 37.2583 78.4283 37.8833 78.6699 38.675C78.8533 38.225 79.0908 37.8375 79.3824 37.5125C79.6741 37.1875 79.9991 36.9208 80.3574 36.7125C80.7158 36.5042 81.0949 36.35 81.4949 36.25C81.9033 36.15 82.3158 36.1 82.7324 36.1C83.4074 36.1 84.0074 36.2083 84.5324 36.425C85.0658 36.6333 85.5158 36.9417 85.8824 37.35C86.2491 37.7583 86.5283 38.2625 86.7199 38.8625C86.9116 39.4625 87.0074 40.1458 87.0074 40.9125V49H84.5574V40.9125C84.5574 39.9625 84.3491 39.2458 83.9324 38.7625C83.5241 38.2792 82.9241 38.0375 82.1324 38.0375C81.7824 38.0375 81.4491 38.1 81.1324 38.225C80.8158 38.3417 80.5366 38.5208 80.2949 38.7625C80.0616 39.0042 79.8741 39.3042 79.7324 39.6625C79.5991 40.0208 79.5324 40.4375 79.5324 40.9125V49H77.0824V40.9125C77.0824 39.9292 76.8866 39.2042 76.4949 38.7375C76.1033 38.2708 75.5283 38.0375 74.7699 38.0375C74.2449 38.0375 73.7574 38.175 73.3074 38.45C72.8574 38.725 72.4449 39.1 72.0699 39.575V49H69.6324ZM99.1992 41.2375C99.1992 40.7542 99.1284 40.3083 98.9867 39.9C98.8534 39.4917 98.6534 39.1375 98.3867 38.8375C98.1201 38.5375 97.7951 38.3042 97.4117 38.1375C97.0284 37.9708 96.5867 37.8875 96.0867 37.8875C95.0617 37.8875 94.2534 38.1833 93.6617 38.775C93.0784 39.3667 92.7076 40.1875 92.5492 41.2375H99.1992ZM101.212 47.1875C100.912 47.5375 100.566 47.8417 100.174 48.1C99.7826 48.35 99.3659 48.5542 98.9242 48.7125C98.4826 48.8708 98.0242 48.9875 97.5492 49.0625C97.0826 49.1375 96.6201 49.175 96.1617 49.175C95.2867 49.175 94.4742 49.0292 93.7242 48.7375C92.9826 48.4375 92.3367 48.0042 91.7867 47.4375C91.2451 46.8625 90.8201 46.1542 90.5117 45.3125C90.2117 44.4625 90.0617 43.4875 90.0617 42.3875C90.0617 41.5042 90.1992 40.6833 90.4742 39.925C90.7492 39.1583 91.1409 38.4917 91.6492 37.925C92.1659 37.3583 92.7951 36.9125 93.5367 36.5875C94.2784 36.2625 95.1117 36.1 96.0367 36.1C96.8117 36.1 97.5242 36.2292 98.1742 36.4875C98.8326 36.7375 99.3992 37.1042 99.8742 37.5875C100.349 38.0708 100.72 38.6667 100.987 39.375C101.262 40.0833 101.399 40.8917 101.399 41.8C101.399 42.175 101.358 42.4292 101.274 42.5625C101.191 42.6875 101.037 42.75 100.812 42.75H92.4867C92.5117 43.5083 92.6201 44.1708 92.8117 44.7375C93.0034 45.2958 93.2659 45.7625 93.5992 46.1375C93.9409 46.5125 94.3451 46.7917 94.8117 46.975C95.2784 47.1583 95.7992 47.25 96.3742 47.25C96.9159 47.25 97.3826 47.1875 97.7742 47.0625C98.1742 46.9375 98.5159 46.8042 98.7992 46.6625C99.0909 46.5125 99.3326 46.375 99.5242 46.25C99.7242 46.125 99.8992 46.0625 100.049 46.0625C100.249 46.0625 100.403 46.1375 100.512 46.2875L101.212 47.1875ZM106.807 38.0625C107.082 37.7708 107.369 37.5042 107.669 37.2625C107.969 37.0208 108.286 36.8167 108.619 36.65C108.961 36.475 109.323 36.3417 109.707 36.25C110.098 36.15 110.515 36.1 110.957 36.1C111.657 36.1 112.269 36.2167 112.794 36.45C113.327 36.6833 113.773 37.0125 114.132 37.4375C114.49 37.8542 114.761 38.3583 114.944 38.95C115.127 39.5417 115.219 40.1958 115.219 40.9125V49H112.769V40.9125C112.769 40.0042 112.561 39.3 112.144 38.8C111.727 38.2917 111.09 38.0375 110.232 38.0375C109.607 38.0375 109.019 38.1875 108.469 38.4875C107.927 38.7792 107.423 39.1792 106.957 39.6875V49H104.519V36.3H105.982C106.323 36.3 106.536 36.4625 106.619 36.7875L106.807 38.0625ZM122.813 49.2C121.788 49.2 120.996 48.9125 120.438 48.3375C119.888 47.7625 119.613 46.9417 119.613 45.875V38.275H118.138C117.996 38.275 117.875 38.2333 117.775 38.15C117.683 38.0583 117.638 37.925 117.638 37.75V36.7625L119.7 36.475L120.25 32.6875C120.283 32.5458 120.346 32.4375 120.438 32.3625C120.538 32.2792 120.663 32.2375 120.813 32.2375H122.05V36.5H125.65V38.275H122.05V45.7125C122.05 46.2125 122.171 46.5875 122.413 46.8375C122.663 47.0792 122.979 47.2 123.363 47.2C123.588 47.2 123.779 47.1708 123.938 47.1125C124.104 47.0542 124.246 46.9917 124.363 46.925C124.479 46.85 124.579 46.7833 124.663 46.725C124.746 46.6667 124.821 46.6375 124.888 46.6375C124.971 46.6375 125.033 46.6583 125.075 46.7C125.125 46.7333 125.175 46.7917 125.225 46.875L125.95 48.05C125.55 48.4167 125.075 48.7 124.525 48.9C123.975 49.1 123.404 49.2 122.813 49.2ZM143.631 41.2375C143.631 40.7542 143.56 40.3083 143.418 39.9C143.285 39.4917 143.085 39.1375 142.818 38.8375C142.552 38.5375 142.227 38.3042 141.843 38.1375C141.46 37.9708 141.018 37.8875 140.518 37.8875C139.493 37.8875 138.685 38.1833 138.093 38.775C137.51 39.3667 137.139 40.1875 136.981 41.2375H143.631ZM145.643 47.1875C145.343 47.5375 144.998 47.8417 144.606 48.1C144.214 48.35 143.798 48.5542 143.356 48.7125C142.914 48.8708 142.456 48.9875 141.981 49.0625C141.514 49.1375 141.052 49.175 140.593 49.175C139.718 49.175 138.906 49.0292 138.156 48.7375C137.414 48.4375 136.768 48.0042 136.218 47.4375C135.677 46.8625 135.252 46.1542 134.943 45.3125C134.643 44.4625 134.493 43.4875 134.493 42.3875C134.493 41.5042 134.631 40.6833 134.906 39.925C135.181 39.1583 135.573 38.4917 136.081 37.925C136.598 37.3583 137.227 36.9125 137.968 36.5875C138.71 36.2625 139.543 36.1 140.468 36.1C141.243 36.1 141.956 36.2292 142.606 36.4875C143.264 36.7375 143.831 37.1042 144.306 37.5875C144.781 38.0708 145.152 38.6667 145.418 39.375C145.693 40.0833 145.831 40.8917 145.831 41.8C145.831 42.175 145.789 42.4292 145.706 42.5625C145.623 42.6875 145.468 42.75 145.243 42.75H136.918C136.943 43.5083 137.052 44.1708 137.243 44.7375C137.435 45.2958 137.698 45.7625 138.031 46.1375C138.373 46.5125 138.777 46.7917 139.243 46.975C139.71 47.1583 140.231 47.25 140.806 47.25C141.348 47.25 141.814 47.1875 142.206 47.0625C142.606 46.9375 142.948 46.8042 143.231 46.6625C143.523 46.5125 143.764 46.375 143.956 46.25C144.156 46.125 144.331 46.0625 144.481 46.0625C144.681 46.0625 144.835 46.1375 144.943 46.2875L145.643 47.1875ZM155.776 43.3625C154.784 43.3958 153.942 43.475 153.251 43.6C152.559 43.7167 151.997 43.875 151.563 44.075C151.13 44.275 150.817 44.5125 150.626 44.7875C150.434 45.0542 150.338 45.3542 150.338 45.6875C150.338 46.0042 150.388 46.2792 150.488 46.5125C150.597 46.7375 150.738 46.925 150.913 47.075C151.097 47.2167 151.309 47.3208 151.551 47.3875C151.792 47.4542 152.055 47.4875 152.338 47.4875C152.713 47.4875 153.055 47.45 153.363 47.375C153.68 47.3 153.976 47.1958 154.251 47.0625C154.526 46.9208 154.788 46.75 155.038 46.55C155.288 46.35 155.534 46.1208 155.776 45.8625V43.3625ZM148.626 38.075C149.334 37.4 150.101 36.8958 150.926 36.5625C151.759 36.2292 152.672 36.0625 153.663 36.0625C154.388 36.0625 155.03 36.1833 155.588 36.425C156.147 36.6583 156.617 36.9875 157.001 37.4125C157.384 37.8375 157.672 38.3458 157.863 38.9375C158.063 39.5292 158.163 40.1833 158.163 40.9V49H157.076C156.834 49 156.651 48.9625 156.526 48.8875C156.401 48.8042 156.301 48.6542 156.226 48.4375L155.963 47.325C155.638 47.625 155.317 47.8917 155.001 48.125C154.684 48.35 154.351 48.5458 154.001 48.7125C153.659 48.8708 153.292 48.9917 152.901 49.075C152.509 49.1583 152.076 49.2 151.601 49.2C151.101 49.2 150.63 49.1333 150.188 49C149.755 48.8583 149.376 48.6458 149.051 48.3625C148.726 48.0792 148.467 47.725 148.276 47.3C148.092 46.875 148.001 46.3792 148.001 45.8125C148.001 45.3125 148.134 44.8333 148.401 44.375C148.676 43.9083 149.117 43.4917 149.726 43.125C150.342 42.7583 151.142 42.4583 152.126 42.225C153.117 41.9917 154.334 41.8583 155.776 41.825V40.9C155.776 39.9417 155.572 39.225 155.163 38.75C154.755 38.275 154.155 38.0375 153.363 38.0375C152.83 38.0375 152.38 38.1042 152.013 38.2375C151.655 38.3708 151.342 38.5208 151.076 38.6875C150.817 38.8458 150.588 38.9917 150.388 39.125C150.197 39.2583 149.997 39.325 149.788 39.325C149.622 39.325 149.476 39.2792 149.351 39.1875C149.234 39.0958 149.138 38.9875 149.063 38.8625L148.626 38.075ZM169.414 38.4875C169.347 38.5958 169.276 38.675 169.201 38.725C169.126 38.7667 169.031 38.7875 168.914 38.7875C168.781 38.7875 168.631 38.7417 168.464 38.65C168.306 38.5583 168.11 38.4583 167.876 38.35C167.651 38.2417 167.385 38.1417 167.076 38.05C166.768 37.9583 166.401 37.9125 165.976 37.9125C165.626 37.9125 165.306 37.9583 165.014 38.05C164.731 38.1333 164.489 38.2542 164.289 38.4125C164.089 38.5625 163.935 38.7458 163.826 38.9625C163.718 39.1708 163.664 39.3958 163.664 39.6375C163.664 39.9542 163.756 40.2167 163.939 40.425C164.131 40.6333 164.376 40.8125 164.676 40.9625C164.985 41.1125 165.331 41.25 165.714 41.375C166.106 41.4917 166.501 41.6167 166.901 41.75C167.31 41.8833 167.706 42.0375 168.089 42.2125C168.481 42.3792 168.826 42.5917 169.126 42.85C169.435 43.1 169.681 43.4042 169.864 43.7625C170.056 44.1208 170.151 44.5583 170.151 45.075C170.151 45.6667 170.043 46.2167 169.826 46.725C169.618 47.225 169.306 47.6583 168.889 48.025C168.481 48.3917 167.972 48.6792 167.364 48.8875C166.756 49.0958 166.06 49.2 165.276 49.2C164.401 49.2 163.593 49.0542 162.851 48.7625C162.11 48.4708 161.489 48.1 160.989 47.65L161.564 46.7125C161.631 46.5958 161.714 46.5083 161.814 46.45C161.914 46.3833 162.047 46.35 162.214 46.35C162.372 46.35 162.535 46.4083 162.701 46.525C162.868 46.6417 163.068 46.7708 163.301 46.9125C163.535 47.0458 163.818 47.1708 164.151 47.2875C164.485 47.3958 164.901 47.45 165.401 47.45C165.818 47.45 166.181 47.4 166.489 47.3C166.797 47.1917 167.051 47.05 167.251 46.875C167.46 46.6917 167.614 46.4833 167.714 46.25C167.814 46.0167 167.864 45.7708 167.864 45.5125C167.864 45.1792 167.768 44.9042 167.576 44.6875C167.393 44.4625 167.147 44.2708 166.839 44.1125C166.539 43.9542 166.193 43.8167 165.801 43.7C165.41 43.5833 165.01 43.4583 164.601 43.325C164.193 43.1917 163.793 43.0375 163.401 42.8625C163.01 42.6875 162.66 42.4667 162.351 42.2C162.051 41.9333 161.806 41.6083 161.614 41.225C161.431 40.8417 161.339 40.375 161.339 39.825C161.339 39.3333 161.439 38.8625 161.639 38.4125C161.847 37.9625 162.143 37.5667 162.526 37.225C162.918 36.8833 163.397 36.6125 163.964 36.4125C164.539 36.2042 165.193 36.1 165.926 36.1C166.768 36.1 167.526 36.2333 168.201 36.5C168.885 36.7667 169.468 37.1333 169.951 37.6L169.414 38.4875ZM184.146 36.3L177.096 52.6875C177.021 52.8708 176.921 53.0125 176.796 53.1125C176.671 53.2125 176.488 53.2625 176.246 53.2625H174.434L176.759 48.2L171.546 36.3H173.671C173.88 36.3 174.042 36.35 174.159 36.45C174.276 36.55 174.359 36.6625 174.409 36.7875L177.634 44.4125C177.701 44.6042 177.763 44.8 177.821 45C177.888 45.1917 177.942 45.3833 177.984 45.575C178.042 45.375 178.105 45.1792 178.171 44.9875C178.238 44.7875 178.309 44.5917 178.384 44.4L181.496 36.7875C181.555 36.6458 181.646 36.5292 181.771 36.4375C181.896 36.3458 182.038 36.3 182.196 36.3H184.146ZM196.698 49.2C195.673 49.2 194.882 48.9125 194.323 48.3375C193.773 47.7625 193.498 46.9417 193.498 45.875V38.275H192.023C191.882 38.275 191.761 38.2333 191.661 38.15C191.569 38.0583 191.523 37.925 191.523 37.75V36.7625L193.586 36.475L194.136 32.6875C194.169 32.5458 194.232 32.4375 194.323 32.3625C194.423 32.2792 194.548 32.2375 194.698 32.2375H195.936V36.5H199.536V38.275H195.936V45.7125C195.936 46.2125 196.057 46.5875 196.298 46.8375C196.548 47.0792 196.865 47.2 197.248 47.2C197.473 47.2 197.665 47.1708 197.823 47.1125C197.99 47.0542 198.132 46.9917 198.248 46.925C198.365 46.85 198.465 46.7833 198.548 46.725C198.632 46.6667 198.707 46.6375 198.773 46.6375C198.857 46.6375 198.919 46.6583 198.961 46.7C199.011 46.7333 199.061 46.7917 199.111 46.875L199.836 48.05C199.436 48.4167 198.961 48.7 198.411 48.9C197.861 49.1 197.29 49.2 196.698 49.2ZM207.62 36.1C208.553 36.1 209.395 36.2542 210.145 36.5625C210.903 36.8625 211.545 37.3 212.07 37.875C212.603 38.4417 213.012 39.1292 213.295 39.9375C213.578 40.7375 213.72 41.6375 213.72 42.6375C213.72 43.6375 213.578 44.5417 213.295 45.35C213.012 46.1583 212.603 46.8458 212.07 47.4125C211.545 47.9792 210.903 48.4167 210.145 48.725C209.395 49.025 208.553 49.175 207.62 49.175C206.678 49.175 205.828 49.025 205.07 48.725C204.32 48.4167 203.678 47.9792 203.145 47.4125C202.612 46.8458 202.199 46.1583 201.908 45.35C201.624 44.5417 201.483 43.6375 201.483 42.6375C201.483 41.6375 201.624 40.7375 201.908 39.9375C202.199 39.1292 202.612 38.4417 203.145 37.875C203.678 37.3 204.32 36.8625 205.07 36.5625C205.828 36.2542 206.678 36.1 207.62 36.1ZM207.62 47.275C208.82 47.275 209.716 46.8708 210.308 46.0625C210.899 45.2542 211.195 44.1167 211.195 42.65C211.195 41.1833 210.899 40.0458 210.308 39.2375C209.716 38.4208 208.82 38.0125 207.62 38.0125C206.403 38.0125 205.495 38.4208 204.895 39.2375C204.303 40.0458 204.008 41.1833 204.008 42.65C204.008 44.1167 204.303 45.2542 204.895 46.0625C205.495 46.8708 206.403 47.275 207.62 47.275ZM234.327 36.3V49H232.864C232.531 49 232.314 48.8375 232.214 48.5125L232.039 47.2375C231.764 47.5292 231.477 47.7958 231.177 48.0375C230.877 48.2792 230.556 48.4875 230.214 48.6625C229.873 48.8292 229.51 48.9583 229.127 49.05C228.743 49.15 228.331 49.2 227.889 49.2C227.189 49.2 226.573 49.0833 226.039 48.85C225.514 48.6167 225.073 48.2917 224.714 47.875C224.356 47.45 224.085 46.9417 223.902 46.35C223.718 45.7583 223.627 45.1042 223.627 44.3875V36.3H226.077V44.3875C226.077 45.2958 226.285 46.0042 226.702 46.5125C227.118 47.0125 227.756 47.2625 228.614 47.2625C229.239 47.2625 229.823 47.1167 230.364 46.825C230.906 46.525 231.414 46.1167 231.889 45.6V36.3H234.327ZM245.717 38.4875C245.65 38.5958 245.579 38.675 245.504 38.725C245.429 38.7667 245.333 38.7875 245.217 38.7875C245.083 38.7875 244.933 38.7417 244.767 38.65C244.608 38.5583 244.412 38.4583 244.179 38.35C243.954 38.2417 243.687 38.1417 243.379 38.05C243.071 37.9583 242.704 37.9125 242.279 37.9125C241.929 37.9125 241.608 37.9583 241.317 38.05C241.033 38.1333 240.792 38.2542 240.592 38.4125C240.392 38.5625 240.237 38.7458 240.129 38.9625C240.021 39.1708 239.967 39.3958 239.967 39.6375C239.967 39.9542 240.058 40.2167 240.242 40.425C240.433 40.6333 240.679 40.8125 240.979 40.9625C241.287 41.1125 241.633 41.25 242.017 41.375C242.408 41.4917 242.804 41.6167 243.204 41.75C243.612 41.8833 244.008 42.0375 244.392 42.2125C244.783 42.3792 245.129 42.5917 245.429 42.85C245.737 43.1 245.983 43.4042 246.167 43.7625C246.358 44.1208 246.454 44.5583 246.454 45.075C246.454 45.6667 246.346 46.2167 246.129 46.725C245.921 47.225 245.608 47.6583 245.192 48.025C244.783 48.3917 244.275 48.6792 243.667 48.8875C243.058 49.0958 242.362 49.2 241.579 49.2C240.704 49.2 239.896 49.0542 239.154 48.7625C238.412 48.4708 237.792 48.1 237.292 47.65L237.867 46.7125C237.933 46.5958 238.017 46.5083 238.117 46.45C238.217 46.3833 238.35 46.35 238.517 46.35C238.675 46.35 238.837 46.4083 239.004 46.525C239.171 46.6417 239.371 46.7708 239.604 46.9125C239.837 47.0458 240.121 47.1708 240.454 47.2875C240.787 47.3958 241.204 47.45 241.704 47.45C242.121 47.45 242.483 47.4 242.792 47.3C243.1 47.1917 243.354 47.05 243.554 46.875C243.762 46.6917 243.917 46.4833 244.017 46.25C244.117 46.0167 244.167 45.7708 244.167 45.5125C244.167 45.1792 244.071 44.9042 243.879 44.6875C243.696 44.4625 243.45 44.2708 243.142 44.1125C242.842 43.9542 242.496 43.8167 242.104 43.7C241.712 43.5833 241.312 43.4583 240.904 43.325C240.496 43.1917 240.096 43.0375 239.704 42.8625C239.312 42.6875 238.962 42.4667 238.654 42.2C238.354 41.9333 238.108 41.6083 237.917 41.225C237.733 40.8417 237.642 40.375 237.642 39.825C237.642 39.3333 237.742 38.8625 237.942 38.4125C238.15 37.9625 238.446 37.5667 238.829 37.225C239.221 36.8833 239.7 36.6125 240.267 36.4125C240.842 36.2042 241.496 36.1 242.229 36.1C243.071 36.1 243.829 36.2333 244.504 36.5C245.187 36.7667 245.771 37.1333 246.254 37.6L245.717 38.4875ZM258.006 41.2375C258.006 40.7542 257.935 40.3083 257.793 39.9C257.66 39.4917 257.46 39.1375 257.193 38.8375C256.927 38.5375 256.602 38.3042 256.218 38.1375C255.835 37.9708 255.393 37.8875 254.893 37.8875C253.868 37.8875 253.06 38.1833 252.468 38.775C251.885 39.3667 251.514 40.1875 251.356 41.2375H258.006ZM260.018 47.1875C259.718 47.5375 259.373 47.8417 258.981 48.1C258.589 48.35 258.173 48.5542 257.731 48.7125C257.289 48.8708 256.831 48.9875 256.356 49.0625C255.889 49.1375 255.427 49.175 254.968 49.175C254.093 49.175 253.281 49.0292 252.531 48.7375C251.789 48.4375 251.143 48.0042 250.593 47.4375C250.052 46.8625 249.627 46.1542 249.318 45.3125C249.018 44.4625 248.868 43.4875 248.868 42.3875C248.868 41.5042 249.006 40.6833 249.281 39.925C249.556 39.1583 249.948 38.4917 250.456 37.925C250.973 37.3583 251.602 36.9125 252.343 36.5875C253.085 36.2625 253.918 36.1 254.843 36.1C255.618 36.1 256.331 36.2292 256.981 36.4875C257.639 36.7375 258.206 37.1042 258.681 37.5875C259.156 38.0708 259.527 38.6667 259.793 39.375C260.068 40.0833 260.206 40.8917 260.206 41.8C260.206 42.175 260.164 42.4292 260.081 42.5625C259.998 42.6875 259.843 42.75 259.618 42.75H251.293C251.318 43.5083 251.427 44.1708 251.618 44.7375C251.81 45.2958 252.073 45.7625 252.406 46.1375C252.748 46.5125 253.152 46.7917 253.618 46.975C254.085 47.1583 254.606 47.25 255.181 47.25C255.723 47.25 256.189 47.1875 256.581 47.0625C256.981 46.9375 257.323 46.8042 257.606 46.6625C257.898 46.5125 258.139 46.375 258.331 46.25C258.531 46.125 258.706 46.0625 258.856 46.0625C259.056 46.0625 259.21 46.1375 259.318 46.2875L260.018 47.1875ZM264.426 49C264.201 49 263.992 48.9583 263.801 48.875C263.617 48.7917 263.455 48.6792 263.313 48.5375C263.18 48.3875 263.076 48.2125 263.001 48.0125C262.926 47.8125 262.888 47.5958 262.888 47.3625C262.888 47.1625 262.926 46.975 263.001 46.8C263.076 46.6167 263.18 46.4583 263.313 46.325C263.455 46.1917 263.622 46.0875 263.813 46.0125C264.005 45.9292 264.217 45.8875 264.451 45.8875C264.717 45.8875 264.951 45.9375 265.151 46.0375C265.359 46.1292 265.53 46.2625 265.663 46.4375C265.805 46.6042 265.909 46.8 265.976 47.025C266.042 47.25 266.076 47.4917 266.076 47.75C266.076 48.125 266.022 48.5208 265.913 48.9375C265.805 49.3542 265.647 49.7667 265.438 50.175C265.23 50.5833 264.972 50.9792 264.663 51.3625C264.355 51.7458 264.005 52.1 263.613 52.425L263.201 52.0375C263.076 51.9208 263.013 51.7917 263.013 51.65C263.013 51.5917 263.03 51.5292 263.063 51.4625C263.105 51.4042 263.155 51.3458 263.213 51.2875C263.297 51.1958 263.405 51.075 263.538 50.925C263.672 50.775 263.801 50.6 263.926 50.4C264.059 50.2083 264.18 49.9917 264.288 49.75C264.405 49.5167 264.488 49.2667 264.538 49H264.426ZM272.039 30.55V49H269.589V30.55H272.039ZM281.433 36.1C282.366 36.1 283.208 36.2542 283.958 36.5625C284.716 36.8625 285.358 37.3 285.883 37.875C286.416 38.4417 286.824 39.1292 287.108 39.9375C287.391 40.7375 287.533 41.6375 287.533 42.6375C287.533 43.6375 287.391 44.5417 287.108 45.35C286.824 46.1583 286.416 46.8458 285.883 47.4125C285.358 47.9792 284.716 48.4167 283.958 48.725C283.208 49.025 282.366 49.175 281.433 49.175C280.491 49.175 279.641 49.025 278.883 48.725C278.133 48.4167 277.491 47.9792 276.958 47.4125C276.424 46.8458 276.012 46.1583 275.72 45.35C275.437 44.5417 275.295 43.6375 275.295 42.6375C275.295 41.6375 275.437 40.7375 275.72 39.9375C276.012 39.1292 276.424 38.4417 276.958 37.875C277.491 37.3 278.133 36.8625 278.883 36.5625C279.641 36.2542 280.491 36.1 281.433 36.1ZM281.433 47.275C282.633 47.275 283.528 46.8708 284.12 46.0625C284.712 45.2542 285.008 44.1167 285.008 42.65C285.008 41.1833 284.712 40.0458 284.12 39.2375C283.528 38.4208 282.633 38.0125 281.433 38.0125C280.216 38.0125 279.308 38.4208 278.708 39.2375C278.116 40.0458 277.82 41.1833 277.82 42.65C277.82 44.1167 278.116 45.2542 278.708 46.0625C279.308 46.8708 280.216 47.275 281.433 47.275ZM308.221 36.3L304.133 49H302.183C301.95 49 301.792 48.8458 301.708 48.5375L299.033 40.2625C298.967 40.0542 298.908 39.85 298.858 39.65C298.808 39.4417 298.762 39.2333 298.721 39.025C298.646 39.4583 298.542 39.8792 298.408 40.2875L295.696 48.5375C295.612 48.8458 295.433 49 295.158 49H293.308L289.208 36.3H291.133C291.325 36.3 291.483 36.3458 291.608 36.4375C291.742 36.5292 291.829 36.6458 291.871 36.7875L294.158 44.5875C294.233 44.9042 294.3 45.2125 294.358 45.5125C294.417 45.8125 294.471 46.1125 294.521 46.4125C294.596 46.1125 294.675 45.8125 294.758 45.5125C294.85 45.2125 294.942 44.9042 295.033 44.5875L297.571 36.7375C297.612 36.5958 297.692 36.4833 297.808 36.4C297.925 36.3083 298.067 36.2625 298.233 36.2625H299.296C299.479 36.2625 299.629 36.3083 299.746 36.4C299.871 36.4833 299.954 36.5958 299.996 36.7375L302.471 44.5875C302.562 44.9042 302.65 45.2167 302.733 45.525C302.817 45.825 302.892 46.1292 302.958 46.4375C303.008 46.1375 303.067 45.8375 303.133 45.5375C303.2 45.2292 303.275 44.9125 303.358 44.5875L305.683 36.7875C305.725 36.6458 305.808 36.5292 305.933 36.4375C306.067 36.3458 306.217 36.3 306.383 36.3H308.221ZM325.508 41.2375C325.508 40.7542 325.437 40.3083 325.295 39.9C325.162 39.4917 324.962 39.1375 324.695 38.8375C324.429 38.5375 324.104 38.3042 323.72 38.1375C323.337 37.9708 322.895 37.8875 322.395 37.8875C321.37 37.8875 320.562 38.1833 319.97 38.775C319.387 39.3667 319.016 40.1875 318.858 41.2375H325.508ZM327.52 47.1875C327.22 47.5375 326.874 47.8417 326.483 48.1C326.091 48.35 325.674 48.5542 325.233 48.7125C324.791 48.8708 324.333 48.9875 323.858 49.0625C323.391 49.1375 322.929 49.175 322.47 49.175C321.595 49.175 320.783 49.0292 320.033 48.7375C319.291 48.4375 318.645 48.0042 318.095 47.4375C317.554 46.8625 317.129 46.1542 316.82 45.3125C316.52 44.4625 316.37 43.4875 316.37 42.3875C316.37 41.5042 316.508 40.6833 316.783 39.925C317.058 39.1583 317.449 38.4917 317.958 37.925C318.474 37.3583 319.104 36.9125 319.845 36.5875C320.587 36.2625 321.42 36.1 322.345 36.1C323.12 36.1 323.833 36.2292 324.483 36.4875C325.141 36.7375 325.708 37.1042 326.183 37.5875C326.658 38.0708 327.029 38.6667 327.295 39.375C327.57 40.0833 327.708 40.8917 327.708 41.8C327.708 42.175 327.666 42.4292 327.583 42.5625C327.499 42.6875 327.345 42.75 327.12 42.75H318.795C318.82 43.5083 318.929 44.1708 319.12 44.7375C319.312 45.2958 319.574 45.7625 319.908 46.1375C320.249 46.5125 320.654 46.7917 321.12 46.975C321.587 47.1583 322.108 47.25 322.683 47.25C323.224 47.25 323.691 47.1875 324.083 47.0625C324.483 46.9375 324.824 46.8042 325.108 46.6625C325.399 46.5125 325.641 46.375 325.833 46.25C326.033 46.125 326.208 46.0625 326.358 46.0625C326.558 46.0625 326.712 46.1375 326.82 46.2875L327.52 47.1875ZM333.115 38.0625C333.39 37.7708 333.678 37.5042 333.978 37.2625C334.278 37.0208 334.594 36.8167 334.928 36.65C335.269 36.475 335.632 36.3417 336.015 36.25C336.407 36.15 336.824 36.1 337.265 36.1C337.965 36.1 338.578 36.2167 339.103 36.45C339.636 36.6833 340.082 37.0125 340.44 37.4375C340.799 37.8542 341.069 38.3583 341.253 38.95C341.436 39.5417 341.528 40.1958 341.528 40.9125V49H339.078V40.9125C339.078 40.0042 338.869 39.3 338.453 38.8C338.036 38.2917 337.399 38.0375 336.54 38.0375C335.915 38.0375 335.328 38.1875 334.778 38.4875C334.236 38.7792 333.732 39.1792 333.265 39.6875V49H330.828V36.3H332.29C332.632 36.3 332.844 36.4625 332.928 36.7875L333.115 38.0625ZM349.121 49.2C348.096 49.2 347.304 48.9125 346.746 48.3375C346.196 47.7625 345.921 46.9417 345.921 45.875V38.275H344.446C344.304 38.275 344.184 38.2333 344.084 38.15C343.992 38.0583 343.946 37.925 343.946 37.75V36.7625L346.009 36.475L346.559 32.6875C346.592 32.5458 346.654 32.4375 346.746 32.3625C346.846 32.2792 346.971 32.2375 347.121 32.2375H348.359V36.5H351.959V38.275H348.359V45.7125C348.359 46.2125 348.479 46.5875 348.721 46.8375C348.971 47.0792 349.288 47.2 349.671 47.2C349.896 47.2 350.088 47.1708 350.246 47.1125C350.413 47.0542 350.554 46.9917 350.671 46.925C350.788 46.85 350.888 46.7833 350.971 46.725C351.054 46.6667 351.129 46.6375 351.196 46.6375C351.279 46.6375 351.342 46.6583 351.384 46.7C351.434 46.7333 351.484 46.7917 351.534 46.875L352.259 48.05C351.859 48.4167 351.384 48.7 350.834 48.9C350.284 49.1 349.713 49.2 349.121 49.2ZM357.004 38.7375C357.412 37.9042 357.904 37.25 358.479 36.775C359.054 36.3 359.745 36.0625 360.554 36.0625C360.829 36.0625 361.087 36.0958 361.329 36.1625C361.579 36.2208 361.795 36.3125 361.979 36.4375L361.816 38.275C361.758 38.5 361.62 38.6125 361.404 38.6125C361.287 38.6125 361.112 38.5917 360.879 38.55C360.645 38.5 360.395 38.475 360.129 38.475C359.737 38.475 359.391 38.5333 359.091 38.65C358.791 38.7583 358.52 38.925 358.279 39.15C358.045 39.3667 357.837 39.6375 357.654 39.9625C357.47 40.2792 357.3 40.6417 357.141 41.05V49H354.704V36.3H356.104C356.37 36.3 356.55 36.35 356.641 36.45C356.741 36.5417 356.812 36.7083 356.854 36.95L357.004 38.7375ZM375.459 36.3L368.409 52.6875C368.334 52.8708 368.234 53.0125 368.109 53.1125C367.984 53.2125 367.801 53.2625 367.559 53.2625H365.746L368.071 48.2L362.859 36.3H364.984C365.192 36.3 365.355 36.35 365.471 36.45C365.588 36.55 365.671 36.6625 365.721 36.7875L368.946 44.4125C369.013 44.6042 369.076 44.8 369.134 45C369.201 45.1917 369.255 45.3833 369.296 45.575C369.355 45.375 369.417 45.1792 369.484 44.9875C369.551 44.7875 369.621 44.5917 369.696 44.4L372.809 36.7875C372.867 36.6458 372.959 36.5292 373.084 36.4375C373.209 36.3458 373.351 36.3 373.509 36.3H375.459ZM9.98066 68.675C9.90566 68.7667 9.83066 68.8417 9.75566 68.9C9.689 68.95 9.589 68.975 9.45566 68.975C9.32233 68.975 9.18066 68.925 9.03066 68.825C8.889 68.7167 8.70566 68.6042 8.48066 68.4875C8.264 68.3625 7.99733 68.25 7.68066 68.15C7.37233 68.0417 6.989 67.9875 6.53066 67.9875C5.93066 67.9875 5.4015 68.0958 4.94316 68.3125C4.48483 68.5292 4.1015 68.8375 3.79316 69.2375C3.49316 69.6375 3.264 70.125 3.10566 70.7C2.94733 71.275 2.86816 71.9208 2.86816 72.6375C2.86816 73.3792 2.9515 74.0417 3.11816 74.625C3.28483 75.2 3.52233 75.6875 3.83066 76.0875C4.139 76.4792 4.514 76.7792 4.95566 76.9875C5.39733 77.1875 5.889 77.2875 6.43066 77.2875C6.95566 77.2875 7.389 77.225 7.73066 77.1C8.07233 76.9667 8.35566 76.825 8.58066 76.675C8.80566 76.525 8.99316 76.3875 9.14316 76.2625C9.29316 76.1292 9.44733 76.0625 9.60566 76.0625C9.80566 76.0625 9.95983 76.1375 10.0682 76.2875L10.7682 77.1875C10.4765 77.5458 10.1473 77.85 9.78066 78.1C9.42233 78.35 9.039 78.5542 8.63066 78.7125C8.22233 78.8708 7.79316 78.9875 7.34316 79.0625C6.9015 79.1375 6.4515 79.175 5.99316 79.175C5.2015 79.175 4.45983 79.0292 3.76816 78.7375C3.08483 78.4458 2.489 78.0208 1.98066 77.4625C1.48066 76.9042 1.08483 76.2208 0.793164 75.4125C0.501497 74.5958 0.355664 73.6708 0.355664 72.6375C0.355664 71.6958 0.484831 70.825 0.743164 70.025C1.00983 69.225 1.39733 68.5375 1.90566 67.9625C2.42233 67.3792 3.05566 66.925 3.80566 66.6C4.55566 66.2667 5.414 66.1 6.38066 66.1C7.289 66.1 8.089 66.2458 8.78066 66.5375C9.47233 66.8292 10.089 67.2417 10.6307 67.775L9.98066 68.675ZM18.7363 66.1C19.6697 66.1 20.5113 66.2542 21.2613 66.5625C22.0197 66.8625 22.6613 67.3 23.1863 67.875C23.7197 68.4417 24.128 69.1292 24.4113 69.9375C24.6947 70.7375 24.8363 71.6375 24.8363 72.6375C24.8363 73.6375 24.6947 74.5417 24.4113 75.35C24.128 76.1583 23.7197 76.8458 23.1863 77.4125C22.6613 77.9792 22.0197 78.4167 21.2613 78.725C20.5113 79.025 19.6697 79.175 18.7363 79.175C17.7947 79.175 16.9447 79.025 16.1863 78.725C15.4363 78.4167 14.7947 77.9792 14.2613 77.4125C13.728 76.8458 13.3155 76.1583 13.0238 75.35C12.7405 74.5417 12.5988 73.6375 12.5988 72.6375C12.5988 71.6375 12.7405 70.7375 13.0238 69.9375C13.3155 69.1292 13.728 68.4417 14.2613 67.875C14.7947 67.3 15.4363 66.8625 16.1863 66.5625C16.9447 66.2542 17.7947 66.1 18.7363 66.1ZM18.7363 77.275C19.9363 77.275 20.8322 76.8708 21.4238 76.0625C22.0155 75.2542 22.3113 74.1167 22.3113 72.65C22.3113 71.1833 22.0155 70.0458 21.4238 69.2375C20.8322 68.4208 19.9363 68.0125 18.7363 68.0125C17.5197 68.0125 16.6113 68.4208 16.0113 69.2375C15.4197 70.0458 15.1238 71.1833 15.1238 72.65C15.1238 74.1167 15.4197 75.2542 16.0113 76.0625C16.6113 76.8708 17.5197 77.275 18.7363 77.275ZM35.5447 68.4875C35.4781 68.5958 35.4072 68.675 35.3322 68.725C35.2572 68.7667 35.1614 68.7875 35.0447 68.7875C34.9114 68.7875 34.7614 68.7417 34.5947 68.65C34.4364 68.5583 34.2406 68.4583 34.0072 68.35C33.7822 68.2417 33.5156 68.1417 33.2072 68.05C32.8989 67.9583 32.5322 67.9125 32.1072 67.9125C31.7572 67.9125 31.4364 67.9583 31.1447 68.05C30.8614 68.1333 30.6197 68.2542 30.4197 68.4125C30.2197 68.5625 30.0656 68.7458 29.9572 68.9625C29.8489 69.1708 29.7947 69.3958 29.7947 69.6375C29.7947 69.9542 29.8864 70.2167 30.0697 70.425C30.2614 70.6333 30.5072 70.8125 30.8072 70.9625C31.1156 71.1125 31.4614 71.25 31.8447 71.375C32.2364 71.4917 32.6322 71.6167 33.0322 71.75C33.4406 71.8833 33.8364 72.0375 34.2197 72.2125C34.6114 72.3792 34.9572 72.5917 35.2572 72.85C35.5656 73.1 35.8114 73.4042 35.9947 73.7625C36.1864 74.1208 36.2822 74.5583 36.2822 75.075C36.2822 75.6667 36.1739 76.2167 35.9572 76.725C35.7489 77.225 35.4364 77.6583 35.0197 78.025C34.6114 78.3917 34.1031 78.6792 33.4947 78.8875C32.8864 79.0958 32.1906 79.2 31.4072 79.2C30.5322 79.2 29.7239 79.0542 28.9822 78.7625C28.2406 78.4708 27.6197 78.1 27.1197 77.65L27.6947 76.7125C27.7614 76.5958 27.8447 76.5083 27.9447 76.45C28.0447 76.3833 28.1781 76.35 28.3447 76.35C28.5031 76.35 28.6656 76.4083 28.8322 76.525C28.9989 76.6417 29.1989 76.7708 29.4322 76.9125C29.6656 77.0458 29.9489 77.1708 30.2822 77.2875C30.6156 77.3958 31.0322 77.45 31.5322 77.45C31.9489 77.45 32.3114 77.4 32.6197 77.3C32.9281 77.1917 33.1822 77.05 33.3822 76.875C33.5906 76.6917 33.7447 76.4833 33.8447 76.25C33.9447 76.0167 33.9947 75.7708 33.9947 75.5125C33.9947 75.1792 33.8989 74.9042 33.7072 74.6875C33.5239 74.4625 33.2781 74.2708 32.9697 74.1125C32.6697 73.9542 32.3239 73.8167 31.9322 73.7C31.5406 73.5833 31.1406 73.4583 30.7322 73.325C30.3239 73.1917 29.9239 73.0375 29.5322 72.8625C29.1406 72.6875 28.7906 72.4667 28.4822 72.2C28.1822 71.9333 27.9364 71.6083 27.7447 71.225C27.5614 70.8417 27.4697 70.375 27.4697 69.825C27.4697 69.3333 27.5697 68.8625 27.7697 68.4125C27.9781 67.9625 28.2739 67.5667 28.6572 67.225C29.0489 66.8833 29.5281 66.6125 30.0947 66.4125C30.6697 66.2042 31.3239 66.1 32.0572 66.1C32.8989 66.1 33.6572 66.2333 34.3322 66.5C35.0156 66.7667 35.5989 67.1333 36.0822 67.6L35.5447 68.4875ZM43.3965 79.2C42.3715 79.2 41.5798 78.9125 41.0215 78.3375C40.4715 77.7625 40.1965 76.9417 40.1965 75.875V68.275H38.7215C38.5798 68.275 38.459 68.2333 38.359 68.15C38.2673 68.0583 38.2215 67.925 38.2215 67.75V66.7625L40.284 66.475L40.834 62.6875C40.8673 62.5458 40.9298 62.4375 41.0215 62.3625C41.1215 62.2792 41.2465 62.2375 41.3965 62.2375H42.634V66.5H46.234V68.275H42.634V75.7125C42.634 76.2125 42.7548 76.5875 42.9965 76.8375C43.2465 77.0792 43.5632 77.2 43.9465 77.2C44.1715 77.2 44.3632 77.1708 44.5215 77.1125C44.6882 77.0542 44.8298 76.9917 44.9465 76.925C45.0632 76.85 45.1632 76.7833 45.2465 76.725C45.3298 76.6667 45.4048 76.6375 45.4715 76.6375C45.5548 76.6375 45.6173 76.6583 45.659 76.7C45.709 76.7333 45.759 76.7917 45.809 76.875L46.534 78.05C46.134 78.4167 45.659 78.7 45.109 78.9C44.559 79.1 43.9882 79.2 43.3965 79.2ZM48.5791 77.5375C48.5791 77.3125 48.6208 77.1 48.7041 76.9C48.7874 76.7 48.8999 76.525 49.0416 76.375C49.1916 76.225 49.3666 76.1083 49.5666 76.025C49.7666 75.9333 49.9833 75.8875 50.2166 75.8875C50.4416 75.8875 50.6541 75.9333 50.8541 76.025C51.0541 76.1083 51.2291 76.225 51.3791 76.375C51.5291 76.525 51.6458 76.7 51.7291 76.9C51.8208 77.1 51.8666 77.3125 51.8666 77.5375C51.8666 77.7708 51.8208 77.9875 51.7291 78.1875C51.6458 78.3875 51.5291 78.5625 51.3791 78.7125C51.2291 78.8625 51.0541 78.9792 50.8541 79.0625C50.6541 79.1458 50.4416 79.1875 50.2166 79.1875C49.9833 79.1875 49.7666 79.1458 49.5666 79.0625C49.3666 78.9792 49.1916 78.8625 49.0416 78.7125C48.8999 78.5625 48.7874 78.3875 48.7041 78.1875C48.6208 77.9875 48.5791 77.7708 48.5791 77.5375Z" fill="#002845"/>
</svg>
