<svg width="355" height="29" viewBox="0 0 355 29" fill="none" xmlns="http://www.w3.org/2000/svg">
<path d="M19.6632 12.125V20.9C18.5632 21.71 17.3882 22.305 16.1382 22.685C14.8982 23.055 13.5682 23.24 12.1482 23.24C10.3782 23.24 8.77316 22.965 7.33316 22.415C5.90316 21.865 4.67816 21.1 3.65816 20.12C2.64816 19.14 1.86816 17.97 1.31816 16.61C0.768164 15.25 0.493164 13.765 0.493164 12.155C0.493164 10.525 0.758164 9.03 1.28816 7.67C1.81816 6.31 2.56816 5.14 3.53816 4.16C4.51816 3.18 5.70316 2.42 7.09316 1.88C8.48316 1.34 10.0432 1.07 11.7732 1.07C12.6532 1.07 13.4732 1.14 14.2332 1.28C15.0032 1.42 15.7132 1.615 16.3632 1.865C17.0232 2.105 17.6232 2.4 18.1632 2.75C18.7032 3.1 19.1982 3.485 19.6482 3.905L18.4932 5.735C18.3132 6.025 18.0782 6.205 17.7882 6.275C17.4982 6.335 17.1832 6.26 16.8432 6.05C16.5132 5.86 16.1832 5.67 15.8532 5.48C15.5232 5.29 15.1532 5.125 14.7432 4.985C14.3432 4.845 13.8882 4.73 13.3782 4.64C12.8782 4.55 12.2982 4.505 11.6382 4.505C10.5682 4.505 9.59816 4.685 8.72816 5.045C7.86816 5.405 7.13316 5.92 6.52316 6.59C5.91316 7.26 5.44316 8.065 5.11316 9.005C4.78316 9.945 4.61816 10.995 4.61816 12.155C4.61816 13.395 4.79316 14.505 5.14316 15.485C5.50316 16.455 6.00316 17.28 6.64316 17.96C7.29316 18.63 8.07316 19.145 8.98316 19.505C9.89316 19.855 10.9082 20.03 12.0282 20.03C12.8282 20.03 13.5432 19.945 14.1732 19.775C14.8032 19.605 15.4182 19.375 16.0182 19.085V15.155H13.2882C13.0282 15.155 12.8232 15.085 12.6732 14.945C12.5332 14.795 12.4632 14.615 12.4632 14.405V12.125H19.6632ZM27.1264 10.28C27.6064 9.36 28.1764 8.64 28.8364 8.12C29.4964 7.59 30.2764 7.325 31.1764 7.325C31.8864 7.325 32.4564 7.48 32.8864 7.79L32.6464 10.565C32.5964 10.745 32.5214 10.875 32.4214 10.955C32.3314 11.025 32.2064 11.06 32.0464 11.06C31.8964 11.06 31.6714 11.035 31.3714 10.985C31.0814 10.935 30.7964 10.91 30.5164 10.91C30.1064 10.91 29.7414 10.97 29.4214 11.09C29.1014 11.21 28.8114 11.385 28.5514 11.615C28.3014 11.835 28.0764 12.105 27.8764 12.425C27.6864 12.745 27.5064 13.11 27.3364 13.52V23H23.6314V7.61H25.8064C26.1864 7.61 26.4514 7.68 26.6014 7.82C26.7514 7.95 26.8514 8.19 26.9014 8.54L27.1264 10.28ZM45.1983 13.535C45.1983 13.055 45.1283 12.605 44.9883 12.185C44.8583 11.755 44.6583 11.38 44.3883 11.06C44.1183 10.74 43.7733 10.49 43.3533 10.31C42.9433 10.12 42.4633 10.025 41.9133 10.025C40.8433 10.025 39.9983 10.33 39.3783 10.94C38.7683 11.55 38.3783 12.415 38.2083 13.535H45.1983ZM38.1333 15.77C38.1933 16.56 38.3333 17.245 38.5533 17.825C38.7733 18.395 39.0633 18.87 39.4233 19.25C39.7833 19.62 40.2083 19.9 40.6983 20.09C41.1983 20.27 41.7483 20.36 42.3483 20.36C42.9483 20.36 43.4633 20.29 43.8933 20.15C44.3333 20.01 44.7133 19.855 45.0333 19.685C45.3633 19.515 45.6483 19.36 45.8883 19.22C46.1383 19.08 46.3783 19.01 46.6083 19.01C46.9183 19.01 47.1483 19.125 47.2983 19.355L48.3633 20.705C47.9533 21.185 47.4933 21.59 46.9833 21.92C46.4733 22.24 45.9383 22.5 45.3783 22.7C44.8283 22.89 44.2633 23.025 43.6833 23.105C43.1133 23.185 42.5583 23.225 42.0183 23.225C40.9483 23.225 39.9533 23.05 39.0333 22.7C38.1133 22.34 37.3133 21.815 36.6333 21.125C35.9533 20.425 35.4183 19.565 35.0283 18.545C34.6383 17.515 34.4433 16.325 34.4433 14.975C34.4433 13.925 34.6133 12.94 34.9533 12.02C35.2933 11.09 35.7783 10.285 36.4083 9.605C37.0483 8.915 37.8233 8.37 38.7333 7.97C39.6533 7.57 40.6883 7.37 41.8383 7.37C42.8083 7.37 43.7033 7.525 44.5233 7.835C45.3433 8.145 46.0483 8.6 46.6383 9.2C47.2283 9.79 47.6883 10.52 48.0183 11.39C48.3583 12.25 48.5283 13.235 48.5283 14.345C48.5283 14.905 48.4683 15.285 48.3483 15.485C48.2283 15.675 47.9983 15.77 47.6583 15.77H38.1333ZM60.3387 16.43C59.2687 16.48 58.3687 16.575 57.6387 16.715C56.9087 16.845 56.3237 17.015 55.8837 17.225C55.4437 17.435 55.1287 17.68 54.9387 17.96C54.7487 18.24 54.6537 18.545 54.6537 18.875C54.6537 19.525 54.8437 19.99 55.2237 20.27C55.6137 20.55 56.1187 20.69 56.7387 20.69C57.4987 20.69 58.1537 20.555 58.7037 20.285C59.2637 20.005 59.8087 19.585 60.3387 19.025V16.43ZM51.8487 9.755C53.6187 8.135 55.7487 7.325 58.2387 7.325C59.1387 7.325 59.9437 7.475 60.6537 7.775C61.3637 8.065 61.9637 8.475 62.4537 9.005C62.9437 9.525 63.3137 10.15 63.5637 10.88C63.8237 11.61 63.9537 12.41 63.9537 13.28V23H62.2737C61.9237 23 61.6537 22.95 61.4637 22.85C61.2737 22.74 61.1237 22.525 61.0137 22.205L60.6837 21.095C60.2937 21.445 59.9137 21.755 59.5437 22.025C59.1737 22.285 58.7887 22.505 58.3887 22.685C57.9887 22.865 57.5587 23 57.0987 23.09C56.6487 23.19 56.1487 23.24 55.5987 23.24C54.9487 23.24 54.3487 23.155 53.7987 22.985C53.2487 22.805 52.7737 22.54 52.3737 22.19C51.9737 21.84 51.6637 21.405 51.4437 20.885C51.2237 20.365 51.1137 19.76 51.1137 19.07C51.1137 18.68 51.1787 18.295 51.3087 17.915C51.4387 17.525 51.6487 17.155 51.9387 16.805C52.2387 16.455 52.6237 16.125 53.0937 15.815C53.5637 15.505 54.1387 15.235 54.8187 15.005C55.5087 14.775 56.3087 14.59 57.2187 14.45C58.1287 14.3 59.1687 14.21 60.3387 14.18V13.28C60.3387 12.25 60.1187 11.49 59.6787 11C59.2387 10.5 58.6037 10.25 57.7737 10.25C57.1737 10.25 56.6737 10.32 56.2737 10.46C55.8837 10.6 55.5387 10.76 55.2387 10.94C54.9387 11.11 54.6637 11.265 54.4137 11.405C54.1737 11.545 53.9037 11.615 53.6037 11.615C53.3437 11.615 53.1237 11.55 52.9437 11.42C52.7637 11.28 52.6187 11.12 52.5087 10.94L51.8487 9.755ZM73.268 23.24C71.928 23.24 70.898 22.865 70.178 22.115C69.468 21.355 69.113 20.31 69.113 18.98V10.385H67.538C67.338 10.385 67.168 10.32 67.028 10.19C66.888 10.06 66.818 9.865 66.818 9.605V8.135L69.293 7.73L70.073 3.53C70.123 3.33 70.218 3.175 70.358 3.065C70.498 2.955 70.678 2.9 70.898 2.9H72.818V7.745H76.928V10.385H72.818V18.725C72.818 19.205 72.933 19.58 73.163 19.85C73.403 20.12 73.728 20.255 74.138 20.255C74.368 20.255 74.558 20.23 74.708 20.18C74.868 20.12 75.003 20.06 75.113 20C75.233 19.94 75.338 19.885 75.428 19.835C75.518 19.775 75.608 19.745 75.698 19.745C75.808 19.745 75.898 19.775 75.968 19.835C76.038 19.885 76.113 19.965 76.193 20.075L77.303 21.875C76.763 22.325 76.143 22.665 75.443 22.895C74.743 23.125 74.018 23.24 73.268 23.24ZM102.175 7.61L97.2851 23H94.3151C93.9751 23 93.7401 22.78 93.6101 22.34L90.8501 13.445C90.7601 13.145 90.6751 12.85 90.5951 12.56C90.5251 12.26 90.4651 11.96 90.4151 11.66C90.3551 11.96 90.2851 12.265 90.2051 12.575C90.1351 12.875 90.0551 13.175 89.9651 13.475L87.1601 22.34C87.0401 22.78 86.7751 23 86.3651 23H83.5151L78.6401 7.61H81.5951C81.8651 7.61 82.0951 7.675 82.2851 7.805C82.4751 7.935 82.6001 8.1 82.6601 8.3L84.8651 16.52C84.9751 16.97 85.0701 17.41 85.1501 17.84C85.2401 18.27 85.3151 18.7 85.3751 19.13C85.4851 18.7 85.6001 18.27 85.7201 17.84C85.8501 17.41 85.9851 16.97 86.1251 16.52L88.6751 8.27C88.7351 8.07 88.8501 7.905 89.0201 7.775C89.2001 7.645 89.4151 7.58 89.6651 7.58H91.3001C91.5601 7.58 91.7801 7.645 91.9601 7.775C92.1501 7.905 92.2751 8.07 92.3351 8.27L94.8101 16.52C94.9401 16.97 95.0601 17.415 95.1701 17.855C95.2901 18.285 95.4051 18.715 95.5151 19.145C95.6451 18.295 95.8301 17.42 96.0701 16.52L98.3351 8.3C98.4051 8.1 98.5301 7.935 98.7101 7.805C98.8901 7.675 99.1051 7.61 99.3551 7.61H102.175ZM113.107 16.43C112.037 16.48 111.137 16.575 110.407 16.715C109.677 16.845 109.092 17.015 108.652 17.225C108.212 17.435 107.897 17.68 107.707 17.96C107.517 18.24 107.422 18.545 107.422 18.875C107.422 19.525 107.612 19.99 107.992 20.27C108.382 20.55 108.887 20.69 109.507 20.69C110.267 20.69 110.922 20.555 111.472 20.285C112.032 20.005 112.577 19.585 113.107 19.025V16.43ZM104.617 9.755C106.387 8.135 108.517 7.325 111.007 7.325C111.907 7.325 112.712 7.475 113.422 7.775C114.132 8.065 114.732 8.475 115.222 9.005C115.712 9.525 116.082 10.15 116.332 10.88C116.592 11.61 116.722 12.41 116.722 13.28V23H115.042C114.692 23 114.422 22.95 114.232 22.85C114.042 22.74 113.892 22.525 113.782 22.205L113.452 21.095C113.062 21.445 112.682 21.755 112.312 22.025C111.942 22.285 111.557 22.505 111.157 22.685C110.757 22.865 110.327 23 109.867 23.09C109.417 23.19 108.917 23.24 108.367 23.24C107.717 23.24 107.117 23.155 106.567 22.985C106.017 22.805 105.542 22.54 105.142 22.19C104.742 21.84 104.432 21.405 104.212 20.885C103.992 20.365 103.882 19.76 103.882 19.07C103.882 18.68 103.947 18.295 104.077 17.915C104.207 17.525 104.417 17.155 104.707 16.805C105.007 16.455 105.392 16.125 105.862 15.815C106.332 15.505 106.907 15.235 107.587 15.005C108.277 14.775 109.077 14.59 109.987 14.45C110.897 14.3 111.937 14.21 113.107 14.18V13.28C113.107 12.25 112.887 11.49 112.447 11C112.007 10.5 111.372 10.25 110.542 10.25C109.942 10.25 109.442 10.32 109.042 10.46C108.652 10.6 108.307 10.76 108.007 10.94C107.707 11.11 107.432 11.265 107.182 11.405C106.942 11.545 106.672 11.615 106.372 11.615C106.112 11.615 105.892 11.55 105.712 11.42C105.532 11.28 105.387 11.12 105.277 10.94L104.617 9.755ZM134.652 7.61L126.267 27.23C126.157 27.49 126.012 27.685 125.832 27.815C125.662 27.955 125.397 28.025 125.037 28.025H122.277L125.157 21.845L118.932 7.61H122.187C122.477 7.61 122.702 7.68 122.862 7.82C123.032 7.96 123.157 8.12 123.237 8.3L126.507 16.28C126.617 16.55 126.707 16.82 126.777 17.09C126.857 17.36 126.932 17.635 127.002 17.915C127.092 17.635 127.182 17.36 127.272 17.09C127.362 16.81 127.462 16.535 127.572 16.265L130.662 8.3C130.742 8.1 130.872 7.935 131.052 7.805C131.242 7.675 131.452 7.61 131.682 7.61H134.652ZM151.636 7.37C152.776 7.37 153.811 7.555 154.741 7.925C155.681 8.295 156.481 8.82 157.141 9.5C157.811 10.18 158.326 11.01 158.686 11.99C159.046 12.97 159.226 14.065 159.226 15.275C159.226 16.495 159.046 17.595 158.686 18.575C158.326 19.555 157.811 20.39 157.141 21.08C156.481 21.77 155.681 22.3 154.741 22.67C153.811 23.04 152.776 23.225 151.636 23.225C150.486 23.225 149.441 23.04 148.501 22.67C147.561 22.3 146.756 21.77 146.086 21.08C145.426 20.39 144.911 19.555 144.541 18.575C144.181 17.595 144.001 16.495 144.001 15.275C144.001 14.065 144.181 12.97 144.541 11.99C144.911 11.01 145.426 10.18 146.086 9.5C146.756 8.82 147.561 8.295 148.501 7.925C149.441 7.555 150.486 7.37 151.636 7.37ZM151.636 20.375C152.916 20.375 153.861 19.945 154.471 19.085C155.091 18.225 155.401 16.965 155.401 15.305C155.401 13.645 155.091 12.38 154.471 11.51C153.861 10.64 152.916 10.205 151.636 10.205C150.336 10.205 149.371 10.645 148.741 11.525C148.121 12.395 147.811 13.655 147.811 15.305C147.811 16.955 148.121 18.215 148.741 19.085C149.371 19.945 150.336 20.375 151.636 20.375ZM163.651 23V10.4L162.316 10.19C162.026 10.13 161.791 10.03 161.611 9.89C161.441 9.74 161.356 9.53 161.356 9.26V7.745H163.651V6.605C163.651 5.725 163.781 4.935 164.041 4.235C164.311 3.535 164.691 2.94 165.181 2.45C165.681 1.96 166.286 1.585 166.996 1.325C167.706 1.065 168.506 0.934999 169.396 0.934999C170.106 0.934999 170.766 1.03 171.376 1.22L171.301 3.08C171.291 3.22 171.251 3.335 171.181 3.425C171.111 3.505 171.016 3.57 170.896 3.62C170.786 3.66 170.656 3.69 170.506 3.71C170.356 3.72 170.196 3.725 170.026 3.725C169.586 3.725 169.191 3.775 168.841 3.875C168.501 3.965 168.211 4.13 167.971 4.37C167.731 4.6 167.546 4.91 167.416 5.3C167.296 5.68 167.236 6.155 167.236 6.725V7.745H171.241V10.385H167.356V23H163.651ZM187.486 14.93C187.946 14.93 188.346 14.87 188.686 14.75C189.026 14.62 189.306 14.445 189.526 14.225C189.756 14.005 189.926 13.74 190.036 13.43C190.156 13.12 190.216 12.78 190.216 12.41C190.216 11.65 189.986 11.05 189.526 10.61C189.076 10.16 188.396 9.935 187.486 9.935C186.576 9.935 185.891 10.16 185.431 10.61C184.981 11.05 184.756 11.65 184.756 12.41C184.756 12.77 184.811 13.105 184.921 13.415C185.041 13.725 185.211 13.995 185.431 14.225C185.661 14.445 185.946 14.62 186.286 14.75C186.636 14.87 187.036 14.93 187.486 14.93ZM191.671 23.69C191.671 23.39 191.581 23.145 191.401 22.955C191.221 22.765 190.976 22.62 190.666 22.52C190.356 22.41 189.991 22.33 189.571 22.28C189.161 22.23 188.721 22.195 188.251 22.175C187.791 22.145 187.311 22.12 186.811 22.1C186.321 22.08 185.841 22.04 185.371 21.98C184.961 22.21 184.626 22.48 184.366 22.79C184.116 23.1 183.991 23.46 183.991 23.87C183.991 24.14 184.056 24.39 184.186 24.62C184.326 24.86 184.541 25.065 184.831 25.235C185.131 25.405 185.516 25.535 185.986 25.625C186.456 25.725 187.031 25.775 187.711 25.775C188.401 25.775 188.996 25.72 189.496 25.61C189.996 25.51 190.406 25.365 190.726 25.175C191.056 24.995 191.296 24.775 191.446 24.515C191.596 24.265 191.671 23.99 191.671 23.69ZM195.361 8.135V9.515C195.361 9.955 195.096 10.225 194.566 10.325L193.186 10.58C193.396 11.11 193.501 11.69 193.501 12.32C193.501 13.08 193.346 13.77 193.036 14.39C192.736 15 192.316 15.52 191.776 15.95C191.236 16.38 190.596 16.715 189.856 16.955C189.126 17.185 188.336 17.3 187.486 17.3C187.186 17.3 186.896 17.285 186.616 17.255C186.336 17.225 186.061 17.185 185.791 17.135C185.311 17.425 185.071 17.75 185.071 18.11C185.071 18.42 185.211 18.65 185.491 18.8C185.781 18.94 186.161 19.04 186.631 19.1C187.101 19.16 187.636 19.2 188.236 19.22C188.836 19.23 189.451 19.26 190.081 19.31C190.711 19.36 191.326 19.45 191.926 19.58C192.526 19.7 193.061 19.895 193.531 20.165C194.001 20.435 194.376 20.805 194.656 21.275C194.946 21.735 195.091 22.33 195.091 23.06C195.091 23.74 194.921 24.4 194.581 25.04C194.251 25.68 193.766 26.25 193.126 26.75C192.496 27.25 191.716 27.65 190.786 27.95C189.866 28.26 188.816 28.415 187.636 28.415C186.476 28.415 185.466 28.3 184.606 28.07C183.746 27.85 183.031 27.55 182.461 27.17C181.891 26.8 181.466 26.37 181.186 25.88C180.906 25.39 180.766 24.88 180.766 24.35C180.766 23.63 180.981 23.03 181.411 22.55C181.851 22.06 182.451 21.67 183.211 21.38C182.801 21.17 182.476 20.89 182.236 20.54C181.996 20.19 181.876 19.73 181.876 19.16C181.876 18.93 181.916 18.695 181.996 18.455C182.086 18.205 182.211 17.96 182.371 17.72C182.541 17.48 182.751 17.255 183.001 17.045C183.251 16.825 183.546 16.63 183.886 16.46C183.106 16.04 182.491 15.48 182.041 14.78C181.601 14.08 181.381 13.26 181.381 12.32C181.381 11.56 181.531 10.875 181.831 10.265C182.141 9.645 182.566 9.12 183.106 8.69C183.656 8.25 184.301 7.915 185.041 7.685C185.791 7.455 186.606 7.34 187.486 7.34C188.146 7.34 188.766 7.41 189.346 7.55C189.926 7.68 190.456 7.875 190.936 8.135H195.361ZM208.262 13.535C208.262 13.055 208.192 12.605 208.052 12.185C207.922 11.755 207.722 11.38 207.452 11.06C207.182 10.74 206.837 10.49 206.417 10.31C206.007 10.12 205.527 10.025 204.977 10.025C203.907 10.025 203.062 10.33 202.442 10.94C201.832 11.55 201.442 12.415 201.272 13.535H208.262ZM201.197 15.77C201.257 16.56 201.397 17.245 201.617 17.825C201.837 18.395 202.127 18.87 202.487 19.25C202.847 19.62 203.272 19.9 203.762 20.09C204.262 20.27 204.812 20.36 205.412 20.36C206.012 20.36 206.527 20.29 206.957 20.15C207.397 20.01 207.777 19.855 208.097 19.685C208.427 19.515 208.712 19.36 208.952 19.22C209.202 19.08 209.442 19.01 209.672 19.01C209.982 19.01 210.212 19.125 210.362 19.355L211.427 20.705C211.017 21.185 210.557 21.59 210.047 21.92C209.537 22.24 209.002 22.5 208.442 22.7C207.892 22.89 207.327 23.025 206.747 23.105C206.177 23.185 205.622 23.225 205.082 23.225C204.012 23.225 203.017 23.05 202.097 22.7C201.177 22.34 200.377 21.815 199.697 21.125C199.017 20.425 198.482 19.565 198.092 18.545C197.702 17.515 197.507 16.325 197.507 14.975C197.507 13.925 197.677 12.94 198.017 12.02C198.357 11.09 198.842 10.285 199.472 9.605C200.112 8.915 200.887 8.37 201.797 7.97C202.717 7.57 203.752 7.37 204.902 7.37C205.872 7.37 206.767 7.525 207.587 7.835C208.407 8.145 209.112 8.6 209.702 9.2C210.292 9.79 210.752 10.52 211.082 11.39C211.422 12.25 211.592 13.235 211.592 14.345C211.592 14.905 211.532 15.285 211.412 15.485C211.292 15.675 211.062 15.77 210.722 15.77H201.197ZM240.281 23H236.576V10.385H229.736V18.725C229.736 19.205 229.856 19.58 230.096 19.85C230.336 20.12 230.661 20.255 231.071 20.255C231.291 20.255 231.481 20.23 231.641 20.18C231.801 20.12 231.936 20.06 232.046 20C232.166 19.94 232.271 19.885 232.361 19.835C232.451 19.775 232.541 19.745 232.631 19.745C232.741 19.745 232.831 19.775 232.901 19.835C232.971 19.885 233.046 19.965 233.126 20.075L234.236 21.875C233.696 22.325 233.076 22.665 232.376 22.895C231.676 23.125 230.951 23.24 230.201 23.24C228.861 23.24 227.831 22.865 227.111 22.115C226.391 21.355 226.031 20.31 226.031 18.98V10.385H219.806V18.725C219.806 19.205 219.921 19.58 220.151 19.85C220.391 20.12 220.716 20.255 221.126 20.255C221.356 20.255 221.546 20.23 221.696 20.18C221.856 20.12 221.991 20.06 222.101 20C222.221 19.94 222.326 19.885 222.416 19.835C222.506 19.775 222.596 19.745 222.686 19.745C222.796 19.745 222.886 19.775 222.956 19.835C223.026 19.885 223.101 19.965 223.181 20.075L224.291 21.875C223.751 22.325 223.131 22.665 222.431 22.895C221.731 23.125 221.006 23.24 220.256 23.24C218.916 23.24 217.886 22.865 217.166 22.115C216.456 21.355 216.101 20.31 216.101 18.98V10.385H214.526C214.326 10.385 214.156 10.32 214.016 10.19C213.876 10.06 213.806 9.865 213.806 9.605V8.135L216.281 7.715L217.061 3.53C217.111 3.33 217.206 3.175 217.346 3.065C217.486 2.955 217.666 2.9 217.886 2.9H219.806V7.745H226.211L227.006 3.53C227.056 3.33 227.146 3.175 227.276 3.065C227.416 2.955 227.601 2.9 227.831 2.9H229.736V7.745H240.281V23ZM240.866 3.065C240.866 3.385 240.801 3.69 240.671 3.98C240.541 4.26 240.366 4.505 240.146 4.715C239.936 4.925 239.681 5.095 239.381 5.225C239.091 5.345 238.781 5.405 238.451 5.405C238.131 5.405 237.831 5.345 237.551 5.225C237.271 5.095 237.026 4.925 236.816 4.715C236.606 4.505 236.436 4.26 236.306 3.98C236.186 3.69 236.126 3.385 236.126 3.065C236.126 2.735 236.186 2.43 236.306 2.15C236.436 1.86 236.606 1.61 236.816 1.4C237.026 1.18 237.271 1.01 237.551 0.889999C237.831 0.759998 238.131 0.694998 238.451 0.694998C238.781 0.694998 239.091 0.759998 239.381 0.889999C239.681 1.01 239.936 1.18 240.146 1.4C240.366 1.61 240.541 1.86 240.671 2.15C240.801 2.43 240.866 2.735 240.866 3.065ZM248.437 9.5C248.747 9.19 249.072 8.905 249.412 8.645C249.762 8.375 250.127 8.15 250.507 7.97C250.897 7.78 251.312 7.635 251.752 7.535C252.192 7.425 252.672 7.37 253.192 7.37C254.032 7.37 254.777 7.515 255.427 7.805C256.077 8.085 256.617 8.485 257.047 9.005C257.487 9.515 257.817 10.13 258.037 10.85C258.267 11.56 258.382 12.345 258.382 13.205V23H254.677V13.205C254.677 12.265 254.462 11.54 254.032 11.03C253.602 10.51 252.947 10.25 252.067 10.25C251.427 10.25 250.827 10.395 250.267 10.685C249.707 10.975 249.177 11.37 248.677 11.87V23H244.972V7.61H247.237C247.717 7.61 248.032 7.835 248.182 8.285L248.437 9.5ZM268.43 14.93C268.89 14.93 269.29 14.87 269.63 14.75C269.97 14.62 270.25 14.445 270.47 14.225C270.7 14.005 270.87 13.74 270.98 13.43C271.1 13.12 271.16 12.78 271.16 12.41C271.16 11.65 270.93 11.05 270.47 10.61C270.02 10.16 269.34 9.935 268.43 9.935C267.52 9.935 266.835 10.16 266.375 10.61C265.925 11.05 265.7 11.65 265.7 12.41C265.7 12.77 265.755 13.105 265.865 13.415C265.985 13.725 266.155 13.995 266.375 14.225C266.605 14.445 266.89 14.62 267.23 14.75C267.58 14.87 267.98 14.93 268.43 14.93ZM272.615 23.69C272.615 23.39 272.525 23.145 272.345 22.955C272.165 22.765 271.92 22.62 271.61 22.52C271.3 22.41 270.935 22.33 270.515 22.28C270.105 22.23 269.665 22.195 269.195 22.175C268.735 22.145 268.255 22.12 267.755 22.1C267.265 22.08 266.785 22.04 266.315 21.98C265.905 22.21 265.57 22.48 265.31 22.79C265.06 23.1 264.935 23.46 264.935 23.87C264.935 24.14 265 24.39 265.13 24.62C265.27 24.86 265.485 25.065 265.775 25.235C266.075 25.405 266.46 25.535 266.93 25.625C267.4 25.725 267.975 25.775 268.655 25.775C269.345 25.775 269.94 25.72 270.44 25.61C270.94 25.51 271.35 25.365 271.67 25.175C272 24.995 272.24 24.775 272.39 24.515C272.54 24.265 272.615 23.99 272.615 23.69ZM276.305 8.135V9.515C276.305 9.955 276.04 10.225 275.51 10.325L274.13 10.58C274.34 11.11 274.445 11.69 274.445 12.32C274.445 13.08 274.29 13.77 273.98 14.39C273.68 15 273.26 15.52 272.72 15.95C272.18 16.38 271.54 16.715 270.8 16.955C270.07 17.185 269.28 17.3 268.43 17.3C268.13 17.3 267.84 17.285 267.56 17.255C267.28 17.225 267.005 17.185 266.735 17.135C266.255 17.425 266.015 17.75 266.015 18.11C266.015 18.42 266.155 18.65 266.435 18.8C266.725 18.94 267.105 19.04 267.575 19.1C268.045 19.16 268.58 19.2 269.18 19.22C269.78 19.23 270.395 19.26 271.025 19.31C271.655 19.36 272.27 19.45 272.87 19.58C273.47 19.7 274.005 19.895 274.475 20.165C274.945 20.435 275.32 20.805 275.6 21.275C275.89 21.735 276.035 22.33 276.035 23.06C276.035 23.74 275.865 24.4 275.525 25.04C275.195 25.68 274.71 26.25 274.07 26.75C273.44 27.25 272.66 27.65 271.73 27.95C270.81 28.26 269.76 28.415 268.58 28.415C267.42 28.415 266.41 28.3 265.55 28.07C264.69 27.85 263.975 27.55 263.405 27.17C262.835 26.8 262.41 26.37 262.13 25.88C261.85 25.39 261.71 24.88 261.71 24.35C261.71 23.63 261.925 23.03 262.355 22.55C262.795 22.06 263.395 21.67 264.155 21.38C263.745 21.17 263.42 20.89 263.18 20.54C262.94 20.19 262.82 19.73 262.82 19.16C262.82 18.93 262.86 18.695 262.94 18.455C263.03 18.205 263.155 17.96 263.315 17.72C263.485 17.48 263.695 17.255 263.945 17.045C264.195 16.825 264.49 16.63 264.83 16.46C264.05 16.04 263.435 15.48 262.985 14.78C262.545 14.08 262.325 13.26 262.325 12.32C262.325 11.56 262.475 10.875 262.775 10.265C263.085 9.645 263.51 9.12 264.05 8.69C264.6 8.25 265.245 7.915 265.985 7.685C266.735 7.455 267.55 7.34 268.43 7.34C269.09 7.34 269.71 7.41 270.29 7.55C270.87 7.68 271.4 7.875 271.88 8.135H276.305ZM291.59 7.61V23H287.87V7.61H291.59ZM292.1 3.125C292.1 3.445 292.035 3.745 291.905 4.025C291.775 4.305 291.6 4.55 291.38 4.76C291.17 4.97 290.92 5.14 290.63 5.27C290.34 5.39 290.03 5.45 289.7 5.45C289.38 5.45 289.075 5.39 288.785 5.27C288.505 5.14 288.26 4.97 288.05 4.76C287.84 4.55 287.67 4.305 287.54 4.025C287.42 3.745 287.36 3.445 287.36 3.125C287.36 2.795 287.42 2.485 287.54 2.195C287.67 1.905 287.84 1.655 288.05 1.445C288.26 1.235 288.505 1.07 288.785 0.95C289.075 0.819999 289.38 0.754999 289.7 0.754999C290.03 0.754999 290.34 0.819999 290.63 0.95C290.92 1.07 291.17 1.235 291.38 1.445C291.6 1.655 291.775 1.905 291.905 2.195C292.035 2.485 292.1 2.795 292.1 3.125ZM299.732 9.5C300.042 9.19 300.367 8.905 300.707 8.645C301.057 8.375 301.422 8.15 301.802 7.97C302.192 7.78 302.607 7.635 303.047 7.535C303.487 7.425 303.967 7.37 304.487 7.37C305.327 7.37 306.072 7.515 306.722 7.805C307.372 8.085 307.912 8.485 308.342 9.005C308.782 9.515 309.112 10.13 309.332 10.85C309.562 11.56 309.677 12.345 309.677 13.205V23H305.972V13.205C305.972 12.265 305.757 11.54 305.327 11.03C304.897 10.51 304.242 10.25 303.362 10.25C302.722 10.25 302.122 10.395 301.562 10.685C301.002 10.975 300.472 11.37 299.972 11.87V23H296.267V7.61H298.532C299.012 7.61 299.327 7.835 299.477 8.285L299.732 9.5ZM319.025 23.24C317.685 23.24 316.655 22.865 315.935 22.115C315.225 21.355 314.87 20.31 314.87 18.98V10.385H313.295C313.095 10.385 312.925 10.32 312.785 10.19C312.645 10.06 312.575 9.865 312.575 9.605V8.135L315.05 7.73L315.83 3.53C315.88 3.33 315.975 3.175 316.115 3.065C316.255 2.955 316.435 2.9 316.655 2.9H318.575V7.745H322.685V10.385H318.575V18.725C318.575 19.205 318.69 19.58 318.92 19.85C319.16 20.12 319.485 20.255 319.895 20.255C320.125 20.255 320.315 20.23 320.465 20.18C320.625 20.12 320.76 20.06 320.87 20C320.99 19.94 321.095 19.885 321.185 19.835C321.275 19.775 321.365 19.745 321.455 19.745C321.565 19.745 321.655 19.775 321.725 19.835C321.795 19.885 321.87 19.965 321.95 20.075L323.06 21.875C322.52 22.325 321.9 22.665 321.2 22.895C320.5 23.125 319.775 23.24 319.025 23.24ZM325.418 20.96C325.418 20.65 325.473 20.355 325.583 20.075C325.703 19.795 325.863 19.555 326.063 19.355C326.263 19.155 326.503 18.995 326.783 18.875C327.063 18.755 327.363 18.695 327.683 18.695C328.003 18.695 328.298 18.755 328.568 18.875C328.848 18.995 329.088 19.155 329.288 19.355C329.498 19.555 329.663 19.795 329.783 20.075C329.903 20.355 329.963 20.65 329.963 20.96C329.963 21.28 329.903 21.58 329.783 21.86C329.663 22.13 329.498 22.365 329.288 22.565C329.088 22.765 328.848 22.92 328.568 23.03C328.298 23.15 328.003 23.21 327.683 23.21C327.363 23.21 327.063 23.15 326.783 23.03C326.503 22.92 326.263 22.765 326.063 22.565C325.863 22.365 325.703 22.13 325.583 21.86C325.473 21.58 325.418 21.28 325.418 20.96ZM333.437 20.96C333.437 20.65 333.492 20.355 333.602 20.075C333.722 19.795 333.882 19.555 334.082 19.355C334.282 19.155 334.522 18.995 334.802 18.875C335.082 18.755 335.382 18.695 335.702 18.695C336.022 18.695 336.317 18.755 336.587 18.875C336.867 18.995 337.107 19.155 337.307 19.355C337.517 19.555 337.682 19.795 337.802 20.075C337.922 20.355 337.982 20.65 337.982 20.96C337.982 21.28 337.922 21.58 337.802 21.86C337.682 22.13 337.517 22.365 337.307 22.565C337.107 22.765 336.867 22.92 336.587 23.03C336.317 23.15 336.022 23.21 335.702 23.21C335.382 23.21 335.082 23.15 334.802 23.03C334.522 22.92 334.282 22.765 334.082 22.565C333.882 22.365 333.722 22.13 333.602 21.86C333.492 21.58 333.437 21.28 333.437 20.96ZM341.456 20.96C341.456 20.65 341.511 20.355 341.621 20.075C341.741 19.795 341.901 19.555 342.101 19.355C342.301 19.155 342.541 18.995 342.821 18.875C343.101 18.755 343.401 18.695 343.721 18.695C344.041 18.695 344.336 18.755 344.606 18.875C344.886 18.995 345.126 19.155 345.326 19.355C345.536 19.555 345.701 19.795 345.821 20.075C345.941 20.355 346.001 20.65 346.001 20.96C346.001 21.28 345.941 21.58 345.821 21.86C345.701 22.13 345.536 22.365 345.326 22.565C345.126 22.765 344.886 22.92 344.606 23.03C344.336 23.15 344.041 23.21 343.721 23.21C343.401 23.21 343.101 23.15 342.821 23.03C342.541 22.92 342.301 22.765 342.101 22.565C341.901 22.365 341.741 22.13 341.621 21.86C341.511 21.58 341.456 21.28 341.456 20.96ZM349.475 20.96C349.475 20.65 349.53 20.355 349.64 20.075C349.76 19.795 349.92 19.555 350.12 19.355C350.32 19.155 350.56 18.995 350.84 18.875C351.12 18.755 351.42 18.695 351.74 18.695C352.06 18.695 352.355 18.755 352.625 18.875C352.905 18.995 353.145 19.155 353.345 19.355C353.555 19.555 353.72 19.795 353.84 20.075C353.96 20.355 354.02 20.65 354.02 20.96C354.02 21.28 353.96 21.58 353.84 21.86C353.72 22.13 353.555 22.365 353.345 22.565C353.145 22.765 352.905 22.92 352.625 23.03C352.355 23.15 352.06 23.21 351.74 23.21C351.42 23.21 351.12 23.15 350.84 23.03C350.56 22.92 350.32 22.765 350.12 22.565C349.92 22.365 349.76 22.13 349.64 21.86C349.53 21.58 349.475 21.28 349.475 20.96Z" fill="#002845"/>
</svg>
