<svg width="271" height="29" viewBox="0 0 271 29" fill="none" xmlns="http://www.w3.org/2000/svg">
<path d="M5.03816 7.61V23H1.31816V7.61H5.03816ZM5.54816 3.125C5.54816 3.445 5.48316 3.745 5.35316 4.025C5.22316 4.305 5.04816 4.55 4.82816 4.76C4.61816 4.97 4.36816 5.14 4.07816 5.27C3.78816 5.39 3.47816 5.45 3.14816 5.45C2.82816 5.45 2.52316 5.39 2.23316 5.27C1.95316 5.14 1.70816 4.97 1.49816 4.76C1.28816 4.55 1.11816 4.305 0.988164 4.025C0.868164 3.745 0.808164 3.445 0.808164 3.125C0.808164 2.795 0.868164 2.485 0.988164 2.195C1.11816 1.905 1.28816 1.655 1.49816 1.445C1.70816 1.235 1.95316 1.07 2.23316 0.95C2.52316 0.819999 2.82816 0.754999 3.14816 0.754999C3.47816 0.754999 3.78816 0.819999 4.07816 0.95C4.36816 1.07 4.61816 1.235 4.82816 1.445C5.04816 1.655 5.22316 1.905 5.35316 2.195C5.48316 2.485 5.54816 2.795 5.54816 3.125ZM8.81535 23V7.61H11.0804C11.5604 7.61 11.8754 7.835 12.0254 8.285L12.2654 9.425C12.5354 9.125 12.8154 8.85 13.1054 8.6C13.4054 8.35 13.7204 8.135 14.0504 7.955C14.3904 7.775 14.7504 7.635 15.1304 7.535C15.5204 7.425 15.9454 7.37 16.4054 7.37C17.3754 7.37 18.1704 7.635 18.7904 8.165C19.4204 8.685 19.8904 9.38 20.2004 10.25C20.4404 9.74 20.7404 9.305 21.1004 8.945C21.4604 8.575 21.8554 8.275 22.2854 8.045C22.7154 7.815 23.1704 7.645 23.6504 7.535C24.1404 7.425 24.6304 7.37 25.1204 7.37C25.9704 7.37 26.7254 7.5 27.3854 7.76C28.0454 8.02 28.6004 8.4 29.0504 8.9C29.5004 9.4 29.8404 10.01 30.0704 10.73C30.3104 11.45 30.4304 12.275 30.4304 13.205V23H26.7254V13.205C26.7254 12.225 26.5104 11.49 26.0804 11C25.6504 10.5 25.0204 10.25 24.1904 10.25C23.8104 10.25 23.4554 10.315 23.1254 10.445C22.8054 10.575 22.5204 10.765 22.2704 11.015C22.0304 11.255 21.8404 11.56 21.7004 11.93C21.5604 12.3 21.4904 12.725 21.4904 13.205V23H17.7704V13.205C17.7704 12.175 17.5604 11.425 17.1404 10.955C16.7304 10.485 16.1254 10.25 15.3254 10.25C14.7854 10.25 14.2804 10.385 13.8104 10.655C13.3504 10.915 12.9204 11.275 12.5204 11.735V23H8.81535ZM37.6571 19.01C38.0771 19.52 38.5321 19.88 39.0221 20.09C39.5221 20.3 40.0621 20.405 40.6421 20.405C41.2021 20.405 41.7071 20.3 42.1571 20.09C42.6071 19.88 42.9871 19.56 43.2971 19.13C43.6171 18.7 43.8621 18.16 44.0321 17.51C44.2021 16.85 44.2871 16.075 44.2871 15.185C44.2871 14.285 44.2121 13.525 44.0621 12.905C43.9221 12.275 43.7171 11.765 43.4471 11.375C43.1771 10.985 42.8471 10.7 42.4571 10.52C42.0771 10.34 41.6421 10.25 41.1521 10.25C40.3821 10.25 39.7271 10.415 39.1871 10.745C38.6471 11.065 38.1371 11.52 37.6571 12.11V19.01ZM37.4621 9.71C38.0921 9 38.8071 8.425 39.6071 7.985C40.4071 7.545 41.3471 7.325 42.4271 7.325C43.2671 7.325 44.0321 7.5 44.7221 7.85C45.4221 8.2 46.0221 8.71 46.5221 9.38C47.0321 10.04 47.4221 10.86 47.6921 11.84C47.9721 12.81 48.1121 13.925 48.1121 15.185C48.1121 16.335 47.9571 17.4 47.6471 18.38C47.3371 19.36 46.8921 20.21 46.3121 20.93C45.7421 21.65 45.0471 22.215 44.2271 22.625C43.4171 23.025 42.5071 23.225 41.4971 23.225C40.6371 23.225 39.9021 23.095 39.2921 22.835C38.6821 22.565 38.1371 22.195 37.6571 21.725V28.025H33.9521V7.61H36.2171C36.6971 7.61 37.0121 7.835 37.1621 8.285L37.4621 9.71ZM54.4979 10.28C54.9779 9.36 55.5479 8.64 56.2079 8.12C56.8679 7.59 57.6479 7.325 58.5479 7.325C59.2579 7.325 59.8279 7.48 60.2579 7.79L60.0179 10.565C59.9679 10.745 59.8929 10.875 59.7929 10.955C59.7029 11.025 59.5779 11.06 59.4179 11.06C59.2679 11.06 59.0429 11.035 58.7429 10.985C58.4529 10.935 58.1679 10.91 57.8879 10.91C57.4779 10.91 57.1129 10.97 56.7929 11.09C56.4729 11.21 56.1829 11.385 55.9229 11.615C55.6729 11.835 55.4479 12.105 55.2479 12.425C55.0579 12.745 54.8779 13.11 54.7079 13.52V23H51.0029V7.61H53.1779C53.5579 7.61 53.8229 7.68 53.9729 7.82C54.1229 7.95 54.2229 8.19 54.2729 8.54L54.4979 10.28ZM71.6698 13.535C71.6698 13.055 71.5998 12.605 71.4598 12.185C71.3298 11.755 71.1298 11.38 70.8598 11.06C70.5898 10.74 70.2448 10.49 69.8248 10.31C69.4148 10.12 68.9348 10.025 68.3848 10.025C67.3148 10.025 66.4698 10.33 65.8498 10.94C65.2398 11.55 64.8498 12.415 64.6798 13.535H71.6698ZM64.6048 15.77C64.6648 16.56 64.8048 17.245 65.0248 17.825C65.2448 18.395 65.5348 18.87 65.8948 19.25C66.2548 19.62 66.6798 19.9 67.1698 20.09C67.6698 20.27 68.2198 20.36 68.8198 20.36C69.4198 20.36 69.9348 20.29 70.3648 20.15C70.8048 20.01 71.1848 19.855 71.5048 19.685C71.8348 19.515 72.1198 19.36 72.3598 19.22C72.6098 19.08 72.8498 19.01 73.0798 19.01C73.3898 19.01 73.6198 19.125 73.7698 19.355L74.8348 20.705C74.4248 21.185 73.9648 21.59 73.4548 21.92C72.9448 22.24 72.4098 22.5 71.8498 22.7C71.2998 22.89 70.7348 23.025 70.1548 23.105C69.5848 23.185 69.0298 23.225 68.4898 23.225C67.4198 23.225 66.4248 23.05 65.5048 22.7C64.5848 22.34 63.7848 21.815 63.1048 21.125C62.4248 20.425 61.8898 19.565 61.4998 18.545C61.1098 17.515 60.9148 16.325 60.9148 14.975C60.9148 13.925 61.0848 12.94 61.4248 12.02C61.7648 11.09 62.2498 10.285 62.8798 9.605C63.5198 8.915 64.2948 8.37 65.2048 7.97C66.1248 7.57 67.1598 7.37 68.3098 7.37C69.2798 7.37 70.1748 7.525 70.9948 7.835C71.8148 8.145 72.5198 8.6 73.1098 9.2C73.6998 9.79 74.1598 10.52 74.4898 11.39C74.8298 12.25 74.9998 13.235 74.9998 14.345C74.9998 14.905 74.9398 15.285 74.8198 15.485C74.6998 15.675 74.4698 15.77 74.1298 15.77H64.6048ZM87.1702 10.61C87.0702 10.77 86.9652 10.885 86.8552 10.955C86.7452 11.015 86.6052 11.045 86.4352 11.045C86.2552 11.045 86.0602 10.995 85.8502 10.895C85.6502 10.795 85.4152 10.685 85.1452 10.565C84.8752 10.435 84.5652 10.32 84.2152 10.22C83.8752 10.12 83.4702 10.07 83.0002 10.07C82.2702 10.07 81.6952 10.225 81.2752 10.535C80.8652 10.845 80.6602 11.25 80.6602 11.75C80.6602 12.08 80.7652 12.36 80.9752 12.59C81.1952 12.81 81.4802 13.005 81.8302 13.175C82.1902 13.345 82.5952 13.5 83.0452 13.64C83.4952 13.77 83.9502 13.915 84.4102 14.075C84.8802 14.235 85.3402 14.42 85.7902 14.63C86.2402 14.83 86.6402 15.09 86.9902 15.41C87.3502 15.72 87.6352 16.095 87.8452 16.535C88.0652 16.975 88.1752 17.505 88.1752 18.125C88.1752 18.865 88.0402 19.55 87.7702 20.18C87.5102 20.8 87.1202 21.34 86.6002 21.8C86.0802 22.25 85.4352 22.605 84.6652 22.865C83.9052 23.115 83.0252 23.24 82.0252 23.24C81.4952 23.24 80.9752 23.19 80.4652 23.09C79.9652 23 79.4802 22.87 79.0102 22.7C78.5502 22.53 78.1202 22.33 77.7202 22.1C77.3302 21.87 76.9852 21.62 76.6852 21.35L77.5402 19.94C77.6502 19.77 77.7802 19.64 77.9302 19.55C78.0802 19.46 78.2702 19.415 78.5002 19.415C78.7302 19.415 78.9452 19.48 79.1452 19.61C79.3552 19.74 79.5952 19.88 79.8652 20.03C80.1352 20.18 80.4502 20.32 80.8102 20.45C81.1802 20.58 81.6452 20.645 82.2052 20.645C82.6452 20.645 83.0202 20.595 83.3302 20.495C83.6502 20.385 83.9102 20.245 84.1102 20.075C84.3202 19.905 84.4702 19.71 84.5602 19.49C84.6602 19.26 84.7102 19.025 84.7102 18.785C84.7102 18.425 84.6002 18.13 84.3802 17.9C84.1702 17.67 83.8852 17.47 83.5252 17.3C83.1752 17.13 82.7702 16.98 82.3102 16.85C81.8602 16.71 81.3952 16.56 80.9152 16.4C80.4452 16.24 79.9802 16.055 79.5202 15.845C79.0702 15.625 78.6652 15.35 78.3052 15.02C77.9552 14.69 77.6702 14.285 77.4502 13.805C77.2402 13.325 77.1352 12.745 77.1352 12.065C77.1352 11.435 77.2602 10.835 77.5102 10.265C77.7602 9.695 78.1252 9.2 78.6052 8.78C79.0952 8.35 79.7002 8.01 80.4202 7.76C81.1502 7.5 81.9902 7.37 82.9402 7.37C84.0002 7.37 84.9652 7.545 85.8352 7.895C86.7052 8.245 87.4302 8.705 88.0102 9.275L87.1702 10.61ZM100.354 10.61C100.254 10.77 100.149 10.885 100.039 10.955C99.9288 11.015 99.7888 11.045 99.6188 11.045C99.4388 11.045 99.2438 10.995 99.0338 10.895C98.8338 10.795 98.5988 10.685 98.3288 10.565C98.0588 10.435 97.7488 10.32 97.3988 10.22C97.0588 10.12 96.6538 10.07 96.1838 10.07C95.4538 10.07 94.8788 10.225 94.4588 10.535C94.0488 10.845 93.8438 11.25 93.8438 11.75C93.8438 12.08 93.9488 12.36 94.1588 12.59C94.3788 12.81 94.6638 13.005 95.0138 13.175C95.3738 13.345 95.7788 13.5 96.2288 13.64C96.6788 13.77 97.1338 13.915 97.5938 14.075C98.0638 14.235 98.5238 14.42 98.9738 14.63C99.4238 14.83 99.8238 15.09 100.174 15.41C100.534 15.72 100.819 16.095 101.029 16.535C101.249 16.975 101.359 17.505 101.359 18.125C101.359 18.865 101.224 19.55 100.954 20.18C100.694 20.8 100.304 21.34 99.7838 21.8C99.2638 22.25 98.6188 22.605 97.8488 22.865C97.0888 23.115 96.2088 23.24 95.2088 23.24C94.6788 23.24 94.1588 23.19 93.6488 23.09C93.1488 23 92.6638 22.87 92.1938 22.7C91.7338 22.53 91.3038 22.33 90.9038 22.1C90.5138 21.87 90.1688 21.62 89.8688 21.35L90.7238 19.94C90.8338 19.77 90.9638 19.64 91.1138 19.55C91.2638 19.46 91.4538 19.415 91.6838 19.415C91.9138 19.415 92.1288 19.48 92.3288 19.61C92.5388 19.74 92.7788 19.88 93.0488 20.03C93.3188 20.18 93.6338 20.32 93.9938 20.45C94.3638 20.58 94.8288 20.645 95.3888 20.645C95.8288 20.645 96.2038 20.595 96.5138 20.495C96.8338 20.385 97.0938 20.245 97.2938 20.075C97.5038 19.905 97.6538 19.71 97.7438 19.49C97.8438 19.26 97.8938 19.025 97.8938 18.785C97.8938 18.425 97.7838 18.13 97.5638 17.9C97.3538 17.67 97.0688 17.47 96.7088 17.3C96.3588 17.13 95.9538 16.98 95.4938 16.85C95.0438 16.71 94.5788 16.56 94.0988 16.4C93.6288 16.24 93.1638 16.055 92.7038 15.845C92.2538 15.625 91.8488 15.35 91.4888 15.02C91.1388 14.69 90.8538 14.285 90.6338 13.805C90.4238 13.325 90.3188 12.745 90.3188 12.065C90.3188 11.435 90.4438 10.835 90.6938 10.265C90.9438 9.695 91.3088 9.2 91.7888 8.78C92.2788 8.35 92.8838 8.01 93.6038 7.76C94.3338 7.5 95.1738 7.37 96.1238 7.37C97.1838 7.37 98.1488 7.545 99.0188 7.895C99.8888 8.245 100.614 8.705 101.194 9.275L100.354 10.61ZM107.987 7.61V23H104.267V7.61H107.987ZM108.497 3.125C108.497 3.445 108.432 3.745 108.302 4.025C108.172 4.305 107.997 4.55 107.777 4.76C107.567 4.97 107.317 5.14 107.027 5.27C106.737 5.39 106.427 5.45 106.097 5.45C105.777 5.45 105.472 5.39 105.182 5.27C104.902 5.14 104.657 4.97 104.447 4.76C104.237 4.55 104.067 4.305 103.937 4.025C103.817 3.745 103.757 3.445 103.757 3.125C103.757 2.795 103.817 2.485 103.937 2.195C104.067 1.905 104.237 1.655 104.447 1.445C104.657 1.235 104.902 1.07 105.182 0.95C105.472 0.819999 105.777 0.754999 106.097 0.754999C106.427 0.754999 106.737 0.819999 107.027 0.95C107.317 1.07 107.567 1.235 107.777 1.445C107.997 1.655 108.172 1.905 108.302 2.195C108.432 2.485 108.497 2.795 108.497 3.125ZM125.64 7.61L119.535 23H116.175L110.07 7.61H113.13C113.41 7.61 113.64 7.675 113.82 7.805C114.01 7.935 114.135 8.1 114.195 8.3L117.165 16.52C117.325 17 117.465 17.47 117.585 17.93C117.705 18.39 117.81 18.85 117.9 19.31C118 18.85 118.11 18.39 118.23 17.93C118.35 17.47 118.495 17 118.665 16.52L121.695 8.3C121.765 8.1 121.89 7.935 122.07 7.805C122.25 7.675 122.465 7.61 122.715 7.61H125.64ZM137.06 13.535C137.06 13.055 136.99 12.605 136.85 12.185C136.72 11.755 136.52 11.38 136.25 11.06C135.98 10.74 135.635 10.49 135.215 10.31C134.805 10.12 134.325 10.025 133.775 10.025C132.705 10.025 131.86 10.33 131.24 10.94C130.63 11.55 130.24 12.415 130.07 13.535H137.06ZM129.995 15.77C130.055 16.56 130.195 17.245 130.415 17.825C130.635 18.395 130.925 18.87 131.285 19.25C131.645 19.62 132.07 19.9 132.56 20.09C133.06 20.27 133.61 20.36 134.21 20.36C134.81 20.36 135.325 20.29 135.755 20.15C136.195 20.01 136.575 19.855 136.895 19.685C137.225 19.515 137.51 19.36 137.75 19.22C138 19.08 138.24 19.01 138.47 19.01C138.78 19.01 139.01 19.125 139.16 19.355L140.225 20.705C139.815 21.185 139.355 21.59 138.845 21.92C138.335 22.24 137.8 22.5 137.24 22.7C136.69 22.89 136.125 23.025 135.545 23.105C134.975 23.185 134.42 23.225 133.88 23.225C132.81 23.225 131.815 23.05 130.895 22.7C129.975 22.34 129.175 21.815 128.495 21.125C127.815 20.425 127.28 19.565 126.89 18.545C126.5 17.515 126.305 16.325 126.305 14.975C126.305 13.925 126.475 12.94 126.815 12.02C127.155 11.09 127.64 10.285 128.27 9.605C128.91 8.915 129.685 8.37 130.595 7.97C131.515 7.57 132.55 7.37 133.7 7.37C134.67 7.37 135.565 7.525 136.385 7.835C137.205 8.145 137.91 8.6 138.5 9.2C139.09 9.79 139.55 10.52 139.88 11.39C140.22 12.25 140.39 13.235 140.39 14.345C140.39 14.905 140.33 15.285 140.21 15.485C140.09 15.675 139.86 15.77 139.52 15.77H129.995ZM158.101 12.215C158.841 12.215 159.486 12.125 160.036 11.945C160.586 11.755 161.041 11.49 161.401 11.15C161.771 10.8 162.046 10.38 162.226 9.89C162.406 9.39 162.496 8.835 162.496 8.225C162.496 7.645 162.406 7.12 162.226 6.65C162.046 6.18 161.776 5.78 161.416 5.45C161.056 5.12 160.601 4.87 160.051 4.7C159.501 4.52 158.851 4.43 158.101 4.43H155.086V12.215H158.101ZM158.101 1.31C159.551 1.31 160.806 1.48 161.866 1.82C162.926 2.16 163.801 2.635 164.491 3.245C165.181 3.855 165.691 4.585 166.021 5.435C166.361 6.285 166.531 7.215 166.531 8.225C166.531 9.275 166.356 10.24 166.006 11.12C165.656 11.99 165.131 12.74 164.431 13.37C163.731 14 162.851 14.49 161.791 14.84C160.741 15.19 159.511 15.365 158.101 15.365H155.086V23H151.051V1.31H158.101ZM172.731 0.709999V23H169.026V0.709999H172.731ZM184.553 16.43C183.483 16.48 182.583 16.575 181.853 16.715C181.123 16.845 180.538 17.015 180.098 17.225C179.658 17.435 179.343 17.68 179.153 17.96C178.963 18.24 178.868 18.545 178.868 18.875C178.868 19.525 179.058 19.99 179.438 20.27C179.828 20.55 180.333 20.69 180.953 20.69C181.713 20.69 182.368 20.555 182.918 20.285C183.478 20.005 184.023 19.585 184.553 19.025V16.43ZM176.063 9.755C177.833 8.135 179.963 7.325 182.453 7.325C183.353 7.325 184.158 7.475 184.868 7.775C185.578 8.065 186.178 8.475 186.668 9.005C187.158 9.525 187.528 10.15 187.778 10.88C188.038 11.61 188.168 12.41 188.168 13.28V23H186.488C186.138 23 185.868 22.95 185.678 22.85C185.488 22.74 185.338 22.525 185.228 22.205L184.898 21.095C184.508 21.445 184.128 21.755 183.758 22.025C183.388 22.285 183.003 22.505 182.603 22.685C182.203 22.865 181.773 23 181.313 23.09C180.863 23.19 180.363 23.24 179.813 23.24C179.163 23.24 178.563 23.155 178.013 22.985C177.463 22.805 176.988 22.54 176.588 22.19C176.188 21.84 175.878 21.405 175.658 20.885C175.438 20.365 175.328 19.76 175.328 19.07C175.328 18.68 175.393 18.295 175.523 17.915C175.653 17.525 175.863 17.155 176.153 16.805C176.453 16.455 176.838 16.125 177.308 15.815C177.778 15.505 178.353 15.235 179.033 15.005C179.723 14.775 180.523 14.59 181.433 14.45C182.343 14.3 183.383 14.21 184.553 14.18V13.28C184.553 12.25 184.333 11.49 183.893 11C183.453 10.5 182.818 10.25 181.988 10.25C181.388 10.25 180.888 10.32 180.488 10.46C180.098 10.6 179.753 10.76 179.453 10.94C179.153 11.11 178.878 11.265 178.628 11.405C178.388 11.545 178.118 11.615 177.818 11.615C177.558 11.615 177.338 11.55 177.158 11.42C176.978 11.28 176.833 11.12 176.723 10.94L176.063 9.755ZM202.837 23V10.385H196.132V18.725C196.132 19.205 196.247 19.58 196.477 19.85C196.717 20.12 197.042 20.255 197.452 20.255C197.682 20.255 197.872 20.23 198.022 20.18C198.182 20.12 198.317 20.06 198.427 20C198.547 19.94 198.652 19.885 198.742 19.835C198.832 19.775 198.922 19.745 199.012 19.745C199.122 19.745 199.212 19.775 199.282 19.835C199.352 19.885 199.427 19.965 199.507 20.075L200.617 21.875C200.077 22.325 199.457 22.665 198.757 22.895C198.057 23.125 197.332 23.24 196.582 23.24C195.242 23.24 194.212 22.865 193.492 22.115C192.782 21.355 192.427 20.31 192.427 18.98V10.385H190.852C190.652 10.385 190.482 10.32 190.342 10.19C190.202 10.06 190.132 9.865 190.132 9.605V8.135L192.607 7.73L193.387 3.53C193.437 3.33 193.532 3.175 193.672 3.065C193.812 2.955 193.992 2.9 194.212 2.9H196.132V7.745H202.837V6.605C202.837 5.725 202.967 4.935 203.227 4.235C203.497 3.535 203.877 2.94 204.367 2.45C204.867 1.96 205.472 1.585 206.182 1.325C206.892 1.065 207.692 0.934999 208.582 0.934999C209.292 0.934999 209.952 1.03 210.562 1.22L210.487 3.08C210.477 3.22 210.437 3.335 210.367 3.425C210.297 3.505 210.202 3.57 210.082 3.62C209.972 3.66 209.842 3.69 209.692 3.71C209.542 3.72 209.382 3.725 209.212 3.725C208.772 3.725 208.377 3.775 208.027 3.875C207.687 3.965 207.397 4.13 207.157 4.37C206.917 4.6 206.732 4.91 206.602 5.3C206.482 5.68 206.422 6.155 206.422 6.725V7.745H210.427V10.385H206.542V23H202.837ZM218.946 7.37C220.086 7.37 221.121 7.555 222.051 7.925C222.991 8.295 223.791 8.82 224.451 9.5C225.121 10.18 225.636 11.01 225.996 11.99C226.356 12.97 226.536 14.065 226.536 15.275C226.536 16.495 226.356 17.595 225.996 18.575C225.636 19.555 225.121 20.39 224.451 21.08C223.791 21.77 222.991 22.3 222.051 22.67C221.121 23.04 220.086 23.225 218.946 23.225C217.796 23.225 216.751 23.04 215.811 22.67C214.871 22.3 214.066 21.77 213.396 21.08C212.736 20.39 212.221 19.555 211.851 18.575C211.491 17.595 211.311 16.495 211.311 15.275C211.311 14.065 211.491 12.97 211.851 11.99C212.221 11.01 212.736 10.18 213.396 9.5C214.066 8.82 214.871 8.295 215.811 7.925C216.751 7.555 217.796 7.37 218.946 7.37ZM218.946 20.375C220.226 20.375 221.171 19.945 221.781 19.085C222.401 18.225 222.711 16.965 222.711 15.305C222.711 13.645 222.401 12.38 221.781 11.51C221.171 10.64 220.226 10.205 218.946 10.205C217.646 10.205 216.681 10.645 216.051 11.525C215.431 12.395 215.121 13.655 215.121 15.305C215.121 16.955 215.431 18.215 216.051 19.085C216.681 19.945 217.646 20.375 218.946 20.375ZM232.857 10.28C233.337 9.36 233.907 8.64 234.567 8.12C235.227 7.59 236.007 7.325 236.907 7.325C237.617 7.325 238.187 7.48 238.617 7.79L238.377 10.565C238.327 10.745 238.252 10.875 238.152 10.955C238.062 11.025 237.937 11.06 237.777 11.06C237.627 11.06 237.402 11.035 237.102 10.985C236.812 10.935 236.527 10.91 236.247 10.91C235.837 10.91 235.472 10.97 235.152 11.09C234.832 11.21 234.542 11.385 234.282 11.615C234.032 11.835 233.807 12.105 233.607 12.425C233.417 12.745 233.237 13.11 233.067 13.52V23H229.362V7.61H231.537C231.917 7.61 232.182 7.68 232.332 7.82C232.482 7.95 232.582 8.19 232.632 8.54L232.857 10.28ZM240.554 23V7.61H242.819C243.299 7.61 243.614 7.835 243.764 8.285L244.004 9.425C244.274 9.125 244.554 8.85 244.844 8.6C245.144 8.35 245.459 8.135 245.789 7.955C246.129 7.775 246.489 7.635 246.869 7.535C247.259 7.425 247.684 7.37 248.144 7.37C249.114 7.37 249.909 7.635 250.529 8.165C251.159 8.685 251.629 9.38 251.939 10.25C252.179 9.74 252.479 9.305 252.839 8.945C253.199 8.575 253.594 8.275 254.024 8.045C254.454 7.815 254.909 7.645 255.389 7.535C255.879 7.425 256.369 7.37 256.859 7.37C257.709 7.37 258.464 7.5 259.124 7.76C259.784 8.02 260.339 8.4 260.789 8.9C261.239 9.4 261.579 10.01 261.809 10.73C262.049 11.45 262.169 12.275 262.169 13.205V23H258.464V13.205C258.464 12.225 258.249 11.49 257.819 11C257.389 10.5 256.759 10.25 255.929 10.25C255.549 10.25 255.194 10.315 254.864 10.445C254.544 10.575 254.259 10.765 254.009 11.015C253.769 11.255 253.579 11.56 253.439 11.93C253.299 12.3 253.229 12.725 253.229 13.205V23H249.509V13.205C249.509 12.175 249.299 11.425 248.879 10.955C248.469 10.485 247.864 10.25 247.064 10.25C246.524 10.25 246.019 10.385 245.549 10.655C245.089 10.915 244.659 11.275 244.259 11.735V23H240.554ZM269.83 1.31V9.89C269.83 10.8 269.785 11.695 269.695 12.575C269.605 13.445 269.49 14.37 269.35 15.35H266.83C266.69 14.37 266.575 13.445 266.485 12.575C266.395 11.695 266.35 10.8 266.35 9.89V1.31H269.83ZM265.765 20.96C265.765 20.65 265.82 20.355 265.93 20.075C266.05 19.795 266.21 19.555 266.41 19.355C266.62 19.155 266.865 18.995 267.145 18.875C267.425 18.755 267.725 18.695 268.045 18.695C268.355 18.695 268.65 18.755 268.93 18.875C269.21 18.995 269.45 19.155 269.65 19.355C269.86 19.555 270.025 19.795 270.145 20.075C270.265 20.355 270.325 20.65 270.325 20.96C270.325 21.28 270.265 21.58 270.145 21.86C270.025 22.13 269.86 22.365 269.65 22.565C269.45 22.765 269.21 22.92 268.93 23.03C268.65 23.15 268.355 23.21 268.045 23.21C267.725 23.21 267.425 23.15 267.145 23.03C266.865 22.92 266.62 22.765 266.41 22.565C266.21 22.365 266.05 22.13 265.93 21.86C265.82 21.58 265.765 21.28 265.765 20.96Z" fill="#002845"/>
</svg>
