<svg width="333" height="54" viewBox="0 0 333 54" fill="none" xmlns="http://www.w3.org/2000/svg">
<path d="M5.61816 9.7625C6.31816 9.7625 6.93483 9.67917 7.46816 9.5125C8.00983 9.3375 8.45983 9.09583 8.81816 8.7875C9.18483 8.47083 9.45983 8.09583 9.64316 7.6625C9.8265 7.22917 9.91816 6.75 9.91816 6.225C9.91816 5.15833 9.56816 4.35417 8.86816 3.8125C8.16816 3.27083 7.11816 3 5.71816 3H3.06816V9.7625H5.61816ZM13.8932 19H11.7432C11.3015 19 10.9765 18.8292 10.7682 18.4875L6.11816 12.0875C5.9765 11.8875 5.82233 11.7458 5.65566 11.6625C5.49733 11.5708 5.24733 11.525 4.90566 11.525H3.06816V19H0.655664V1.0875H5.71816C6.8515 1.0875 7.83066 1.20417 8.65566 1.4375C9.48066 1.6625 10.1598 1.99167 10.6932 2.425C11.2348 2.85833 11.6348 3.38333 11.8932 4C12.1515 4.60833 12.2807 5.29167 12.2807 6.05C12.2807 6.68333 12.1807 7.275 11.9807 7.825C11.7807 8.375 11.489 8.87083 11.1057 9.3125C10.7307 9.74583 10.2682 10.1167 9.71816 10.425C9.1765 10.7333 8.55983 10.9667 7.86816 11.125C8.1765 11.3 8.44316 11.5542 8.66816 11.8875L13.8932 19ZM23.4738 11.2875C23.4738 10.7708 23.3988 10.3 23.2488 9.875C23.1072 9.44167 22.8947 9.07083 22.6113 8.7625C22.3363 8.44583 21.9988 8.20417 21.5988 8.0375C21.1988 7.8625 20.7447 7.775 20.2363 7.775C19.1697 7.775 18.3238 8.0875 17.6988 8.7125C17.0822 9.32917 16.6988 10.1875 16.5488 11.2875H23.4738ZM25.2738 17.225C24.9988 17.5583 24.6697 17.85 24.2863 18.1C23.903 18.3417 23.4905 18.5417 23.0488 18.7C22.6155 18.8583 22.1655 18.975 21.6988 19.05C21.2322 19.1333 20.7697 19.175 20.3113 19.175C19.4363 19.175 18.628 19.0292 17.8863 18.7375C17.153 18.4375 16.5155 18.0042 15.9738 17.4375C15.4405 16.8625 15.0238 16.1542 14.7238 15.3125C14.4238 14.4708 14.2738 13.5042 14.2738 12.4125C14.2738 11.5292 14.4072 10.7042 14.6738 9.9375C14.9488 9.17083 15.3405 8.50833 15.8488 7.95C16.3572 7.38333 16.978 6.94167 17.7113 6.625C18.4447 6.3 19.2697 6.1375 20.1863 6.1375C20.9447 6.1375 21.6447 6.26667 22.2863 6.525C22.9363 6.775 23.4947 7.14167 23.9613 7.625C24.4363 8.1 24.8072 8.69167 25.0738 9.4C25.3405 10.1 25.4738 10.9 25.4738 11.8C25.4738 12.15 25.4363 12.3833 25.3613 12.5C25.2863 12.6167 25.1447 12.675 24.9363 12.675H16.4738C16.4988 13.475 16.6072 14.1708 16.7988 14.7625C16.9988 15.3542 17.2738 15.85 17.6238 16.25C17.9738 16.6417 18.3905 16.9375 18.8738 17.1375C19.3572 17.3292 19.8988 17.425 20.4988 17.425C21.0572 17.425 21.5363 17.3625 21.9363 17.2375C22.3447 17.1042 22.6947 16.9625 22.9863 16.8125C23.278 16.6625 23.5197 16.525 23.7113 16.4C23.9113 16.2667 24.0822 16.2 24.2238 16.2C24.4072 16.2 24.5488 16.2708 24.6488 16.4125L25.2738 17.225ZM37.0193 8.5875C36.9527 8.67917 36.886 8.75 36.8193 8.8C36.7527 8.85 36.661 8.875 36.5443 8.875C36.4193 8.875 36.2818 8.825 36.1318 8.725C35.9818 8.61667 35.7943 8.5 35.5693 8.375C35.3527 8.25 35.0818 8.1375 34.7568 8.0375C34.4402 7.92917 34.0485 7.875 33.5818 7.875C32.9568 7.875 32.4068 7.9875 31.9318 8.2125C31.4568 8.42917 31.0568 8.74583 30.7318 9.1625C30.4152 9.57917 30.1735 10.0833 30.0068 10.675C29.8485 11.2667 29.7693 11.9292 29.7693 12.6625C29.7693 13.4292 29.8568 14.1125 30.0318 14.7125C30.2068 15.3042 30.4527 15.8042 30.7693 16.2125C31.0943 16.6125 31.4818 16.9208 31.9318 17.1375C32.3902 17.3458 32.9027 17.45 33.4693 17.45C34.011 17.45 34.4568 17.3875 34.8068 17.2625C35.1568 17.1292 35.4443 16.9833 35.6693 16.825C35.9027 16.6667 36.0943 16.525 36.2443 16.4C36.4027 16.2667 36.5568 16.2 36.7068 16.2C36.8902 16.2 37.0318 16.2708 37.1318 16.4125L37.7568 17.225C37.4818 17.5667 37.1693 17.8583 36.8193 18.1C36.4693 18.3417 36.0902 18.5458 35.6818 18.7125C35.2818 18.8708 34.861 18.9875 34.4193 19.0625C33.9777 19.1375 33.5277 19.175 33.0693 19.175C32.2777 19.175 31.5402 19.0292 30.8568 18.7375C30.1818 18.4458 29.5943 18.025 29.0943 17.475C28.5943 16.9167 28.2027 16.2333 27.9193 15.425C27.636 14.6167 27.4943 13.6958 27.4943 12.6625C27.4943 11.7208 27.6235 10.85 27.8818 10.05C28.1485 9.25 28.5318 8.5625 29.0318 7.9875C29.5402 7.40417 30.161 6.95 30.8943 6.625C31.636 6.3 32.486 6.1375 33.4443 6.1375C34.336 6.1375 35.1193 6.28333 35.7943 6.575C36.4777 6.85833 37.0818 7.2625 37.6068 7.7875L37.0193 8.5875ZM48.4006 11.2875C48.4006 10.7708 48.3256 10.3 48.1756 9.875C48.0339 9.44167 47.8214 9.07083 47.5381 8.7625C47.2631 8.44583 46.9256 8.20417 46.5256 8.0375C46.1256 7.8625 45.6714 7.775 45.1631 7.775C44.0964 7.775 43.2506 8.0875 42.6256 8.7125C42.0089 9.32917 41.6256 10.1875 41.4756 11.2875H48.4006ZM50.2006 17.225C49.9256 17.5583 49.5964 17.85 49.2131 18.1C48.8298 18.3417 48.4173 18.5417 47.9756 18.7C47.5423 18.8583 47.0923 18.975 46.6256 19.05C46.1589 19.1333 45.6964 19.175 45.2381 19.175C44.3631 19.175 43.5548 19.0292 42.8131 18.7375C42.0798 18.4375 41.4423 18.0042 40.9006 17.4375C40.3673 16.8625 39.9506 16.1542 39.6506 15.3125C39.3506 14.4708 39.2006 13.5042 39.2006 12.4125C39.2006 11.5292 39.3339 10.7042 39.6006 9.9375C39.8756 9.17083 40.2673 8.50833 40.7756 7.95C41.2839 7.38333 41.9048 6.94167 42.6381 6.625C43.3714 6.3 44.1964 6.1375 45.1131 6.1375C45.8714 6.1375 46.5714 6.26667 47.2131 6.525C47.8631 6.775 48.4214 7.14167 48.8881 7.625C49.3631 8.1 49.7339 8.69167 50.0006 9.4C50.2673 10.1 50.4006 10.9 50.4006 11.8C50.4006 12.15 50.3631 12.3833 50.2881 12.5C50.2131 12.6167 50.0714 12.675 49.8631 12.675H41.4006C41.4256 13.475 41.5339 14.1708 41.7256 14.7625C41.9256 15.3542 42.2006 15.85 42.5506 16.25C42.9006 16.6417 43.3173 16.9375 43.8006 17.1375C44.2839 17.3292 44.8256 17.425 45.4256 17.425C45.9839 17.425 46.4631 17.3625 46.8631 17.2375C47.2714 17.1042 47.6214 16.9625 47.9131 16.8125C48.2048 16.6625 48.4464 16.525 48.6381 16.4C48.8381 16.2667 49.0089 16.2 49.1506 16.2C49.3339 16.2 49.4756 16.2708 49.5756 16.4125L50.2006 17.225ZM55.2336 8.175C55.5086 7.86667 55.8003 7.5875 56.1086 7.3375C56.4169 7.0875 56.7419 6.875 57.0836 6.7C57.4336 6.51667 57.8003 6.37917 58.1836 6.2875C58.5753 6.1875 58.9961 6.1375 59.4461 6.1375C60.1378 6.1375 60.7461 6.25417 61.2711 6.4875C61.8044 6.7125 62.2461 7.0375 62.5961 7.4625C62.9544 7.87917 63.2253 8.38333 63.4086 8.975C63.5919 9.56667 63.6836 10.2208 63.6836 10.9375V19H61.4461V10.9375C61.4461 9.97917 61.2253 9.2375 60.7836 8.7125C60.3503 8.17917 59.6878 7.9125 58.7961 7.9125C58.1378 7.9125 57.5211 8.07083 56.9461 8.3875C56.3794 8.70417 55.8544 9.13333 55.3711 9.675V19H53.1336V6.3375H54.4711C54.7878 6.3375 54.9836 6.49167 55.0586 6.8L55.2336 8.175ZM70.7906 19.2C69.7906 19.2 69.0198 18.9208 68.4781 18.3625C67.9448 17.8042 67.6781 17 67.6781 15.95V8.2H66.1531C66.0198 8.2 65.9073 8.1625 65.8156 8.0875C65.724 8.00417 65.6781 7.87917 65.6781 7.7125V6.825L67.7531 6.5625L68.2656 2.65C68.2906 2.525 68.3448 2.425 68.4281 2.35C68.5198 2.26667 68.6365 2.225 68.7781 2.225H69.9031V6.5875H73.5656V8.2H69.9031V15.8C69.9031 16.3333 70.0323 16.7292 70.2906 16.9875C70.549 17.2458 70.8823 17.375 71.2906 17.375C71.524 17.375 71.724 17.3458 71.8906 17.2875C72.0656 17.2208 72.2156 17.15 72.3406 17.075C72.4656 17 72.5698 16.9333 72.6531 16.875C72.7448 16.8083 72.824 16.775 72.8906 16.775C73.0073 16.775 73.1115 16.8458 73.2031 16.9875L73.8531 18.05C73.4698 18.4083 73.0073 18.6917 72.4656 18.9C71.924 19.1 71.3656 19.2 70.7906 19.2ZM78.1631 0.587499V19H75.9381V0.587499H78.1631ZM92.6963 6.3375L85.6338 22.7375C85.5588 22.9042 85.463 23.0375 85.3463 23.1375C85.238 23.2375 85.0671 23.2875 84.8338 23.2875H83.1838L85.4963 18.2625L80.2713 6.3375H82.1963C82.388 6.3375 82.538 6.3875 82.6463 6.4875C82.763 6.57917 82.8421 6.68333 82.8838 6.8L86.2713 14.775C86.4046 15.125 86.5171 15.4917 86.6088 15.875C86.7255 15.4833 86.8505 15.1125 86.9838 14.7625L90.2713 6.8C90.3213 6.66667 90.4046 6.55833 90.5213 6.475C90.6463 6.38333 90.7838 6.3375 90.9338 6.3375H92.6963ZM102.798 6.3375V19.9375C102.798 20.4458 102.731 20.9167 102.598 21.35C102.465 21.7917 102.252 22.175 101.961 22.5C101.669 22.825 101.294 23.0792 100.836 23.2625C100.386 23.4542 99.8439 23.55 99.2105 23.55C98.9439 23.55 98.698 23.5292 98.473 23.4875C98.248 23.4458 98.023 23.3833 97.798 23.3L97.8855 22.1C97.9022 22.025 97.9314 21.9667 97.973 21.925C98.0064 21.8917 98.0564 21.8708 98.123 21.8625C98.1897 21.8542 98.2772 21.85 98.3855 21.85C98.4855 21.8583 98.6147 21.8625 98.773 21.8625C99.423 21.8625 99.8855 21.7083 100.161 21.4C100.436 21.1 100.573 20.6125 100.573 19.9375V6.3375H102.798ZM103.261 2.3625C103.261 2.57917 103.215 2.78333 103.123 2.975C103.04 3.15833 102.923 3.325 102.773 3.475C102.631 3.61667 102.465 3.72917 102.273 3.8125C102.081 3.89583 101.877 3.9375 101.661 3.9375C101.444 3.9375 101.24 3.89583 101.048 3.8125C100.865 3.72917 100.702 3.61667 100.561 3.475C100.419 3.325 100.306 3.15833 100.223 2.975C100.14 2.78333 100.098 2.57917 100.098 2.3625C100.098 2.14583 100.14 1.94167 100.223 1.75C100.306 1.55 100.419 1.37917 100.561 1.2375C100.702 1.0875 100.865 0.970833 101.048 0.887498C101.24 0.804165 101.444 0.762499 101.661 0.762499C101.877 0.762499 102.081 0.804165 102.273 0.887498C102.465 0.970833 102.631 1.0875 102.773 1.2375C102.923 1.37917 103.04 1.55 103.123 1.75C103.215 1.94167 103.261 2.14583 103.261 2.3625ZM111.791 6.1375C112.716 6.1375 113.55 6.29167 114.291 6.6C115.033 6.90833 115.666 7.34583 116.191 7.9125C116.716 8.47917 117.116 9.16667 117.391 9.975C117.675 10.775 117.816 11.6708 117.816 12.6625C117.816 13.6625 117.675 14.5625 117.391 15.3625C117.116 16.1625 116.716 16.8458 116.191 17.4125C115.666 17.9792 115.033 18.4167 114.291 18.725C113.55 19.025 112.716 19.175 111.791 19.175C110.858 19.175 110.016 19.025 109.266 18.725C108.525 18.4167 107.891 17.9792 107.366 17.4125C106.841 16.8458 106.437 16.1625 106.154 15.3625C105.879 14.5625 105.741 13.6625 105.741 12.6625C105.741 11.6708 105.879 10.775 106.154 9.975C106.437 9.16667 106.841 8.47917 107.366 7.9125C107.891 7.34583 108.525 6.90833 109.266 6.6C110.016 6.29167 110.858 6.1375 111.791 6.1375ZM111.791 17.4375C113.041 17.4375 113.975 17.0208 114.591 16.1875C115.208 15.3458 115.516 14.175 115.516 12.675C115.516 11.1667 115.208 9.99167 114.591 9.15C113.975 8.30833 113.041 7.8875 111.791 7.8875C111.158 7.8875 110.604 7.99583 110.129 8.2125C109.662 8.42917 109.271 8.74167 108.954 9.15C108.646 9.55833 108.412 10.0625 108.254 10.6625C108.104 11.2542 108.029 11.925 108.029 12.675C108.029 14.175 108.337 15.3458 108.954 16.1875C109.579 17.0208 110.525 17.4375 111.791 17.4375ZM122.988 6.3375V19H120.763V6.3375H122.988ZM123.463 2.3625C123.463 2.57917 123.418 2.78333 123.326 2.975C123.243 3.15833 123.126 3.325 122.976 3.475C122.834 3.61667 122.663 3.72917 122.463 3.8125C122.272 3.89583 122.068 3.9375 121.851 3.9375C121.634 3.9375 121.43 3.89583 121.238 3.8125C121.055 3.72917 120.893 3.61667 120.751 3.475C120.609 3.325 120.497 3.15833 120.413 2.975C120.33 2.78333 120.288 2.57917 120.288 2.3625C120.288 2.14583 120.33 1.94167 120.413 1.75C120.497 1.55 120.609 1.37917 120.751 1.2375C120.893 1.0875 121.055 0.970833 121.238 0.887498C121.43 0.804165 121.634 0.762499 121.851 0.762499C122.068 0.762499 122.272 0.804165 122.463 0.887498C122.663 0.970833 122.834 1.0875 122.976 1.2375C123.126 1.37917 123.243 1.55 123.326 1.75C123.418 1.94167 123.463 2.14583 123.463 2.3625ZM128.744 8.175C129.019 7.86667 129.311 7.5875 129.619 7.3375C129.928 7.0875 130.253 6.875 130.594 6.7C130.944 6.51667 131.311 6.37917 131.694 6.2875C132.086 6.1875 132.507 6.1375 132.957 6.1375C133.649 6.1375 134.257 6.25417 134.782 6.4875C135.315 6.7125 135.757 7.0375 136.107 7.4625C136.465 7.87917 136.736 8.38333 136.919 8.975C137.103 9.56667 137.194 10.2208 137.194 10.9375V19H134.957V10.9375C134.957 9.97917 134.736 9.2375 134.294 8.7125C133.861 8.17917 133.199 7.9125 132.307 7.9125C131.649 7.9125 131.032 8.07083 130.457 8.3875C129.89 8.70417 129.365 9.13333 128.882 9.675V19H126.644V6.3375H127.982C128.299 6.3375 128.494 6.49167 128.569 6.8L128.744 8.175ZM149.06 11.2875C149.06 10.7708 148.985 10.3 148.835 9.875C148.693 9.44167 148.481 9.07083 148.197 8.7625C147.922 8.44583 147.585 8.20417 147.185 8.0375C146.785 7.8625 146.331 7.775 145.822 7.775C144.756 7.775 143.91 8.0875 143.285 8.7125C142.668 9.32917 142.285 10.1875 142.135 11.2875H149.06ZM150.86 17.225C150.585 17.5583 150.256 17.85 149.872 18.1C149.489 18.3417 149.076 18.5417 148.635 18.7C148.201 18.8583 147.751 18.975 147.285 19.05C146.818 19.1333 146.356 19.175 145.897 19.175C145.022 19.175 144.214 19.0292 143.472 18.7375C142.739 18.4375 142.101 18.0042 141.56 17.4375C141.026 16.8625 140.61 16.1542 140.31 15.3125C140.01 14.4708 139.86 13.5042 139.86 12.4125C139.86 11.5292 139.993 10.7042 140.26 9.9375C140.535 9.17083 140.926 8.50833 141.435 7.95C141.943 7.38333 142.564 6.94167 143.297 6.625C144.031 6.3 144.856 6.1375 145.772 6.1375C146.531 6.1375 147.231 6.26667 147.872 6.525C148.522 6.775 149.081 7.14167 149.547 7.625C150.022 8.1 150.393 8.69167 150.66 9.4C150.926 10.1 151.06 10.9 151.06 11.8C151.06 12.15 151.022 12.3833 150.947 12.5C150.872 12.6167 150.731 12.675 150.522 12.675H142.06C142.085 13.475 142.193 14.1708 142.385 14.7625C142.585 15.3542 142.86 15.85 143.21 16.25C143.56 16.6417 143.976 16.9375 144.46 17.1375C144.943 17.3292 145.485 17.425 146.085 17.425C146.643 17.425 147.122 17.3625 147.522 17.2375C147.931 17.1042 148.281 16.9625 148.572 16.8125C148.864 16.6625 149.106 16.525 149.297 16.4C149.497 16.2667 149.668 16.2 149.81 16.2C149.993 16.2 150.135 16.2708 150.235 16.4125L150.86 17.225ZM162.043 9.35C161.626 8.79167 161.176 8.40417 160.693 8.1875C160.209 7.9625 159.668 7.85 159.068 7.85C157.893 7.85 156.989 8.27083 156.355 9.1125C155.722 9.95417 155.405 11.1542 155.405 12.7125C155.405 13.5375 155.476 14.2458 155.618 14.8375C155.759 15.4208 155.968 15.9042 156.243 16.2875C156.518 16.6625 156.855 16.9375 157.255 17.1125C157.655 17.2875 158.109 17.375 158.618 17.375C159.351 17.375 159.989 17.2083 160.53 16.875C161.08 16.5417 161.584 16.0708 162.043 15.4625V9.35ZM164.268 0.587499V19H162.943C162.626 19 162.426 18.8458 162.343 18.5375L162.143 17C161.601 17.65 160.984 18.175 160.293 18.575C159.601 18.975 158.801 19.175 157.893 19.175C157.168 19.175 156.509 19.0375 155.918 18.7625C155.326 18.4792 154.822 18.0667 154.405 17.525C153.989 16.9833 153.668 16.3083 153.443 15.5C153.218 14.6917 153.105 13.7625 153.105 12.7125C153.105 11.7792 153.23 10.9125 153.48 10.1125C153.73 9.30417 154.089 8.60417 154.555 8.0125C155.022 7.42083 155.593 6.95833 156.268 6.625C156.951 6.28333 157.718 6.1125 158.568 6.1125C159.343 6.1125 160.005 6.24583 160.555 6.5125C161.114 6.77083 161.609 7.13333 162.043 7.6V0.587499H164.268ZM180.991 17.075C181.683 17.075 182.279 16.9958 182.779 16.8375C183.279 16.6792 183.687 16.4583 184.004 16.175C184.329 15.8833 184.566 15.5417 184.716 15.15C184.866 14.75 184.941 14.3125 184.941 13.8375C184.941 12.9125 184.612 12.1833 183.954 11.65C183.295 11.1083 182.308 10.8375 180.991 10.8375H177.116V17.075H180.991ZM177.116 3V9.1125H180.316C180.999 9.1125 181.591 9.0375 182.091 8.8875C182.599 8.7375 183.016 8.52917 183.341 8.2625C183.674 7.99583 183.92 7.675 184.079 7.3C184.237 6.91667 184.316 6.5 184.316 6.05C184.316 4.99167 183.999 4.22083 183.366 3.7375C182.733 3.24583 181.749 3 180.416 3H177.116ZM180.416 1.0875C181.516 1.0875 182.462 1.19583 183.254 1.4125C184.054 1.62917 184.708 1.9375 185.216 2.3375C185.733 2.7375 186.112 3.22917 186.354 3.8125C186.595 4.3875 186.716 5.0375 186.716 5.7625C186.716 6.20417 186.645 6.62917 186.504 7.0375C186.37 7.4375 186.166 7.8125 185.891 8.1625C185.616 8.5125 185.266 8.82917 184.841 9.1125C184.424 9.3875 183.933 9.6125 183.366 9.7875C184.683 10.0375 185.67 10.5083 186.329 11.2C186.995 11.8833 187.329 12.7833 187.329 13.9C187.329 14.6583 187.187 15.35 186.904 15.975C186.629 16.6 186.22 17.1375 185.679 17.5875C185.145 18.0375 184.487 18.3875 183.704 18.6375C182.92 18.8792 182.029 19 181.029 19H174.704V1.0875H180.416ZM192.185 8.875C192.585 8.00833 193.076 7.33333 193.66 6.85C194.243 6.35833 194.955 6.1125 195.797 6.1125C196.064 6.1125 196.318 6.14167 196.56 6.2C196.81 6.25833 197.03 6.35 197.222 6.475L197.06 8.1375C197.01 8.34583 196.885 8.45 196.685 8.45C196.568 8.45 196.397 8.425 196.172 8.375C195.947 8.325 195.693 8.3 195.41 8.3C195.01 8.3 194.651 8.35833 194.335 8.475C194.026 8.59167 193.747 8.76667 193.497 9C193.255 9.225 193.035 9.50833 192.835 9.85C192.643 10.1833 192.468 10.5667 192.31 11V19H190.072V6.3375H191.347C191.589 6.3375 191.755 6.38333 191.847 6.475C191.939 6.56667 192.001 6.725 192.035 6.95L192.185 8.875ZM201.529 6.3375V19H199.304V6.3375H201.529ZM202.004 2.3625C202.004 2.57917 201.958 2.78333 201.866 2.975C201.783 3.15833 201.666 3.325 201.516 3.475C201.374 3.61667 201.204 3.72917 201.004 3.8125C200.812 3.89583 200.608 3.9375 200.391 3.9375C200.174 3.9375 199.97 3.89583 199.779 3.8125C199.595 3.72917 199.433 3.61667 199.291 3.475C199.149 3.325 199.037 3.15833 198.954 2.975C198.87 2.78333 198.829 2.57917 198.829 2.3625C198.829 2.14583 198.87 1.94167 198.954 1.75C199.037 1.55 199.149 1.37917 199.291 1.2375C199.433 1.0875 199.595 0.970833 199.779 0.887498C199.97 0.804165 200.174 0.762499 200.391 0.762499C200.608 0.762499 200.812 0.804165 201.004 0.887498C201.204 0.970833 201.374 1.0875 201.516 1.2375C201.666 1.37917 201.783 1.55 201.866 1.75C201.958 1.94167 202.004 2.14583 202.004 2.3625ZM213.997 8.5875C213.93 8.67917 213.864 8.75 213.797 8.8C213.73 8.85 213.639 8.875 213.522 8.875C213.397 8.875 213.259 8.825 213.109 8.725C212.959 8.61667 212.772 8.5 212.547 8.375C212.33 8.25 212.059 8.1375 211.734 8.0375C211.418 7.92917 211.026 7.875 210.559 7.875C209.934 7.875 209.384 7.9875 208.909 8.2125C208.434 8.42917 208.034 8.74583 207.709 9.1625C207.393 9.57917 207.151 10.0833 206.984 10.675C206.826 11.2667 206.747 11.9292 206.747 12.6625C206.747 13.4292 206.834 14.1125 207.009 14.7125C207.184 15.3042 207.43 15.8042 207.747 16.2125C208.072 16.6125 208.459 16.9208 208.909 17.1375C209.368 17.3458 209.88 17.45 210.447 17.45C210.989 17.45 211.434 17.3875 211.784 17.2625C212.134 17.1292 212.422 16.9833 212.647 16.825C212.88 16.6667 213.072 16.525 213.222 16.4C213.38 16.2667 213.534 16.2 213.684 16.2C213.868 16.2 214.009 16.2708 214.109 16.4125L214.734 17.225C214.459 17.5667 214.147 17.8583 213.797 18.1C213.447 18.3417 213.068 18.5458 212.659 18.7125C212.259 18.8708 211.839 18.9875 211.397 19.0625C210.955 19.1375 210.505 19.175 210.047 19.175C209.255 19.175 208.518 19.0292 207.834 18.7375C207.159 18.4458 206.572 18.025 206.072 17.475C205.572 16.9167 205.18 16.2333 204.897 15.425C204.614 14.6167 204.472 13.6958 204.472 12.6625C204.472 11.7208 204.601 10.85 204.859 10.05C205.126 9.25 205.509 8.5625 206.009 7.9875C206.518 7.40417 207.139 6.95 207.872 6.625C208.614 6.3 209.464 6.1375 210.422 6.1375C211.314 6.1375 212.097 6.28333 212.772 6.575C213.455 6.85833 214.059 7.2625 214.584 7.7875L213.997 8.5875ZM219.36 0.587499V11.425H219.935C220.102 11.425 220.24 11.4042 220.348 11.3625C220.465 11.3125 220.585 11.2167 220.71 11.075L224.71 6.7875C224.827 6.64583 224.948 6.5375 225.073 6.4625C225.206 6.37917 225.381 6.3375 225.598 6.3375H227.61L222.948 11.3C222.723 11.5833 222.481 11.8042 222.223 11.9625C222.373 12.0625 222.506 12.1792 222.623 12.3125C222.748 12.4375 222.865 12.5833 222.973 12.75L227.923 19H225.935C225.744 19 225.577 18.9708 225.435 18.9125C225.302 18.8458 225.185 18.7292 225.085 18.5625L220.923 13.375C220.798 13.2 220.673 13.0875 220.548 13.0375C220.431 12.9792 220.248 12.95 219.998 12.95H219.36V19H217.123V0.587499H219.36ZM236.631 17.075C237.322 17.075 237.918 16.9958 238.418 16.8375C238.918 16.6792 239.326 16.4583 239.643 16.175C239.968 15.8833 240.206 15.5417 240.356 15.15C240.506 14.75 240.581 14.3125 240.581 13.8375C240.581 12.9125 240.251 12.1833 239.593 11.65C238.935 11.1083 237.947 10.8375 236.631 10.8375H232.756V17.075H236.631ZM232.756 3V9.1125H235.956C236.639 9.1125 237.231 9.0375 237.731 8.8875C238.239 8.7375 238.656 8.52917 238.981 8.2625C239.314 7.99583 239.56 7.675 239.718 7.3C239.876 6.91667 239.956 6.5 239.956 6.05C239.956 4.99167 239.639 4.22083 239.006 3.7375C238.372 3.24583 237.389 3 236.056 3H232.756ZM236.056 1.0875C237.156 1.0875 238.101 1.19583 238.893 1.4125C239.693 1.62917 240.347 1.9375 240.856 2.3375C241.372 2.7375 241.751 3.22917 241.993 3.8125C242.235 4.3875 242.356 5.0375 242.356 5.7625C242.356 6.20417 242.285 6.62917 242.143 7.0375C242.01 7.4375 241.806 7.8125 241.531 8.1625C241.256 8.5125 240.906 8.82917 240.481 9.1125C240.064 9.3875 239.572 9.6125 239.006 9.7875C240.322 10.0375 241.31 10.5083 241.968 11.2C242.635 11.8833 242.968 12.7833 242.968 13.9C242.968 14.6583 242.826 15.35 242.543 15.975C242.268 16.6 241.86 17.1375 241.318 17.5875C240.785 18.0375 240.126 18.3875 239.343 18.6375C238.56 18.8792 237.668 19 236.668 19H230.343V1.0875H236.056ZM254.26 11.2875C254.26 10.7708 254.185 10.3 254.035 9.875C253.893 9.44167 253.681 9.07083 253.397 8.7625C253.122 8.44583 252.785 8.20417 252.385 8.0375C251.985 7.8625 251.531 7.775 251.022 7.775C249.956 7.775 249.11 8.0875 248.485 8.7125C247.868 9.32917 247.485 10.1875 247.335 11.2875H254.26ZM256.06 17.225C255.785 17.5583 255.456 17.85 255.072 18.1C254.689 18.3417 254.277 18.5417 253.835 18.7C253.402 18.8583 252.952 18.975 252.485 19.05C252.018 19.1333 251.556 19.175 251.097 19.175C250.222 19.175 249.414 19.0292 248.672 18.7375C247.939 18.4375 247.302 18.0042 246.76 17.4375C246.227 16.8625 245.81 16.1542 245.51 15.3125C245.21 14.4708 245.06 13.5042 245.06 12.4125C245.06 11.5292 245.193 10.7042 245.46 9.9375C245.735 9.17083 246.127 8.50833 246.635 7.95C247.143 7.38333 247.764 6.94167 248.497 6.625C249.231 6.3 250.056 6.1375 250.972 6.1375C251.731 6.1375 252.431 6.26667 253.072 6.525C253.722 6.775 254.281 7.14167 254.747 7.625C255.222 8.1 255.593 8.69167 255.86 9.4C256.127 10.1 256.26 10.9 256.26 11.8C256.26 12.15 256.222 12.3833 256.147 12.5C256.072 12.6167 255.931 12.675 255.722 12.675H247.26C247.285 13.475 247.393 14.1708 247.585 14.7625C247.785 15.3542 248.06 15.85 248.41 16.25C248.76 16.6417 249.177 16.9375 249.66 17.1375C250.143 17.3292 250.685 17.425 251.285 17.425C251.843 17.425 252.322 17.3625 252.722 17.2375C253.131 17.1042 253.481 16.9625 253.772 16.8125C254.064 16.6625 254.306 16.525 254.497 16.4C254.697 16.2667 254.868 16.2 255.01 16.2C255.193 16.2 255.335 16.2708 255.435 16.4125L256.06 17.225ZM261.105 8.875C261.505 8.00833 261.997 7.33333 262.58 6.85C263.164 6.35833 263.876 6.1125 264.718 6.1125C264.985 6.1125 265.239 6.14167 265.48 6.2C265.73 6.25833 265.951 6.35 266.143 6.475L265.98 8.1375C265.93 8.34583 265.805 8.45 265.605 8.45C265.489 8.45 265.318 8.425 265.093 8.375C264.868 8.325 264.614 8.3 264.33 8.3C263.93 8.3 263.572 8.35833 263.255 8.475C262.947 8.59167 262.668 8.76667 262.418 9C262.176 9.225 261.955 9.50833 261.755 9.85C261.564 10.1833 261.389 10.5667 261.23 11V19H258.993V6.3375H260.268C260.51 6.3375 260.676 6.38333 260.768 6.475C260.86 6.56667 260.922 6.725 260.955 6.95L261.105 8.875ZM270.212 8.875C270.612 8.00833 271.104 7.33333 271.687 6.85C272.27 6.35833 272.983 6.1125 273.824 6.1125C274.091 6.1125 274.345 6.14167 274.587 6.2C274.837 6.25833 275.058 6.35 275.249 6.475L275.087 8.1375C275.037 8.34583 274.912 8.45 274.712 8.45C274.595 8.45 274.424 8.425 274.199 8.375C273.974 8.325 273.72 8.3 273.437 8.3C273.037 8.3 272.679 8.35833 272.362 8.475C272.054 8.59167 271.774 8.76667 271.524 9C271.283 9.225 271.062 9.50833 270.862 9.85C270.67 10.1833 270.495 10.5667 270.337 11V19H268.099V6.3375H269.374C269.616 6.3375 269.783 6.38333 269.874 6.475C269.966 6.56667 270.029 6.725 270.062 6.95L270.212 8.875ZM288.131 6.3375L281.068 22.7375C280.993 22.9042 280.898 23.0375 280.781 23.1375C280.673 23.2375 280.502 23.2875 280.268 23.2875H278.618L280.931 18.2625L275.706 6.3375H277.631C277.823 6.3375 277.973 6.3875 278.081 6.4875C278.198 6.57917 278.277 6.68333 278.318 6.8L281.706 14.775C281.839 15.125 281.952 15.4917 282.043 15.875C282.16 15.4833 282.285 15.1125 282.418 14.7625L285.706 6.8C285.756 6.66667 285.839 6.55833 285.956 6.475C286.081 6.38333 286.218 6.3375 286.368 6.3375H288.131ZM302.745 13.3C301.72 13.3333 300.845 13.4167 300.12 13.55C299.403 13.675 298.816 13.8417 298.358 14.05C297.908 14.2583 297.578 14.5042 297.37 14.7875C297.17 15.0708 297.07 15.3875 297.07 15.7375C297.07 16.0708 297.124 16.3583 297.233 16.6C297.341 16.8417 297.487 17.0417 297.67 17.2C297.862 17.35 298.083 17.4625 298.333 17.5375C298.591 17.6042 298.866 17.6375 299.158 17.6375C299.549 17.6375 299.908 17.6 300.233 17.525C300.558 17.4417 300.862 17.325 301.145 17.175C301.437 17.025 301.712 16.8458 301.97 16.6375C302.237 16.4292 302.495 16.1917 302.745 15.925V13.3ZM295.558 8.125C296.258 7.45 297.012 6.94583 297.82 6.6125C298.628 6.27917 299.524 6.1125 300.508 6.1125C301.216 6.1125 301.845 6.22917 302.395 6.4625C302.945 6.69583 303.408 7.02083 303.783 7.4375C304.158 7.85417 304.441 8.35833 304.633 8.95C304.824 9.54167 304.92 10.1917 304.92 10.9V19H303.933C303.716 19 303.549 18.9667 303.433 18.9C303.316 18.825 303.224 18.6833 303.158 18.475L302.908 17.275C302.574 17.5833 302.249 17.8583 301.933 18.1C301.616 18.3333 301.283 18.5333 300.933 18.7C300.583 18.8583 300.208 18.9792 299.808 19.0625C299.416 19.1542 298.978 19.2 298.495 19.2C298.003 19.2 297.541 19.1333 297.108 19C296.674 18.8583 296.295 18.65 295.97 18.375C295.653 18.1 295.399 17.7542 295.208 17.3375C295.024 16.9125 294.933 16.4125 294.933 15.8375C294.933 15.3375 295.07 14.8583 295.345 14.4C295.62 13.9333 296.066 13.5208 296.683 13.1625C297.299 12.8042 298.103 12.5125 299.095 12.2875C300.087 12.0542 301.303 11.9208 302.745 11.8875V10.9C302.745 9.91667 302.533 9.175 302.108 8.675C301.683 8.16667 301.062 7.9125 300.245 7.9125C299.695 7.9125 299.233 7.98333 298.858 8.125C298.491 8.25833 298.17 8.4125 297.895 8.5875C297.628 8.75417 297.395 8.90833 297.195 9.05C297.003 9.18333 296.812 9.25 296.62 9.25C296.47 9.25 296.341 9.2125 296.233 9.1375C296.124 9.05417 296.033 8.95417 295.958 8.8375L295.558 8.125ZM310.409 8.175C310.684 7.86667 310.976 7.5875 311.284 7.3375C311.593 7.0875 311.918 6.875 312.259 6.7C312.609 6.51667 312.976 6.37917 313.359 6.2875C313.751 6.1875 314.172 6.1375 314.622 6.1375C315.314 6.1375 315.922 6.25417 316.447 6.4875C316.98 6.7125 317.422 7.0375 317.772 7.4625C318.13 7.87917 318.401 8.38333 318.584 8.975C318.768 9.56667 318.859 10.2208 318.859 10.9375V19H316.622V10.9375C316.622 9.97917 316.401 9.2375 315.959 8.7125C315.526 8.17917 314.864 7.9125 313.972 7.9125C313.314 7.9125 312.697 8.07083 312.122 8.3875C311.555 8.70417 311.03 9.13333 310.547 9.675V19H308.309V6.3375H309.647C309.964 6.3375 310.159 6.49167 310.234 6.8L310.409 8.175ZM330.5 9.35C330.083 8.79167 329.633 8.40417 329.15 8.1875C328.666 7.9625 328.125 7.85 327.525 7.85C326.35 7.85 325.446 8.27083 324.812 9.1125C324.179 9.95417 323.862 11.1542 323.862 12.7125C323.862 13.5375 323.933 14.2458 324.075 14.8375C324.216 15.4208 324.425 15.9042 324.7 16.2875C324.975 16.6625 325.312 16.9375 325.712 17.1125C326.112 17.2875 326.566 17.375 327.075 17.375C327.808 17.375 328.446 17.2083 328.987 16.875C329.537 16.5417 330.041 16.0708 330.5 15.4625V9.35ZM332.725 0.587499V19H331.4C331.083 19 330.883 18.8458 330.8 18.5375L330.6 17C330.058 17.65 329.441 18.175 328.75 18.575C328.058 18.975 327.258 19.175 326.35 19.175C325.625 19.175 324.966 19.0375 324.375 18.7625C323.783 18.4792 323.279 18.0667 322.862 17.525C322.446 16.9833 322.125 16.3083 321.9 15.5C321.675 14.6917 321.562 13.7625 321.562 12.7125C321.562 11.7792 321.687 10.9125 321.937 10.1125C322.187 9.30417 322.546 8.60417 323.012 8.0125C323.479 7.42083 324.05 6.95833 324.725 6.625C325.408 6.28333 326.175 6.1125 327.025 6.1125C327.8 6.1125 328.462 6.24583 329.012 6.5125C329.571 6.77083 330.066 7.13333 330.5 7.6V0.587499H332.725ZM0.130664 49V36.3375H1.46816C1.78483 36.3375 1.98066 36.4917 2.05566 36.8L2.21816 38.1C2.68483 37.525 3.20983 37.0542 3.79316 36.6875C4.3765 36.3208 5.0515 36.1375 5.81816 36.1375C6.66816 36.1375 7.35566 36.375 7.88066 36.85C8.414 37.325 8.79733 37.9667 9.03066 38.775C9.214 38.3167 9.44733 37.9208 9.73066 37.5875C10.0223 37.2542 10.3473 36.9792 10.7057 36.7625C11.064 36.5458 11.4432 36.3875 11.8432 36.2875C12.2515 36.1875 12.664 36.1375 13.0807 36.1375C13.7473 36.1375 14.339 36.2458 14.8557 36.4625C15.3807 36.6708 15.8223 36.9792 16.1807 37.3875C16.5473 37.7958 16.8265 38.3 17.0182 38.9C17.2098 39.4917 17.3057 40.1708 17.3057 40.9375V49H15.0682V40.9375C15.0682 39.9458 14.8515 39.1958 14.4182 38.6875C13.9848 38.1708 13.3598 37.9125 12.5432 37.9125C12.1765 37.9125 11.8265 37.9792 11.4932 38.1125C11.1682 38.2375 10.8807 38.425 10.6307 38.675C10.3807 38.925 10.1807 39.2417 10.0307 39.625C9.889 40 9.81816 40.4375 9.81816 40.9375V49H7.58066V40.9375C7.58066 39.9208 7.3765 39.1625 6.96816 38.6625C6.55983 38.1625 5.964 37.9125 5.18066 37.9125C4.63066 37.9125 4.12233 38.0625 3.65566 38.3625C3.189 38.6542 2.75983 39.0542 2.36816 39.5625V49H0.130664ZM26.0248 36.1375C26.9498 36.1375 27.7831 36.2917 28.5248 36.6C29.2665 36.9083 29.8998 37.3458 30.4248 37.9125C30.9498 38.4792 31.3498 39.1667 31.6248 39.975C31.9081 40.775 32.0498 41.6708 32.0498 42.6625C32.0498 43.6625 31.9081 44.5625 31.6248 45.3625C31.3498 46.1625 30.9498 46.8458 30.4248 47.4125C29.8998 47.9792 29.2665 48.4167 28.5248 48.725C27.7831 49.025 26.9498 49.175 26.0248 49.175C25.0915 49.175 24.2498 49.025 23.4998 48.725C22.7581 48.4167 22.1248 47.9792 21.5998 47.4125C21.0748 46.8458 20.6706 46.1625 20.3873 45.3625C20.1123 44.5625 19.9748 43.6625 19.9748 42.6625C19.9748 41.6708 20.1123 40.775 20.3873 39.975C20.6706 39.1667 21.0748 38.4792 21.5998 37.9125C22.1248 37.3458 22.7581 36.9083 23.4998 36.6C24.2498 36.2917 25.0915 36.1375 26.0248 36.1375ZM26.0248 47.4375C27.2748 47.4375 28.2081 47.0208 28.8248 46.1875C29.4415 45.3458 29.7498 44.175 29.7498 42.675C29.7498 41.1667 29.4415 39.9917 28.8248 39.15C28.2081 38.3083 27.2748 37.8875 26.0248 37.8875C25.3915 37.8875 24.8373 37.9958 24.3623 38.2125C23.8956 38.4292 23.504 38.7417 23.1873 39.15C22.879 39.5583 22.6456 40.0625 22.4873 40.6625C22.3373 41.2542 22.2623 41.925 22.2623 42.675C22.2623 44.175 22.5706 45.3458 23.1873 46.1875C23.8123 47.0208 24.7581 47.4375 26.0248 47.4375ZM42.2469 38.425C42.1469 38.6083 41.9927 38.7 41.7844 38.7C41.6594 38.7 41.5177 38.6542 41.3594 38.5625C41.201 38.4708 41.0052 38.3708 40.7719 38.2625C40.5469 38.1458 40.276 38.0417 39.9594 37.95C39.6427 37.85 39.2677 37.8 38.8344 37.8C38.4594 37.8 38.1219 37.85 37.8219 37.95C37.5219 38.0417 37.2635 38.1708 37.0469 38.3375C36.8385 38.5042 36.676 38.7 36.5594 38.925C36.451 39.1417 36.3969 39.3792 36.3969 39.6375C36.3969 39.9625 36.4885 40.2333 36.6719 40.45C36.8635 40.6667 37.1135 40.8542 37.4219 41.0125C37.7302 41.1708 38.0802 41.3125 38.4719 41.4375C38.8635 41.5542 39.2635 41.6833 39.6719 41.825C40.0885 41.9583 40.4927 42.1083 40.8844 42.275C41.276 42.4417 41.626 42.65 41.9344 42.9C42.2427 43.15 42.4885 43.4583 42.6719 43.825C42.8635 44.1833 42.9594 44.6167 42.9594 45.125C42.9594 45.7083 42.8552 46.25 42.6469 46.75C42.4385 47.2417 42.1302 47.6708 41.7219 48.0375C41.3135 48.3958 40.8135 48.6792 40.2219 48.8875C39.6302 49.0958 38.9469 49.2 38.1719 49.2C37.2885 49.2 36.4885 49.0583 35.7719 48.775C35.0552 48.4833 34.4469 48.1125 33.9469 47.6625L34.4719 46.8125C34.5385 46.7042 34.6177 46.6208 34.7094 46.5625C34.801 46.5042 34.9177 46.475 35.0594 46.475C35.2094 46.475 35.3677 46.5333 35.5344 46.65C35.701 46.7667 35.901 46.8958 36.1344 47.0375C36.376 47.1792 36.6677 47.3083 37.0094 47.425C37.351 47.5417 37.776 47.6 38.2844 47.6C38.7177 47.6 39.0969 47.5458 39.4219 47.4375C39.7469 47.3208 40.0177 47.1667 40.2344 46.975C40.451 46.7833 40.6094 46.5625 40.7094 46.3125C40.8177 46.0625 40.8719 45.7958 40.8719 45.5125C40.8719 45.1625 40.776 44.875 40.5844 44.65C40.401 44.4167 40.1552 44.2208 39.8469 44.0625C39.5385 43.8958 39.1844 43.7542 38.7844 43.6375C38.3927 43.5125 37.9885 43.3833 37.5719 43.25C37.1635 43.1167 36.7594 42.9667 36.3594 42.8C35.9677 42.625 35.6177 42.4083 35.3094 42.15C35.001 41.8917 34.751 41.575 34.5594 41.2C34.376 40.8167 34.2844 40.3542 34.2844 39.8125C34.2844 39.3292 34.3844 38.8667 34.5844 38.425C34.7844 37.975 35.076 37.5833 35.4594 37.25C35.8427 36.9083 36.3135 36.6375 36.8719 36.4375C37.4302 36.2375 38.0677 36.1375 38.7844 36.1375C39.6177 36.1375 40.3635 36.2708 41.0219 36.5375C41.6885 36.7958 42.2635 37.1542 42.7469 37.6125L42.2469 38.425ZM49.5748 49.2C48.5748 49.2 47.804 48.9208 47.2623 48.3625C46.729 47.8042 46.4623 47 46.4623 45.95V38.2H44.9373C44.804 38.2 44.6915 38.1625 44.5998 38.0875C44.5081 38.0042 44.4623 37.8792 44.4623 37.7125V36.825L46.5373 36.5625L47.0498 32.65C47.0748 32.525 47.129 32.425 47.2123 32.35C47.304 32.2667 47.4206 32.225 47.5623 32.225H48.6873V36.5875H52.3498V38.2H48.6873V45.8C48.6873 46.3333 48.8165 46.7292 49.0748 46.9875C49.3331 47.2458 49.6665 47.375 50.0748 47.375C50.3081 47.375 50.5081 47.3458 50.6748 47.2875C50.8498 47.2208 50.9998 47.15 51.1248 47.075C51.2498 47 51.354 46.9333 51.4373 46.875C51.529 46.8083 51.6081 46.775 51.6748 46.775C51.7915 46.775 51.8956 46.8458 51.9873 46.9875L52.6373 48.05C52.254 48.4083 51.7915 48.6917 51.2498 48.9C50.7081 49.1 50.1498 49.2 49.5748 49.2ZM63.3938 36.3375V49H61.1688V36.3375H63.3938ZM63.8688 32.3625C63.8688 32.5792 63.8229 32.7833 63.7313 32.975C63.6479 33.1583 63.5313 33.325 63.3813 33.475C63.2396 33.6167 63.0688 33.7292 62.8688 33.8125C62.6771 33.8958 62.4729 33.9375 62.2563 33.9375C62.0396 33.9375 61.8354 33.8958 61.6438 33.8125C61.4604 33.7292 61.2979 33.6167 61.1563 33.475C61.0146 33.325 60.9021 33.1583 60.8188 32.975C60.7354 32.7833 60.6938 32.5792 60.6938 32.3625C60.6938 32.1458 60.7354 31.9417 60.8188 31.75C60.9021 31.55 61.0146 31.3792 61.1563 31.2375C61.2979 31.0875 61.4604 30.9708 61.6438 30.8875C61.8354 30.8042 62.0396 30.7625 62.2563 30.7625C62.4729 30.7625 62.6771 30.8042 62.8688 30.8875C63.0688 30.9708 63.2396 31.0875 63.3813 31.2375C63.5313 31.3792 63.6479 31.55 63.7313 31.75C63.8229 31.9417 63.8688 32.1458 63.8688 32.3625ZM67.0496 49V36.3375H68.3871C68.7038 36.3375 68.8996 36.4917 68.9746 36.8L69.1371 38.1C69.6038 37.525 70.1288 37.0542 70.7121 36.6875C71.2954 36.3208 71.9704 36.1375 72.7371 36.1375C73.5871 36.1375 74.2746 36.375 74.7996 36.85C75.3329 37.325 75.7163 37.9667 75.9496 38.775C76.1329 38.3167 76.3663 37.9208 76.6496 37.5875C76.9413 37.2542 77.2663 36.9792 77.6246 36.7625C77.9829 36.5458 78.3621 36.3875 78.7621 36.2875C79.1704 36.1875 79.5829 36.1375 79.9996 36.1375C80.6663 36.1375 81.2579 36.2458 81.7746 36.4625C82.2996 36.6708 82.7413 36.9792 83.0996 37.3875C83.4663 37.7958 83.7454 38.3 83.9371 38.9C84.1288 39.4917 84.2246 40.1708 84.2246 40.9375V49H81.9871V40.9375C81.9871 39.9458 81.7704 39.1958 81.3371 38.6875C80.9038 38.1708 80.2788 37.9125 79.4621 37.9125C79.0954 37.9125 78.7454 37.9792 78.4121 38.1125C78.0871 38.2375 77.7996 38.425 77.5496 38.675C77.2996 38.925 77.0996 39.2417 76.9496 39.625C76.8079 40 76.7371 40.4375 76.7371 40.9375V49H74.4996V40.9375C74.4996 39.9208 74.2954 39.1625 73.8871 38.6625C73.4788 38.1625 72.8829 37.9125 72.0996 37.9125C71.5496 37.9125 71.0413 38.0625 70.5746 38.3625C70.1079 38.6542 69.6788 39.0542 69.2871 39.5625V49H67.0496ZM89.8438 45.95C90.2521 46.5 90.6979 46.8875 91.1813 47.1125C91.6646 47.3375 92.2063 47.45 92.8063 47.45C93.9896 47.45 94.8979 47.0292 95.5313 46.1875C96.1646 45.3458 96.4813 44.1458 96.4813 42.5875C96.4813 41.7625 96.4063 41.0542 96.2563 40.4625C96.1146 39.8708 95.9063 39.3875 95.6313 39.0125C95.3563 38.6292 95.0188 38.35 94.6188 38.175C94.2188 38 93.7646 37.9125 93.2563 37.9125C92.5313 37.9125 91.8938 38.0792 91.3438 38.4125C90.8021 38.7458 90.3021 39.2167 89.8438 39.825V45.95ZM89.7313 38.3C90.2646 37.6417 90.8813 37.1125 91.5813 36.7125C92.2813 36.3125 93.0813 36.1125 93.9813 36.1125C94.7146 36.1125 95.3771 36.2542 95.9688 36.5375C96.5604 36.8125 97.0646 37.225 97.4813 37.775C97.8979 38.3167 98.2188 38.9917 98.4438 39.8C98.6688 40.6083 98.7813 41.5375 98.7813 42.5875C98.7813 43.5208 98.6563 44.3917 98.4062 45.2C98.1563 46 97.7938 46.6958 97.3188 47.2875C96.8521 47.8708 96.2771 48.3333 95.5938 48.675C94.9188 49.0083 94.1563 49.175 93.3063 49.175C92.5313 49.175 91.8646 49.0458 91.3063 48.7875C90.7563 48.5208 90.2688 48.1542 89.8438 47.6875V53.2875H87.6063V36.3375H88.9438C89.2604 36.3375 89.4563 36.4917 89.5313 36.8L89.7313 38.3ZM103.732 38.875C104.132 38.0083 104.624 37.3333 105.207 36.85C105.791 36.3583 106.503 36.1125 107.345 36.1125C107.612 36.1125 107.866 36.1417 108.107 36.2C108.357 36.2583 108.578 36.35 108.77 36.475L108.607 38.1375C108.557 38.3458 108.432 38.45 108.232 38.45C108.116 38.45 107.945 38.425 107.72 38.375C107.495 38.325 107.241 38.3 106.957 38.3C106.557 38.3 106.199 38.3583 105.882 38.475C105.574 38.5917 105.295 38.7667 105.045 39C104.803 39.225 104.582 39.5083 104.382 39.85C104.191 40.1833 104.016 40.5667 103.857 41V49H101.62V36.3375H102.895C103.137 36.3375 103.303 36.3833 103.395 36.475C103.487 36.5667 103.549 36.725 103.582 36.95L103.732 38.875ZM118.689 41.2875C118.689 40.7708 118.614 40.3 118.464 39.875C118.322 39.4417 118.11 39.0708 117.826 38.7625C117.551 38.4458 117.214 38.2042 116.814 38.0375C116.414 37.8625 115.96 37.775 115.451 37.775C114.385 37.775 113.539 38.0875 112.914 38.7125C112.297 39.3292 111.914 40.1875 111.764 41.2875H118.689ZM120.489 47.225C120.214 47.5583 119.885 47.85 119.501 48.1C119.118 48.3417 118.705 48.5417 118.264 48.7C117.83 48.8583 117.38 48.975 116.914 49.05C116.447 49.1333 115.985 49.175 115.526 49.175C114.651 49.175 113.843 49.0292 113.101 48.7375C112.368 48.4375 111.73 48.0042 111.189 47.4375C110.655 46.8625 110.239 46.1542 109.939 45.3125C109.639 44.4708 109.489 43.5042 109.489 42.4125C109.489 41.5292 109.622 40.7042 109.889 39.9375C110.164 39.1708 110.555 38.5083 111.064 37.95C111.572 37.3833 112.193 36.9417 112.926 36.625C113.66 36.3 114.485 36.1375 115.401 36.1375C116.16 36.1375 116.86 36.2667 117.501 36.525C118.151 36.775 118.71 37.1417 119.176 37.625C119.651 38.1 120.022 38.6917 120.289 39.4C120.555 40.1 120.689 40.9 120.689 41.8C120.689 42.15 120.651 42.3833 120.576 42.5C120.501 42.6167 120.36 42.675 120.151 42.675H111.689C111.714 43.475 111.822 44.1708 112.014 44.7625C112.214 45.3542 112.489 45.85 112.839 46.25C113.189 46.6417 113.605 46.9375 114.089 47.1375C114.572 47.3292 115.114 47.425 115.714 47.425C116.272 47.425 116.751 47.3625 117.151 47.2375C117.56 47.1042 117.91 46.9625 118.201 46.8125C118.493 46.6625 118.735 46.525 118.926 46.4C119.126 46.2667 119.297 46.2 119.439 46.2C119.622 46.2 119.764 46.2708 119.864 46.4125L120.489 47.225ZM130.797 38.425C130.697 38.6083 130.543 38.7 130.334 38.7C130.209 38.7 130.068 38.6542 129.909 38.5625C129.751 38.4708 129.555 38.3708 129.322 38.2625C129.097 38.1458 128.826 38.0417 128.509 37.95C128.193 37.85 127.818 37.8 127.384 37.8C127.009 37.8 126.672 37.85 126.372 37.95C126.072 38.0417 125.813 38.1708 125.597 38.3375C125.388 38.5042 125.226 38.7 125.109 38.925C125.001 39.1417 124.947 39.3792 124.947 39.6375C124.947 39.9625 125.038 40.2333 125.222 40.45C125.413 40.6667 125.663 40.8542 125.972 41.0125C126.28 41.1708 126.63 41.3125 127.022 41.4375C127.413 41.5542 127.813 41.6833 128.222 41.825C128.638 41.9583 129.043 42.1083 129.434 42.275C129.826 42.4417 130.176 42.65 130.484 42.9C130.793 43.15 131.038 43.4583 131.222 43.825C131.413 44.1833 131.509 44.6167 131.509 45.125C131.509 45.7083 131.405 46.25 131.197 46.75C130.988 47.2417 130.68 47.6708 130.272 48.0375C129.863 48.3958 129.363 48.6792 128.772 48.8875C128.18 49.0958 127.497 49.2 126.722 49.2C125.838 49.2 125.038 49.0583 124.322 48.775C123.605 48.4833 122.997 48.1125 122.497 47.6625L123.022 46.8125C123.088 46.7042 123.168 46.6208 123.259 46.5625C123.351 46.5042 123.468 46.475 123.609 46.475C123.759 46.475 123.918 46.5333 124.084 46.65C124.251 46.7667 124.451 46.8958 124.684 47.0375C124.926 47.1792 125.218 47.3083 125.559 47.425C125.901 47.5417 126.326 47.6 126.834 47.6C127.268 47.6 127.647 47.5458 127.972 47.4375C128.297 47.3208 128.568 47.1667 128.784 46.975C129.001 46.7833 129.159 46.5625 129.259 46.3125C129.368 46.0625 129.422 45.7958 129.422 45.5125C129.422 45.1625 129.326 44.875 129.134 44.65C128.951 44.4167 128.705 44.2208 128.397 44.0625C128.088 43.8958 127.734 43.7542 127.334 43.6375C126.943 43.5125 126.538 43.3833 126.122 43.25C125.713 43.1167 125.309 42.9667 124.909 42.8C124.518 42.625 124.168 42.4083 123.859 42.15C123.551 41.8917 123.301 41.575 123.109 41.2C122.926 40.8167 122.834 40.3542 122.834 39.8125C122.834 39.3292 122.934 38.8667 123.134 38.425C123.334 37.975 123.626 37.5833 124.009 37.25C124.393 36.9083 124.863 36.6375 125.422 36.4375C125.98 36.2375 126.618 36.1375 127.334 36.1375C128.168 36.1375 128.913 36.2708 129.572 36.5375C130.238 36.7958 130.813 37.1542 131.297 37.6125L130.797 38.425ZM141.612 38.425C141.512 38.6083 141.358 38.7 141.15 38.7C141.025 38.7 140.883 38.6542 140.725 38.5625C140.566 38.4708 140.37 38.3708 140.137 38.2625C139.912 38.1458 139.641 38.0417 139.325 37.95C139.008 37.85 138.633 37.8 138.2 37.8C137.825 37.8 137.487 37.85 137.187 37.95C136.887 38.0417 136.629 38.1708 136.412 38.3375C136.204 38.5042 136.041 38.7 135.925 38.925C135.816 39.1417 135.762 39.3792 135.762 39.6375C135.762 39.9625 135.854 40.2333 136.037 40.45C136.229 40.6667 136.479 40.8542 136.787 41.0125C137.095 41.1708 137.445 41.3125 137.837 41.4375C138.229 41.5542 138.629 41.6833 139.037 41.825C139.454 41.9583 139.858 42.1083 140.25 42.275C140.641 42.4417 140.991 42.65 141.3 42.9C141.608 43.15 141.854 43.4583 142.037 43.825C142.229 44.1833 142.325 44.6167 142.325 45.125C142.325 45.7083 142.22 46.25 142.012 46.75C141.804 47.2417 141.495 47.6708 141.087 48.0375C140.679 48.3958 140.179 48.6792 139.587 48.8875C138.995 49.0958 138.312 49.2 137.537 49.2C136.654 49.2 135.854 49.0583 135.137 48.775C134.42 48.4833 133.812 48.1125 133.312 47.6625L133.837 46.8125C133.904 46.7042 133.983 46.6208 134.075 46.5625C134.166 46.5042 134.283 46.475 134.425 46.475C134.575 46.475 134.733 46.5333 134.9 46.65C135.066 46.7667 135.266 46.8958 135.5 47.0375C135.741 47.1792 136.033 47.3083 136.375 47.425C136.716 47.5417 137.141 47.6 137.65 47.6C138.083 47.6 138.462 47.5458 138.787 47.4375C139.112 47.3208 139.383 47.1667 139.6 46.975C139.816 46.7833 139.975 46.5625 140.075 46.3125C140.183 46.0625 140.237 45.7958 140.237 45.5125C140.237 45.1625 140.141 44.875 139.95 44.65C139.766 44.4167 139.52 44.2208 139.212 44.0625C138.904 43.8958 138.55 43.7542 138.15 43.6375C137.758 43.5125 137.354 43.3833 136.937 43.25C136.529 43.1167 136.125 42.9667 135.725 42.8C135.333 42.625 134.983 42.4083 134.675 42.15C134.366 41.8917 134.116 41.575 133.925 41.2C133.741 40.8167 133.65 40.3542 133.65 39.8125C133.65 39.3292 133.75 38.8667 133.95 38.425C134.15 37.975 134.441 37.5833 134.825 37.25C135.208 36.9083 135.679 36.6375 136.237 36.4375C136.795 36.2375 137.433 36.1375 138.15 36.1375C138.983 36.1375 139.729 36.2708 140.387 36.5375C141.054 36.7958 141.629 37.1542 142.112 37.6125L141.612 38.425ZM153.528 41.2875C153.528 40.7708 153.453 40.3 153.303 39.875C153.161 39.4417 152.948 39.0708 152.665 38.7625C152.39 38.4458 152.053 38.2042 151.653 38.0375C151.253 37.8625 150.798 37.775 150.29 37.775C149.223 37.775 148.378 38.0875 147.753 38.7125C147.136 39.3292 146.753 40.1875 146.603 41.2875H153.528ZM155.328 47.225C155.053 47.5583 154.723 47.85 154.34 48.1C153.957 48.3417 153.544 48.5417 153.103 48.7C152.669 48.8583 152.219 48.975 151.753 49.05C151.286 49.1333 150.823 49.175 150.365 49.175C149.49 49.175 148.682 49.0292 147.94 48.7375C147.207 48.4375 146.569 48.0042 146.028 47.4375C145.494 46.8625 145.078 46.1542 144.778 45.3125C144.478 44.4708 144.328 43.5042 144.328 42.4125C144.328 41.5292 144.461 40.7042 144.728 39.9375C145.003 39.1708 145.394 38.5083 145.903 37.95C146.411 37.3833 147.032 36.9417 147.765 36.625C148.498 36.3 149.323 36.1375 150.24 36.1375C150.998 36.1375 151.698 36.2667 152.34 36.525C152.99 36.775 153.548 37.1417 154.015 37.625C154.49 38.1 154.861 38.6917 155.128 39.4C155.394 40.1 155.528 40.9 155.528 41.8C155.528 42.15 155.49 42.3833 155.415 42.5C155.34 42.6167 155.198 42.675 154.99 42.675H146.528C146.553 43.475 146.661 44.1708 146.853 44.7625C147.053 45.3542 147.328 45.85 147.678 46.25C148.028 46.6417 148.444 46.9375 148.928 47.1375C149.411 47.3292 149.953 47.425 150.553 47.425C151.111 47.425 151.59 47.3625 151.99 47.2375C152.398 47.1042 152.748 46.9625 153.04 46.8125C153.332 46.6625 153.573 46.525 153.765 46.4C153.965 46.2667 154.136 46.2 154.278 46.2C154.461 46.2 154.603 46.2708 154.703 46.4125L155.328 47.225ZM166.511 39.35C166.094 38.7917 165.644 38.4042 165.161 38.1875C164.677 37.9625 164.136 37.85 163.536 37.85C162.361 37.85 161.456 38.2708 160.823 39.1125C160.19 39.9542 159.873 41.1542 159.873 42.7125C159.873 43.5375 159.944 44.2458 160.086 44.8375C160.227 45.4208 160.436 45.9042 160.711 46.2875C160.986 46.6625 161.323 46.9375 161.723 47.1125C162.123 47.2875 162.577 47.375 163.086 47.375C163.819 47.375 164.456 47.2083 164.998 46.875C165.548 46.5417 166.052 46.0708 166.511 45.4625V39.35ZM168.736 30.5875V49H167.411C167.094 49 166.894 48.8458 166.811 48.5375L166.611 47C166.069 47.65 165.452 48.175 164.761 48.575C164.069 48.975 163.269 49.175 162.361 49.175C161.636 49.175 160.977 49.0375 160.386 48.7625C159.794 48.4792 159.29 48.0667 158.873 47.525C158.456 46.9833 158.136 46.3083 157.911 45.5C157.686 44.6917 157.573 43.7625 157.573 42.7125C157.573 41.7792 157.698 40.9125 157.948 40.1125C158.198 39.3042 158.556 38.6042 159.023 38.0125C159.49 37.4208 160.061 36.9583 160.736 36.625C161.419 36.2833 162.186 36.1125 163.036 36.1125C163.811 36.1125 164.473 36.2458 165.023 36.5125C165.581 36.7708 166.077 37.1333 166.511 37.6V30.5875H168.736ZM182.534 49.2C181.534 49.2 180.763 48.9208 180.221 48.3625C179.688 47.8042 179.421 47 179.421 45.95V38.2H177.896C177.763 38.2 177.65 38.1625 177.559 38.0875C177.467 38.0042 177.421 37.8792 177.421 37.7125V36.825L179.496 36.5625L180.009 32.65C180.034 32.525 180.088 32.425 180.171 32.35C180.263 32.2667 180.38 32.225 180.521 32.225H181.646V36.5875H185.309V38.2H181.646V45.8C181.646 46.3333 181.775 46.7292 182.034 46.9875C182.292 47.2458 182.625 47.375 183.034 47.375C183.267 47.375 183.467 47.3458 183.634 47.2875C183.809 47.2208 183.959 47.15 184.084 47.075C184.209 47 184.313 46.9333 184.396 46.875C184.488 46.8083 184.567 46.775 184.634 46.775C184.75 46.775 184.855 46.8458 184.946 46.9875L185.596 48.05C185.213 48.4083 184.75 48.6917 184.209 48.9C183.667 49.1 183.109 49.2 182.534 49.2ZM189.844 38.025C190.385 37.45 190.985 36.9917 191.644 36.65C192.302 36.3083 193.06 36.1375 193.919 36.1375C194.61 36.1375 195.219 36.2542 195.744 36.4875C196.277 36.7125 196.719 37.0375 197.069 37.4625C197.427 37.8792 197.698 38.3833 197.881 38.975C198.065 39.5667 198.156 40.2208 198.156 40.9375V49H195.919V40.9375C195.919 39.9792 195.698 39.2375 195.256 38.7125C194.823 38.1792 194.16 37.9125 193.269 37.9125C192.61 37.9125 191.994 38.0708 191.419 38.3875C190.852 38.7042 190.327 39.1333 189.844 39.675V49H187.606V30.5875H189.844V38.025ZM210.022 41.2875C210.022 40.7708 209.947 40.3 209.797 39.875C209.655 39.4417 209.443 39.0708 209.159 38.7625C208.884 38.4458 208.547 38.2042 208.147 38.0375C207.747 37.8625 207.293 37.775 206.784 37.775C205.718 37.775 204.872 38.0875 204.247 38.7125C203.63 39.3292 203.247 40.1875 203.097 41.2875H210.022ZM211.822 47.225C211.547 47.5583 211.218 47.85 210.834 48.1C210.451 48.3417 210.038 48.5417 209.597 48.7C209.163 48.8583 208.713 48.975 208.247 49.05C207.78 49.1333 207.318 49.175 206.859 49.175C205.984 49.175 205.176 49.0292 204.434 48.7375C203.701 48.4375 203.063 48.0042 202.522 47.4375C201.988 46.8625 201.572 46.1542 201.272 45.3125C200.972 44.4708 200.822 43.5042 200.822 42.4125C200.822 41.5292 200.955 40.7042 201.222 39.9375C201.497 39.1708 201.888 38.5083 202.397 37.95C202.905 37.3833 203.526 36.9417 204.259 36.625C204.993 36.3 205.818 36.1375 206.734 36.1375C207.493 36.1375 208.193 36.2667 208.834 36.525C209.484 36.775 210.043 37.1417 210.509 37.625C210.984 38.1 211.355 38.6917 211.622 39.4C211.888 40.1 212.022 40.9 212.022 41.8C212.022 42.15 211.984 42.3833 211.909 42.5C211.834 42.6167 211.693 42.675 211.484 42.675H203.022C203.047 43.475 203.155 44.1708 203.347 44.7625C203.547 45.3542 203.822 45.85 204.172 46.25C204.522 46.6417 204.938 46.9375 205.422 47.1375C205.905 47.3292 206.447 47.425 207.047 47.425C207.605 47.425 208.084 47.3625 208.484 47.2375C208.893 47.1042 209.243 46.9625 209.534 46.8125C209.826 46.6625 210.068 46.525 210.259 46.4C210.459 46.2667 210.63 46.2 210.772 46.2C210.955 46.2 211.097 46.2708 211.197 46.4125L211.822 47.225ZM223.389 45.95C223.797 46.5 224.243 46.8875 224.726 47.1125C225.21 47.3375 225.751 47.45 226.351 47.45C227.535 47.45 228.443 47.0292 229.076 46.1875C229.71 45.3458 230.026 44.1458 230.026 42.5875C230.026 41.7625 229.951 41.0542 229.801 40.4625C229.66 39.8708 229.451 39.3875 229.176 39.0125C228.901 38.6292 228.564 38.35 228.164 38.175C227.764 38 227.31 37.9125 226.801 37.9125C226.076 37.9125 225.439 38.0792 224.889 38.4125C224.347 38.7458 223.847 39.2167 223.389 39.825V45.95ZM223.276 38.3C223.81 37.6417 224.426 37.1125 225.126 36.7125C225.826 36.3125 226.626 36.1125 227.526 36.1125C228.26 36.1125 228.922 36.2542 229.514 36.5375C230.105 36.8125 230.61 37.225 231.026 37.775C231.443 38.3167 231.764 38.9917 231.989 39.8C232.214 40.6083 232.326 41.5375 232.326 42.5875C232.326 43.5208 232.201 44.3917 231.951 45.2C231.701 46 231.339 46.6958 230.864 47.2875C230.397 47.8708 229.822 48.3333 229.139 48.675C228.464 49.0083 227.701 49.175 226.851 49.175C226.076 49.175 225.41 49.0458 224.851 48.7875C224.301 48.5208 223.814 48.1542 223.389 47.6875V53.2875H221.151V36.3375H222.489C222.805 36.3375 223.001 36.4917 223.076 36.8L223.276 38.3ZM237.465 30.5875V49H235.24V30.5875H237.465ZM247.936 43.3C246.911 43.3333 246.036 43.4167 245.311 43.55C244.594 43.675 244.006 43.8417 243.548 44.05C243.098 44.2583 242.769 44.5042 242.561 44.7875C242.361 45.0708 242.261 45.3875 242.261 45.7375C242.261 46.0708 242.315 46.3583 242.423 46.6C242.531 46.8417 242.677 47.0417 242.861 47.2C243.052 47.35 243.273 47.4625 243.523 47.5375C243.781 47.6042 244.056 47.6375 244.348 47.6375C244.74 47.6375 245.098 47.6 245.423 47.525C245.748 47.4417 246.052 47.325 246.336 47.175C246.627 47.025 246.902 46.8458 247.161 46.6375C247.427 46.4292 247.686 46.1917 247.936 45.925V43.3ZM240.748 38.125C241.448 37.45 242.202 36.9458 243.011 36.6125C243.819 36.2792 244.715 36.1125 245.698 36.1125C246.406 36.1125 247.036 36.2292 247.586 36.4625C248.136 36.6958 248.598 37.0208 248.973 37.4375C249.348 37.8542 249.631 38.3583 249.823 38.95C250.015 39.5417 250.111 40.1917 250.111 40.9V49H249.123C248.906 49 248.74 48.9667 248.623 48.9C248.506 48.825 248.415 48.6833 248.348 48.475L248.098 47.275C247.765 47.5833 247.44 47.8583 247.123 48.1C246.806 48.3333 246.473 48.5333 246.123 48.7C245.773 48.8583 245.398 48.9792 244.998 49.0625C244.606 49.1542 244.169 49.2 243.686 49.2C243.194 49.2 242.731 49.1333 242.298 49C241.865 48.8583 241.486 48.65 241.161 48.375C240.844 48.1 240.59 47.7542 240.398 47.3375C240.215 46.9125 240.123 46.4125 240.123 45.8375C240.123 45.3375 240.261 44.8583 240.536 44.4C240.811 43.9333 241.256 43.5208 241.873 43.1625C242.49 42.8042 243.294 42.5125 244.286 42.2875C245.277 42.0542 246.494 41.9208 247.936 41.8875V40.9C247.936 39.9167 247.723 39.175 247.298 38.675C246.873 38.1667 246.252 37.9125 245.436 37.9125C244.886 37.9125 244.423 37.9833 244.048 38.125C243.681 38.2583 243.361 38.4125 243.086 38.5875C242.819 38.7542 242.586 38.9083 242.386 39.05C242.194 39.1833 242.002 39.25 241.811 39.25C241.661 39.25 241.531 39.2125 241.423 39.1375C241.315 39.0542 241.223 38.9542 241.148 38.8375L240.748 38.125ZM262.566 49V38.2H256.329V45.8C256.329 46.3333 256.458 46.7292 256.716 46.9875C256.975 47.2458 257.308 47.375 257.716 47.375C257.95 47.375 258.15 47.3458 258.316 47.2875C258.491 47.2208 258.641 47.15 258.766 47.075C258.891 47 258.996 46.9333 259.079 46.875C259.171 46.8083 259.25 46.775 259.316 46.775C259.433 46.775 259.537 46.8458 259.629 46.9875L260.279 48.05C259.896 48.4083 259.433 48.6917 258.891 48.9C258.35 49.1 257.791 49.2 257.216 49.2C256.216 49.2 255.446 48.9208 254.904 48.3625C254.371 47.8042 254.104 47 254.104 45.95V38.2H252.579C252.446 38.2 252.333 38.1625 252.241 38.0875C252.15 38.0042 252.104 37.8792 252.104 37.7125V36.825L254.179 36.5625L254.691 32.65C254.716 32.525 254.771 32.425 254.854 32.35C254.946 32.2667 255.062 32.225 255.204 32.225H256.329V36.5875H262.566V35.3625C262.566 34.6375 262.666 33.9958 262.866 33.4375C263.075 32.8708 263.366 32.3958 263.741 32.0125C264.116 31.6208 264.571 31.325 265.104 31.125C265.646 30.925 266.25 30.825 266.916 30.825C267.475 30.825 267.996 30.9083 268.479 31.075L268.429 32.1875C268.412 32.3875 268.3 32.4958 268.091 32.5125C267.891 32.5292 267.621 32.5375 267.279 32.5375C266.896 32.5375 266.546 32.5875 266.229 32.6875C265.921 32.7875 265.654 32.95 265.429 33.175C265.204 33.4 265.029 33.6958 264.904 34.0625C264.787 34.4292 264.729 34.8833 264.729 35.425V36.5875H268.379V38.2H264.804V49H262.566ZM275.439 36.1375C276.364 36.1375 277.197 36.2917 277.939 36.6C278.681 36.9083 279.314 37.3458 279.839 37.9125C280.364 38.4792 280.764 39.1667 281.039 39.975C281.322 40.775 281.464 41.6708 281.464 42.6625C281.464 43.6625 281.322 44.5625 281.039 45.3625C280.764 46.1625 280.364 46.8458 279.839 47.4125C279.314 47.9792 278.681 48.4167 277.939 48.725C277.197 49.025 276.364 49.175 275.439 49.175C274.506 49.175 273.664 49.025 272.914 48.725C272.172 48.4167 271.539 47.9792 271.014 47.4125C270.489 46.8458 270.085 46.1625 269.801 45.3625C269.526 44.5625 269.389 43.6625 269.389 42.6625C269.389 41.6708 269.526 40.775 269.801 39.975C270.085 39.1667 270.489 38.4792 271.014 37.9125C271.539 37.3458 272.172 36.9083 272.914 36.6C273.664 36.2917 274.506 36.1375 275.439 36.1375ZM275.439 47.4375C276.689 47.4375 277.622 47.0208 278.239 46.1875C278.856 45.3458 279.164 44.175 279.164 42.675C279.164 41.1667 278.856 39.9917 278.239 39.15C277.622 38.3083 276.689 37.8875 275.439 37.8875C274.806 37.8875 274.251 37.9958 273.776 38.2125C273.31 38.4292 272.918 38.7417 272.601 39.15C272.293 39.5583 272.06 40.0625 271.901 40.6625C271.751 41.2542 271.676 41.925 271.676 42.675C271.676 44.175 271.985 45.3458 272.601 46.1875C273.226 47.0208 274.172 47.4375 275.439 47.4375ZM286.398 38.875C286.798 38.0083 287.29 37.3333 287.873 36.85C288.457 36.3583 289.169 36.1125 290.011 36.1125C290.278 36.1125 290.532 36.1417 290.773 36.2C291.023 36.2583 291.244 36.35 291.436 36.475L291.273 38.1375C291.223 38.3458 291.098 38.45 290.898 38.45C290.782 38.45 290.611 38.425 290.386 38.375C290.161 38.325 289.907 38.3 289.623 38.3C289.223 38.3 288.865 38.3583 288.548 38.475C288.24 38.5917 287.961 38.7667 287.711 39C287.469 39.225 287.248 39.5083 287.048 39.85C286.857 40.1833 286.682 40.5667 286.523 41V49H284.286V36.3375H285.561C285.803 36.3375 285.969 36.3833 286.061 36.475C286.153 36.5667 286.215 36.725 286.248 36.95L286.398 38.875ZM293.392 49V36.3375H294.73C295.047 36.3375 295.242 36.4917 295.317 36.8L295.48 38.1C295.947 37.525 296.472 37.0542 297.055 36.6875C297.638 36.3208 298.313 36.1375 299.08 36.1375C299.93 36.1375 300.617 36.375 301.142 36.85C301.676 37.325 302.059 37.9667 302.292 38.775C302.476 38.3167 302.709 37.9208 302.992 37.5875C303.284 37.2542 303.609 36.9792 303.967 36.7625C304.326 36.5458 304.705 36.3875 305.105 36.2875C305.513 36.1875 305.926 36.1375 306.342 36.1375C307.009 36.1375 307.601 36.2458 308.117 36.4625C308.642 36.6708 309.084 36.9792 309.442 37.3875C309.809 37.7958 310.088 38.3 310.28 38.9C310.472 39.4917 310.567 40.1708 310.567 40.9375V49H308.33V40.9375C308.33 39.9458 308.113 39.1958 307.68 38.6875C307.247 38.1708 306.622 37.9125 305.805 37.9125C305.438 37.9125 305.088 37.9792 304.755 38.1125C304.43 38.2375 304.142 38.425 303.892 38.675C303.642 38.925 303.442 39.2417 303.292 39.625C303.151 40 303.08 40.4375 303.08 40.9375V49H300.842V40.9375C300.842 39.9208 300.638 39.1625 300.23 38.6625C299.822 38.1625 299.226 37.9125 298.442 37.9125C297.892 37.9125 297.384 38.0625 296.917 38.3625C296.451 38.6542 296.022 39.0542 295.63 39.5625V49H293.392ZM313.574 47.625C313.574 47.4083 313.612 47.2042 313.687 47.0125C313.77 46.8208 313.878 46.6542 314.012 46.5125C314.153 46.3708 314.32 46.2583 314.512 46.175C314.703 46.0917 314.907 46.05 315.124 46.05C315.341 46.05 315.545 46.0917 315.737 46.175C315.928 46.2583 316.095 46.3708 316.237 46.5125C316.378 46.6542 316.491 46.8208 316.574 47.0125C316.657 47.2042 316.699 47.4083 316.699 47.625C316.699 47.85 316.657 48.0583 316.574 48.25C316.491 48.4333 316.378 48.5958 316.237 48.7375C316.095 48.8792 315.928 48.9875 315.737 49.0625C315.545 49.1458 315.341 49.1875 315.124 49.1875C314.907 49.1875 314.703 49.1458 314.512 49.0625C314.32 48.9875 314.153 48.8792 314.012 48.7375C313.878 48.5958 313.77 48.4333 313.687 48.25C313.612 48.0583 313.574 47.85 313.574 47.625Z" fill="#002845"/>
</svg>
