<svg width="411" height="29" viewBox="0 0 411 29" fill="none" xmlns="http://www.w3.org/2000/svg">
<path d="M17.9332 4.625H11.3932V23H7.35816V4.625H0.818164V1.31H17.9332V4.625ZM23.6278 9.26C24.2278 8.7 24.8878 8.245 25.6078 7.895C26.3278 7.545 27.1728 7.37 28.1428 7.37C28.9828 7.37 29.7278 7.515 30.3778 7.805C31.0278 8.085 31.5678 8.485 31.9978 9.005C32.4378 9.515 32.7678 10.13 32.9878 10.85C33.2178 11.56 33.3328 12.345 33.3328 13.205V23H29.6278V13.205C29.6278 12.265 29.4128 11.54 28.9828 11.03C28.5528 10.51 27.8978 10.25 27.0178 10.25C26.3778 10.25 25.7778 10.395 25.2178 10.685C24.6578 10.975 24.1278 11.37 23.6278 11.87V23H19.9228V0.709999H23.6278V9.26ZM46.7714 13.535C46.7714 13.055 46.7014 12.605 46.5614 12.185C46.4314 11.755 46.2314 11.38 45.9614 11.06C45.6914 10.74 45.3464 10.49 44.9264 10.31C44.5164 10.12 44.0364 10.025 43.4864 10.025C42.4164 10.025 41.5714 10.33 40.9514 10.94C40.3414 11.55 39.9514 12.415 39.7814 13.535H46.7714ZM39.7064 15.77C39.7664 16.56 39.9064 17.245 40.1264 17.825C40.3464 18.395 40.6364 18.87 40.9964 19.25C41.3564 19.62 41.7814 19.9 42.2714 20.09C42.7714 20.27 43.3214 20.36 43.9214 20.36C44.5214 20.36 45.0364 20.29 45.4664 20.15C45.9064 20.01 46.2864 19.855 46.6064 19.685C46.9364 19.515 47.2214 19.36 47.4614 19.22C47.7114 19.08 47.9514 19.01 48.1814 19.01C48.4914 19.01 48.7214 19.125 48.8714 19.355L49.9364 20.705C49.5264 21.185 49.0664 21.59 48.5564 21.92C48.0464 22.24 47.5114 22.5 46.9514 22.7C46.4014 22.89 45.8364 23.025 45.2564 23.105C44.6864 23.185 44.1314 23.225 43.5914 23.225C42.5214 23.225 41.5264 23.05 40.6064 22.7C39.6864 22.34 38.8864 21.815 38.2064 21.125C37.5264 20.425 36.9914 19.565 36.6014 18.545C36.2114 17.515 36.0164 16.325 36.0164 14.975C36.0164 13.925 36.1864 12.94 36.5264 12.02C36.8664 11.09 37.3514 10.285 37.9814 9.605C38.6214 8.915 39.3964 8.37 40.3064 7.97C41.2264 7.57 42.2614 7.37 43.4114 7.37C44.3814 7.37 45.2764 7.525 46.0964 7.835C46.9164 8.145 47.6214 8.6 48.2114 9.2C48.8014 9.79 49.2614 10.52 49.5914 11.39C49.9314 12.25 50.1014 13.235 50.1014 14.345C50.1014 14.905 50.0414 15.285 49.9214 15.485C49.8014 15.675 49.5714 15.77 49.2314 15.77H39.7064ZM68.8767 19.85C69.6267 19.85 70.2567 19.76 70.7667 19.58C71.2767 19.4 71.6817 19.16 71.9817 18.86C72.2917 18.56 72.5117 18.21 72.6417 17.81C72.7817 17.41 72.8517 16.985 72.8517 16.535C72.8517 16.065 72.7767 15.645 72.6267 15.275C72.4767 14.895 72.2417 14.575 71.9217 14.315C71.6017 14.045 71.1867 13.84 70.6767 13.7C70.1767 13.56 69.5717 13.49 68.8617 13.49H64.7967V19.85H68.8767ZM64.7967 4.43V10.7H68.0067C69.3867 10.7 70.4267 10.45 71.1267 9.95C71.8367 9.45 72.1917 8.655 72.1917 7.565C72.1917 6.435 71.8717 5.63 71.2317 5.15C70.5917 4.67 69.5917 4.43 68.2317 4.43H64.7967ZM68.2317 1.31C69.6517 1.31 70.8667 1.445 71.8767 1.715C72.8867 1.985 73.7117 2.37 74.3517 2.87C75.0017 3.37 75.4767 3.975 75.7767 4.685C76.0767 5.395 76.2267 6.195 76.2267 7.085C76.2267 7.595 76.1517 8.085 76.0017 8.555C75.8517 9.015 75.6167 9.45 75.2967 9.86C74.9867 10.26 74.5867 10.625 74.0967 10.955C73.6167 11.285 73.0417 11.565 72.3717 11.795C75.3517 12.465 76.8417 14.075 76.8417 16.625C76.8417 17.545 76.6667 18.395 76.3167 19.175C75.9667 19.955 75.4567 20.63 74.7867 21.2C74.1167 21.76 73.2917 22.2 72.3117 22.52C71.3317 22.84 70.2117 23 68.9517 23H60.7617V1.31H68.2317ZM83.1248 10.28C83.6048 9.36 84.1748 8.64 84.8348 8.12C85.4948 7.59 86.2748 7.325 87.1748 7.325C87.8848 7.325 88.4548 7.48 88.8848 7.79L88.6448 10.565C88.5948 10.745 88.5198 10.875 88.4198 10.955C88.3298 11.025 88.2048 11.06 88.0448 11.06C87.8948 11.06 87.6698 11.035 87.3698 10.985C87.0798 10.935 86.7948 10.91 86.5148 10.91C86.1048 10.91 85.7398 10.97 85.4198 11.09C85.0998 11.21 84.8098 11.385 84.5498 11.615C84.2998 11.835 84.0748 12.105 83.8748 12.425C83.6848 12.745 83.5048 13.11 83.3348 13.52V23H79.6298V7.61H81.8048C82.1848 7.61 82.4498 7.68 82.5998 7.82C82.7498 7.95 82.8498 8.19 82.8998 8.54L83.1248 10.28ZM94.6612 7.61V23H90.9412V7.61H94.6612ZM95.1712 3.125C95.1712 3.445 95.1062 3.745 94.9762 4.025C94.8462 4.305 94.6712 4.55 94.4512 4.76C94.2412 4.97 93.9912 5.14 93.7012 5.27C93.4112 5.39 93.1012 5.45 92.7712 5.45C92.4512 5.45 92.1462 5.39 91.8562 5.27C91.5762 5.14 91.3312 4.97 91.1212 4.76C90.9112 4.55 90.7412 4.305 90.6112 4.025C90.4912 3.745 90.4312 3.445 90.4312 3.125C90.4312 2.795 90.4912 2.485 90.6112 2.195C90.7412 1.905 90.9112 1.655 91.1212 1.445C91.3312 1.235 91.5762 1.07 91.8562 0.95C92.1462 0.819999 92.4512 0.754999 92.7712 0.754999C93.1012 0.754999 93.4112 0.819999 93.7012 0.95C93.9912 1.07 94.2412 1.235 94.4512 1.445C94.6712 1.655 94.8462 1.905 94.9762 2.195C95.1062 2.485 95.1712 2.795 95.1712 3.125ZM109.463 10.865C109.353 11.005 109.243 11.115 109.133 11.195C109.033 11.275 108.883 11.315 108.683 11.315C108.493 11.315 108.308 11.26 108.128 11.15C107.948 11.03 107.733 10.9 107.483 10.76C107.233 10.61 106.933 10.48 106.583 10.37C106.243 10.25 105.818 10.19 105.308 10.19C104.658 10.19 104.088 10.31 103.598 10.55C103.108 10.78 102.698 11.115 102.368 11.555C102.048 11.995 101.808 12.53 101.648 13.16C101.488 13.78 101.408 14.485 101.408 15.275C101.408 16.095 101.493 16.825 101.663 17.465C101.843 18.105 102.098 18.645 102.428 19.085C102.758 19.515 103.158 19.845 103.628 20.075C104.098 20.295 104.628 20.405 105.218 20.405C105.808 20.405 106.283 20.335 106.643 20.195C107.013 20.045 107.323 19.885 107.573 19.715C107.823 19.535 108.038 19.375 108.218 19.235C108.408 19.085 108.618 19.01 108.848 19.01C109.148 19.01 109.373 19.125 109.523 19.355L110.588 20.705C110.178 21.185 109.733 21.59 109.253 21.92C108.773 22.24 108.273 22.5 107.753 22.7C107.243 22.89 106.713 23.025 106.163 23.105C105.623 23.185 105.083 23.225 104.543 23.225C103.593 23.225 102.698 23.05 101.858 22.7C101.018 22.34 100.283 21.82 99.6534 21.14C99.0234 20.46 98.5234 19.63 98.1534 18.65C97.7934 17.66 97.6134 16.535 97.6134 15.275C97.6134 14.145 97.7734 13.1 98.0934 12.14C98.4234 11.17 98.9034 10.335 99.5334 9.635C100.163 8.925 100.943 8.37 101.873 7.97C102.803 7.57 103.873 7.37 105.083 7.37C106.233 7.37 107.238 7.555 108.098 7.925C108.968 8.295 109.748 8.825 110.438 9.515L109.463 10.865ZM116.616 0.709999V13.475H117.306C117.556 13.475 117.751 13.445 117.891 13.385C118.041 13.315 118.191 13.18 118.341 12.98L122.166 8.255C122.326 8.045 122.501 7.885 122.691 7.775C122.891 7.665 123.146 7.61 123.456 7.61H126.846L122.061 13.325C121.721 13.775 121.351 14.12 120.951 14.36C121.161 14.51 121.346 14.685 121.506 14.885C121.676 15.085 121.836 15.3 121.986 15.53L127.116 23H123.771C123.481 23 123.231 22.955 123.021 22.865C122.811 22.765 122.636 22.59 122.496 22.34L118.566 16.505C118.426 16.275 118.281 16.125 118.131 16.055C117.981 15.985 117.756 15.95 117.456 15.95H116.616V23H112.911V0.709999H116.616ZM132.641 19.01C133.061 19.52 133.516 19.88 134.006 20.09C134.506 20.3 135.031 20.405 135.581 20.405C136.151 20.405 136.661 20.305 137.111 20.105C137.571 19.895 137.961 19.575 138.281 19.145C138.601 18.705 138.846 18.15 139.016 17.48C139.186 16.8 139.271 15.99 139.271 15.05C139.271 13.36 138.991 12.14 138.431 11.39C137.871 10.63 137.066 10.25 136.016 10.25C135.306 10.25 134.686 10.415 134.156 10.745C133.626 11.065 133.121 11.52 132.641 12.11V19.01ZM132.641 9.5C133.261 8.85 133.946 8.335 134.696 7.955C135.456 7.565 136.321 7.37 137.291 7.37C138.181 7.37 138.981 7.545 139.691 7.895C140.411 8.245 141.021 8.75 141.521 9.41C142.031 10.06 142.421 10.85 142.691 11.78C142.961 12.71 143.096 13.755 143.096 14.915C143.096 16.165 142.941 17.3 142.631 18.32C142.321 19.34 141.876 20.215 141.296 20.945C140.726 21.665 140.036 22.225 139.226 22.625C138.416 23.025 137.516 23.225 136.526 23.225C136.046 23.225 135.611 23.175 135.221 23.075C134.831 22.985 134.471 22.855 134.141 22.685C133.811 22.515 133.506 22.31 133.226 22.07C132.956 21.82 132.696 21.545 132.446 21.245L132.281 22.28C132.221 22.54 132.116 22.725 131.966 22.835C131.826 22.945 131.631 23 131.381 23H128.936V0.709999H132.641V9.5ZM155.873 13.535C155.873 13.055 155.803 12.605 155.663 12.185C155.533 11.755 155.333 11.38 155.063 11.06C154.793 10.74 154.448 10.49 154.028 10.31C153.618 10.12 153.138 10.025 152.588 10.025C151.518 10.025 150.673 10.33 150.053 10.94C149.443 11.55 149.053 12.415 148.883 13.535H155.873ZM148.808 15.77C148.868 16.56 149.008 17.245 149.228 17.825C149.448 18.395 149.738 18.87 150.098 19.25C150.458 19.62 150.883 19.9 151.373 20.09C151.873 20.27 152.423 20.36 153.023 20.36C153.623 20.36 154.138 20.29 154.568 20.15C155.008 20.01 155.388 19.855 155.708 19.685C156.038 19.515 156.323 19.36 156.563 19.22C156.813 19.08 157.053 19.01 157.283 19.01C157.593 19.01 157.823 19.125 157.973 19.355L159.038 20.705C158.628 21.185 158.168 21.59 157.658 21.92C157.148 22.24 156.613 22.5 156.053 22.7C155.503 22.89 154.938 23.025 154.358 23.105C153.788 23.185 153.233 23.225 152.693 23.225C151.623 23.225 150.628 23.05 149.708 22.7C148.788 22.34 147.988 21.815 147.308 21.125C146.628 20.425 146.093 19.565 145.703 18.545C145.313 17.515 145.118 16.325 145.118 14.975C145.118 13.925 145.288 12.94 145.628 12.02C145.968 11.09 146.453 10.285 147.083 9.605C147.723 8.915 148.498 8.37 149.408 7.97C150.328 7.57 151.363 7.37 152.513 7.37C153.483 7.37 154.378 7.525 155.198 7.835C156.018 8.145 156.723 8.6 157.313 9.2C157.903 9.79 158.363 10.52 158.693 11.39C159.033 12.25 159.203 13.235 159.203 14.345C159.203 14.905 159.143 15.285 159.023 15.485C158.903 15.675 158.673 15.77 158.333 15.77H148.808ZM165.478 10.28C165.958 9.36 166.528 8.64 167.188 8.12C167.848 7.59 168.628 7.325 169.528 7.325C170.238 7.325 170.808 7.48 171.238 7.79L170.998 10.565C170.948 10.745 170.873 10.875 170.773 10.955C170.683 11.025 170.558 11.06 170.398 11.06C170.248 11.06 170.023 11.035 169.723 10.985C169.433 10.935 169.148 10.91 168.868 10.91C168.458 10.91 168.093 10.97 167.773 11.09C167.453 11.21 167.163 11.385 166.903 11.615C166.653 11.835 166.428 12.105 166.228 12.425C166.038 12.745 165.858 13.11 165.688 13.52V23H161.983V7.61H164.158C164.538 7.61 164.803 7.68 164.953 7.82C165.103 7.95 165.203 8.19 165.253 8.54L165.478 10.28ZM176.67 10.28C177.15 9.36 177.72 8.64 178.38 8.12C179.04 7.59 179.82 7.325 180.72 7.325C181.43 7.325 182 7.48 182.43 7.79L182.19 10.565C182.14 10.745 182.065 10.875 181.965 10.955C181.875 11.025 181.75 11.06 181.59 11.06C181.44 11.06 181.215 11.035 180.915 10.985C180.625 10.935 180.34 10.91 180.06 10.91C179.65 10.91 179.285 10.97 178.965 11.09C178.645 11.21 178.355 11.385 178.095 11.615C177.845 11.835 177.62 12.105 177.42 12.425C177.23 12.745 177.05 13.11 176.88 13.52V23H173.175V7.61H175.35C175.73 7.61 175.995 7.68 176.145 7.82C176.295 7.95 176.395 8.19 176.445 8.54L176.67 10.28ZM198.346 7.61L189.961 27.23C189.851 27.49 189.706 27.685 189.526 27.815C189.356 27.955 189.091 28.025 188.731 28.025H185.971L188.851 21.845L182.626 7.61H185.881C186.171 7.61 186.396 7.68 186.556 7.82C186.726 7.96 186.851 8.12 186.931 8.3L190.201 16.28C190.311 16.55 190.401 16.82 190.471 17.09C190.551 17.36 190.626 17.635 190.696 17.915C190.786 17.635 190.876 17.36 190.966 17.09C191.056 16.81 191.156 16.535 191.266 16.265L194.356 8.3C194.436 8.1 194.566 7.935 194.746 7.805C194.936 7.675 195.146 7.61 195.376 7.61H198.346ZM211.85 23.24C210.51 23.24 209.48 22.865 208.76 22.115C208.05 21.355 207.695 20.31 207.695 18.98V10.385H206.12C205.92 10.385 205.75 10.32 205.61 10.19C205.47 10.06 205.4 9.865 205.4 9.605V8.135L207.875 7.73L208.655 3.53C208.705 3.33 208.8 3.175 208.94 3.065C209.08 2.955 209.26 2.9 209.48 2.9H211.4V7.745H215.51V10.385H211.4V18.725C211.4 19.205 211.515 19.58 211.745 19.85C211.985 20.12 212.31 20.255 212.72 20.255C212.95 20.255 213.14 20.23 213.29 20.18C213.45 20.12 213.585 20.06 213.695 20C213.815 19.94 213.92 19.885 214.01 19.835C214.1 19.775 214.19 19.745 214.28 19.745C214.39 19.745 214.48 19.775 214.55 19.835C214.62 19.885 214.695 19.965 214.775 20.075L215.885 21.875C215.345 22.325 214.725 22.665 214.025 22.895C213.325 23.125 212.6 23.24 211.85 23.24ZM227.68 13.535C227.68 13.055 227.61 12.605 227.47 12.185C227.34 11.755 227.14 11.38 226.87 11.06C226.6 10.74 226.255 10.49 225.835 10.31C225.425 10.12 224.945 10.025 224.395 10.025C223.325 10.025 222.48 10.33 221.86 10.94C221.25 11.55 220.86 12.415 220.69 13.535H227.68ZM220.615 15.77C220.675 16.56 220.815 17.245 221.035 17.825C221.255 18.395 221.545 18.87 221.905 19.25C222.265 19.62 222.69 19.9 223.18 20.09C223.68 20.27 224.23 20.36 224.83 20.36C225.43 20.36 225.945 20.29 226.375 20.15C226.815 20.01 227.195 19.855 227.515 19.685C227.845 19.515 228.13 19.36 228.37 19.22C228.62 19.08 228.86 19.01 229.09 19.01C229.4 19.01 229.63 19.125 229.78 19.355L230.845 20.705C230.435 21.185 229.975 21.59 229.465 21.92C228.955 22.24 228.42 22.5 227.86 22.7C227.31 22.89 226.745 23.025 226.165 23.105C225.595 23.185 225.04 23.225 224.5 23.225C223.43 23.225 222.435 23.05 221.515 22.7C220.595 22.34 219.795 21.815 219.115 21.125C218.435 20.425 217.9 19.565 217.51 18.545C217.12 17.515 216.925 16.325 216.925 14.975C216.925 13.925 217.095 12.94 217.435 12.02C217.775 11.09 218.26 10.285 218.89 9.605C219.53 8.915 220.305 8.37 221.215 7.97C222.135 7.57 223.17 7.37 224.32 7.37C225.29 7.37 226.185 7.525 227.005 7.835C227.825 8.145 228.53 8.6 229.12 9.2C229.71 9.79 230.17 10.52 230.5 11.39C230.84 12.25 231.01 13.235 231.01 14.345C231.01 14.905 230.95 15.285 230.83 15.485C230.71 15.675 230.48 15.77 230.14 15.77H220.615ZM241.92 16.43C240.85 16.48 239.95 16.575 239.22 16.715C238.49 16.845 237.905 17.015 237.465 17.225C237.025 17.435 236.71 17.68 236.52 17.96C236.33 18.24 236.235 18.545 236.235 18.875C236.235 19.525 236.425 19.99 236.805 20.27C237.195 20.55 237.7 20.69 238.32 20.69C239.08 20.69 239.735 20.555 240.285 20.285C240.845 20.005 241.39 19.585 241.92 19.025V16.43ZM233.43 9.755C235.2 8.135 237.33 7.325 239.82 7.325C240.72 7.325 241.525 7.475 242.235 7.775C242.945 8.065 243.545 8.475 244.035 9.005C244.525 9.525 244.895 10.15 245.145 10.88C245.405 11.61 245.535 12.41 245.535 13.28V23H243.855C243.505 23 243.235 22.95 243.045 22.85C242.855 22.74 242.705 22.525 242.595 22.205L242.265 21.095C241.875 21.445 241.495 21.755 241.125 22.025C240.755 22.285 240.37 22.505 239.97 22.685C239.57 22.865 239.14 23 238.68 23.09C238.23 23.19 237.73 23.24 237.18 23.24C236.53 23.24 235.93 23.155 235.38 22.985C234.83 22.805 234.355 22.54 233.955 22.19C233.555 21.84 233.245 21.405 233.025 20.885C232.805 20.365 232.695 19.76 232.695 19.07C232.695 18.68 232.76 18.295 232.89 17.915C233.02 17.525 233.23 17.155 233.52 16.805C233.82 16.455 234.205 16.125 234.675 15.815C235.145 15.505 235.72 15.235 236.4 15.005C237.09 14.775 237.89 14.59 238.8 14.45C239.71 14.3 240.75 14.21 241.92 14.18V13.28C241.92 12.25 241.7 11.49 241.26 11C240.82 10.5 240.185 10.25 239.355 10.25C238.755 10.25 238.255 10.32 237.855 10.46C237.465 10.6 237.12 10.76 236.82 10.94C236.52 11.11 236.245 11.265 235.995 11.405C235.755 11.545 235.485 11.615 235.185 11.615C234.925 11.615 234.705 11.55 234.525 11.42C234.345 11.28 234.2 11.12 234.09 10.94L233.43 9.755ZM249.024 23V7.61H251.289C251.769 7.61 252.084 7.835 252.234 8.285L252.474 9.425C252.744 9.125 253.024 8.85 253.314 8.6C253.614 8.35 253.929 8.135 254.259 7.955C254.599 7.775 254.959 7.635 255.339 7.535C255.729 7.425 256.154 7.37 256.614 7.37C257.584 7.37 258.379 7.635 258.999 8.165C259.629 8.685 260.099 9.38 260.409 10.25C260.649 9.74 260.949 9.305 261.309 8.945C261.669 8.575 262.064 8.275 262.494 8.045C262.924 7.815 263.379 7.645 263.859 7.535C264.349 7.425 264.839 7.37 265.329 7.37C266.179 7.37 266.934 7.5 267.594 7.76C268.254 8.02 268.809 8.4 269.259 8.9C269.709 9.4 270.049 10.01 270.279 10.73C270.519 11.45 270.639 12.275 270.639 13.205V23H266.934V13.205C266.934 12.225 266.719 11.49 266.289 11C265.859 10.5 265.229 10.25 264.399 10.25C264.019 10.25 263.664 10.315 263.334 10.445C263.014 10.575 262.729 10.765 262.479 11.015C262.239 11.255 262.049 11.56 261.909 11.93C261.769 12.3 261.699 12.725 261.699 13.205V23H257.979V13.205C257.979 12.175 257.769 11.425 257.349 10.955C256.939 10.485 256.334 10.25 255.534 10.25C254.994 10.25 254.489 10.385 254.019 10.655C253.559 10.915 253.129 11.275 252.729 11.735V23H249.024ZM302.816 7.61L297.926 23H294.956C294.616 23 294.381 22.78 294.251 22.34L291.491 13.445C291.401 13.145 291.316 12.85 291.236 12.56C291.166 12.26 291.106 11.96 291.056 11.66C290.996 11.96 290.926 12.265 290.846 12.575C290.776 12.875 290.696 13.175 290.606 13.475L287.801 22.34C287.681 22.78 287.416 23 287.006 23H284.156L279.281 7.61H282.236C282.506 7.61 282.736 7.675 282.926 7.805C283.116 7.935 283.241 8.1 283.301 8.3L285.506 16.52C285.616 16.97 285.711 17.41 285.791 17.84C285.881 18.27 285.956 18.7 286.016 19.13C286.126 18.7 286.241 18.27 286.361 17.84C286.491 17.41 286.626 16.97 286.766 16.52L289.316 8.27C289.376 8.07 289.491 7.905 289.661 7.775C289.841 7.645 290.056 7.58 290.306 7.58H291.941C292.201 7.58 292.421 7.645 292.601 7.775C292.791 7.905 292.916 8.07 292.976 8.27L295.451 16.52C295.581 16.97 295.701 17.415 295.811 17.855C295.931 18.285 296.046 18.715 296.156 19.145C296.286 18.295 296.471 17.42 296.711 16.52L298.976 8.3C299.046 8.1 299.171 7.935 299.351 7.805C299.531 7.675 299.746 7.61 299.996 7.61H302.816ZM314.574 13.535C314.574 13.055 314.504 12.605 314.364 12.185C314.234 11.755 314.034 11.38 313.764 11.06C313.494 10.74 313.149 10.49 312.729 10.31C312.319 10.12 311.839 10.025 311.289 10.025C310.219 10.025 309.374 10.33 308.754 10.94C308.144 11.55 307.754 12.415 307.584 13.535H314.574ZM307.509 15.77C307.569 16.56 307.709 17.245 307.929 17.825C308.149 18.395 308.439 18.87 308.799 19.25C309.159 19.62 309.584 19.9 310.074 20.09C310.574 20.27 311.124 20.36 311.724 20.36C312.324 20.36 312.839 20.29 313.269 20.15C313.709 20.01 314.089 19.855 314.409 19.685C314.739 19.515 315.024 19.36 315.264 19.22C315.514 19.08 315.754 19.01 315.984 19.01C316.294 19.01 316.524 19.125 316.674 19.355L317.739 20.705C317.329 21.185 316.869 21.59 316.359 21.92C315.849 22.24 315.314 22.5 314.754 22.7C314.204 22.89 313.639 23.025 313.059 23.105C312.489 23.185 311.934 23.225 311.394 23.225C310.324 23.225 309.329 23.05 308.409 22.7C307.489 22.34 306.689 21.815 306.009 21.125C305.329 20.425 304.794 19.565 304.404 18.545C304.014 17.515 303.819 16.325 303.819 14.975C303.819 13.925 303.989 12.94 304.329 12.02C304.669 11.09 305.154 10.285 305.784 9.605C306.424 8.915 307.199 8.37 308.109 7.97C309.029 7.57 310.064 7.37 311.214 7.37C312.184 7.37 313.079 7.525 313.899 7.835C314.719 8.145 315.424 8.6 316.014 9.2C316.604 9.79 317.064 10.52 317.394 11.39C317.734 12.25 317.904 13.235 317.904 14.345C317.904 14.905 317.844 15.285 317.724 15.485C317.604 15.675 317.374 15.77 317.034 15.77H307.509ZM324.179 10.28C324.659 9.36 325.229 8.64 325.889 8.12C326.549 7.59 327.329 7.325 328.229 7.325C328.939 7.325 329.509 7.48 329.939 7.79L329.699 10.565C329.649 10.745 329.574 10.875 329.474 10.955C329.384 11.025 329.259 11.06 329.099 11.06C328.949 11.06 328.724 11.035 328.424 10.985C328.134 10.935 327.849 10.91 327.569 10.91C327.159 10.91 326.794 10.97 326.474 11.09C326.154 11.21 325.864 11.385 325.604 11.615C325.354 11.835 325.129 12.105 324.929 12.425C324.739 12.745 324.559 13.11 324.389 13.52V23H320.684V7.61H322.859C323.239 7.61 323.504 7.68 323.654 7.82C323.804 7.95 323.904 8.19 323.954 8.54L324.179 10.28ZM341.351 13.535C341.351 13.055 341.281 12.605 341.141 12.185C341.011 11.755 340.811 11.38 340.541 11.06C340.271 10.74 339.926 10.49 339.506 10.31C339.096 10.12 338.616 10.025 338.066 10.025C336.996 10.025 336.151 10.33 335.531 10.94C334.921 11.55 334.531 12.415 334.361 13.535H341.351ZM334.286 15.77C334.346 16.56 334.486 17.245 334.706 17.825C334.926 18.395 335.216 18.87 335.576 19.25C335.936 19.62 336.361 19.9 336.851 20.09C337.351 20.27 337.901 20.36 338.501 20.36C339.101 20.36 339.616 20.29 340.046 20.15C340.486 20.01 340.866 19.855 341.186 19.685C341.516 19.515 341.801 19.36 342.041 19.22C342.291 19.08 342.531 19.01 342.761 19.01C343.071 19.01 343.301 19.125 343.451 19.355L344.516 20.705C344.106 21.185 343.646 21.59 343.136 21.92C342.626 22.24 342.091 22.5 341.531 22.7C340.981 22.89 340.416 23.025 339.836 23.105C339.266 23.185 338.711 23.225 338.171 23.225C337.101 23.225 336.106 23.05 335.186 22.7C334.266 22.34 333.466 21.815 332.786 21.125C332.106 20.425 331.571 19.565 331.181 18.545C330.791 17.515 330.596 16.325 330.596 14.975C330.596 13.925 330.766 12.94 331.106 12.02C331.446 11.09 331.931 10.285 332.561 9.605C333.201 8.915 333.976 8.37 334.886 7.97C335.806 7.57 336.841 7.37 337.991 7.37C338.961 7.37 339.856 7.525 340.676 7.835C341.496 8.145 342.201 8.6 342.791 9.2C343.381 9.79 343.841 10.52 344.171 11.39C344.511 12.25 344.681 13.235 344.681 14.345C344.681 14.905 344.621 15.285 344.501 15.485C344.381 15.675 344.151 15.77 343.811 15.77H334.286ZM358.252 10.28C358.732 9.36 359.302 8.64 359.962 8.12C360.622 7.59 361.402 7.325 362.302 7.325C363.012 7.325 363.582 7.48 364.012 7.79L363.772 10.565C363.722 10.745 363.647 10.875 363.547 10.955C363.457 11.025 363.332 11.06 363.172 11.06C363.022 11.06 362.797 11.035 362.497 10.985C362.207 10.935 361.922 10.91 361.642 10.91C361.232 10.91 360.867 10.97 360.547 11.09C360.227 11.21 359.937 11.385 359.677 11.615C359.427 11.835 359.202 12.105 359.002 12.425C358.812 12.745 358.632 13.11 358.462 13.52V23H354.757V7.61H356.932C357.312 7.61 357.577 7.68 357.727 7.82C357.877 7.95 357.977 8.19 358.027 8.54L358.252 10.28ZM375.424 13.535C375.424 13.055 375.354 12.605 375.214 12.185C375.084 11.755 374.884 11.38 374.614 11.06C374.344 10.74 373.999 10.49 373.579 10.31C373.169 10.12 372.689 10.025 372.139 10.025C371.069 10.025 370.224 10.33 369.604 10.94C368.994 11.55 368.604 12.415 368.434 13.535H375.424ZM368.359 15.77C368.419 16.56 368.559 17.245 368.779 17.825C368.999 18.395 369.289 18.87 369.649 19.25C370.009 19.62 370.434 19.9 370.924 20.09C371.424 20.27 371.974 20.36 372.574 20.36C373.174 20.36 373.689 20.29 374.119 20.15C374.559 20.01 374.939 19.855 375.259 19.685C375.589 19.515 375.874 19.36 376.114 19.22C376.364 19.08 376.604 19.01 376.834 19.01C377.144 19.01 377.374 19.125 377.524 19.355L378.589 20.705C378.179 21.185 377.719 21.59 377.209 21.92C376.699 22.24 376.164 22.5 375.604 22.7C375.054 22.89 374.489 23.025 373.909 23.105C373.339 23.185 372.784 23.225 372.244 23.225C371.174 23.225 370.179 23.05 369.259 22.7C368.339 22.34 367.539 21.815 366.859 21.125C366.179 20.425 365.644 19.565 365.254 18.545C364.864 17.515 364.669 16.325 364.669 14.975C364.669 13.925 364.839 12.94 365.179 12.02C365.519 11.09 366.004 10.285 366.634 9.605C367.274 8.915 368.049 8.37 368.959 7.97C369.879 7.57 370.914 7.37 372.064 7.37C373.034 7.37 373.929 7.525 374.749 7.835C375.569 8.145 376.274 8.6 376.864 9.2C377.454 9.79 377.914 10.52 378.244 11.39C378.584 12.25 378.754 13.235 378.754 14.345C378.754 14.905 378.694 15.285 378.574 15.485C378.454 15.675 378.224 15.77 377.884 15.77H368.359ZM385.284 0.709999V23H381.579V0.709999H385.284ZM392.726 0.709999V23H389.021V0.709999H392.726ZM410.397 7.61L402.012 27.23C401.902 27.49 401.757 27.685 401.577 27.815C401.407 27.955 401.142 28.025 400.782 28.025H398.022L400.902 21.845L394.677 7.61H397.932C398.222 7.61 398.447 7.68 398.607 7.82C398.777 7.96 398.902 8.12 398.982 8.3L402.252 16.28C402.362 16.55 402.452 16.82 402.522 17.09C402.602 17.36 402.677 17.635 402.747 17.915C402.837 17.635 402.927 17.36 403.017 17.09C403.107 16.81 403.207 16.535 403.317 16.265L406.407 8.3C406.487 8.1 406.617 7.935 406.797 7.805C406.987 7.675 407.197 7.61 407.427 7.61H410.397Z" fill="#002845"/>
</svg>
