<svg width="416" height="84" viewBox="0 0 416 84" fill="none" xmlns="http://www.w3.org/2000/svg">
<path d="M14.7682 3.125H8.96816V19H6.55566V3.125H0.743164V1.0875H14.7682V3.125ZM18.9189 8.025C19.4606 7.45 20.0606 6.99167 20.7189 6.65C21.3773 6.30833 22.1356 6.1375 22.9939 6.1375C23.6856 6.1375 24.2939 6.25417 24.8189 6.4875C25.3523 6.7125 25.7939 7.0375 26.1439 7.4625C26.5023 7.87917 26.7731 8.38333 26.9564 8.975C27.1398 9.56667 27.2314 10.2208 27.2314 10.9375V19H24.9939V10.9375C24.9939 9.97917 24.7731 9.2375 24.3314 8.7125C23.8981 8.17917 23.2356 7.9125 22.3439 7.9125C21.6856 7.9125 21.0689 8.07083 20.4939 8.3875C19.9273 8.70417 19.4023 9.13333 18.9189 9.675V19H16.6814V0.587499H18.9189V8.025ZM39.0969 11.2875C39.0969 10.7708 39.0219 10.3 38.8719 9.875C38.7302 9.44167 38.5177 9.07083 38.2344 8.7625C37.9594 8.44583 37.6219 8.20417 37.2219 8.0375C36.8219 7.8625 36.3677 7.775 35.8594 7.775C34.7927 7.775 33.9469 8.0875 33.3219 8.7125C32.7052 9.32917 32.3219 10.1875 32.1719 11.2875H39.0969ZM40.8969 17.225C40.6219 17.5583 40.2927 17.85 39.9094 18.1C39.526 18.3417 39.1135 18.5417 38.6719 18.7C38.2385 18.8583 37.7885 18.975 37.3219 19.05C36.8552 19.1333 36.3927 19.175 35.9344 19.175C35.0594 19.175 34.251 19.0292 33.5094 18.7375C32.776 18.4375 32.1385 18.0042 31.5969 17.4375C31.0635 16.8625 30.6469 16.1542 30.3469 15.3125C30.0469 14.4708 29.8969 13.5042 29.8969 12.4125C29.8969 11.5292 30.0302 10.7042 30.2969 9.9375C30.5719 9.17083 30.9635 8.50833 31.4719 7.95C31.9802 7.38333 32.601 6.94167 33.3344 6.625C34.0677 6.3 34.8927 6.1375 35.8094 6.1375C36.5677 6.1375 37.2677 6.26667 37.9094 6.525C38.5594 6.775 39.1177 7.14167 39.5844 7.625C40.0594 8.1 40.4302 8.69167 40.6969 9.4C40.9635 10.1 41.0969 10.9 41.0969 11.8C41.0969 12.15 41.0594 12.3833 40.9844 12.5C40.9094 12.6167 40.7677 12.675 40.5594 12.675H32.0969C32.1219 13.475 32.2302 14.1708 32.4219 14.7625C32.6219 15.3542 32.8969 15.85 33.2469 16.25C33.5969 16.6417 34.0135 16.9375 34.4969 17.1375C34.9802 17.3292 35.5219 17.425 36.1219 17.425C36.6802 17.425 37.1594 17.3625 37.5594 17.2375C37.9677 17.1042 38.3177 16.9625 38.6094 16.8125C38.901 16.6625 39.1427 16.525 39.3344 16.4C39.5344 16.2667 39.7052 16.2 39.8469 16.2C40.0302 16.2 40.1719 16.2708 40.2719 16.4125L40.8969 17.225ZM57.0389 17.075C57.7305 17.075 58.3264 16.9958 58.8264 16.8375C59.3264 16.6792 59.7347 16.4583 60.0514 16.175C60.3764 15.8833 60.6139 15.5417 60.7639 15.15C60.9139 14.75 60.9889 14.3125 60.9889 13.8375C60.9889 12.9125 60.6597 12.1833 60.0014 11.65C59.343 11.1083 58.3555 10.8375 57.0389 10.8375H53.1639V17.075H57.0389ZM53.1639 3V9.1125H56.3639C57.0472 9.1125 57.6389 9.0375 58.1389 8.8875C58.6472 8.7375 59.0639 8.52917 59.3889 8.2625C59.7222 7.99583 59.968 7.675 60.1264 7.3C60.2847 6.91667 60.3639 6.5 60.3639 6.05C60.3639 4.99167 60.0472 4.22083 59.4139 3.7375C58.7805 3.24583 57.7972 3 56.4639 3H53.1639ZM56.4639 1.0875C57.5639 1.0875 58.5097 1.19583 59.3014 1.4125C60.1014 1.62917 60.7555 1.9375 61.2639 2.3375C61.7805 2.7375 62.1597 3.22917 62.4014 3.8125C62.643 4.3875 62.7639 5.0375 62.7639 5.7625C62.7639 6.20417 62.693 6.62917 62.5514 7.0375C62.418 7.4375 62.2139 7.8125 61.9389 8.1625C61.6639 8.5125 61.3139 8.82917 60.8889 9.1125C60.4722 9.3875 59.9805 9.6125 59.4139 9.7875C60.7305 10.0375 61.718 10.5083 62.3764 11.2C63.043 11.8833 63.3764 12.7833 63.3764 13.9C63.3764 14.6583 63.2347 15.35 62.9514 15.975C62.6764 16.6 62.268 17.1375 61.7264 17.5875C61.193 18.0375 60.5347 18.3875 59.7514 18.6375C58.968 18.8792 58.0764 19 57.0764 19H50.7514V1.0875H56.4639ZM68.2324 8.875C68.6324 8.00833 69.1241 7.33333 69.7074 6.85C70.2908 6.35833 71.0033 6.1125 71.8449 6.1125C72.1116 6.1125 72.3658 6.14167 72.6074 6.2C72.8574 6.25833 73.0783 6.35 73.2699 6.475L73.1074 8.1375C73.0574 8.34583 72.9324 8.45 72.7324 8.45C72.6158 8.45 72.4449 8.425 72.2199 8.375C71.9949 8.325 71.7408 8.3 71.4574 8.3C71.0574 8.3 70.6991 8.35833 70.3824 8.475C70.0741 8.59167 69.7949 8.76667 69.5449 9C69.3033 9.225 69.0824 9.50833 68.8824 9.85C68.6908 10.1833 68.5158 10.5667 68.3574 11V19H66.1199V6.3375H67.3949C67.6366 6.3375 67.8033 6.38333 67.8949 6.475C67.9866 6.56667 68.0491 6.725 68.0824 6.95L68.2324 8.875ZM77.5764 6.3375V19H75.3514V6.3375H77.5764ZM78.0514 2.3625C78.0514 2.57917 78.0055 2.78333 77.9139 2.975C77.8305 3.15833 77.7139 3.325 77.5639 3.475C77.4222 3.61667 77.2514 3.72917 77.0514 3.8125C76.8597 3.89583 76.6555 3.9375 76.4389 3.9375C76.2222 3.9375 76.018 3.89583 75.8264 3.8125C75.643 3.72917 75.4805 3.61667 75.3389 3.475C75.1972 3.325 75.0847 3.15833 75.0014 2.975C74.918 2.78333 74.8764 2.57917 74.8764 2.3625C74.8764 2.14583 74.918 1.94167 75.0014 1.75C75.0847 1.55 75.1972 1.37917 75.3389 1.2375C75.4805 1.0875 75.643 0.970833 75.8264 0.887498C76.018 0.804165 76.2222 0.762499 76.4389 0.762499C76.6555 0.762499 76.8597 0.804165 77.0514 0.887498C77.2514 0.970833 77.4222 1.0875 77.5639 1.2375C77.7139 1.37917 77.8305 1.55 77.9139 1.75C78.0055 1.94167 78.0514 2.14583 78.0514 2.3625ZM90.0447 8.5875C89.9781 8.67917 89.9114 8.75 89.8447 8.8C89.7781 8.85 89.6864 8.875 89.5697 8.875C89.4447 8.875 89.3072 8.825 89.1572 8.725C89.0072 8.61667 88.8197 8.5 88.5947 8.375C88.3781 8.25 88.1072 8.1375 87.7822 8.0375C87.4656 7.92917 87.0739 7.875 86.6072 7.875C85.9822 7.875 85.4322 7.9875 84.9572 8.2125C84.4822 8.42917 84.0822 8.74583 83.7572 9.1625C83.4406 9.57917 83.1989 10.0833 83.0322 10.675C82.8739 11.2667 82.7947 11.9292 82.7947 12.6625C82.7947 13.4292 82.8822 14.1125 83.0572 14.7125C83.2322 15.3042 83.4781 15.8042 83.7947 16.2125C84.1197 16.6125 84.5072 16.9208 84.9572 17.1375C85.4156 17.3458 85.9281 17.45 86.4947 17.45C87.0364 17.45 87.4822 17.3875 87.8322 17.2625C88.1822 17.1292 88.4697 16.9833 88.6947 16.825C88.9281 16.6667 89.1197 16.525 89.2697 16.4C89.4281 16.2667 89.5822 16.2 89.7322 16.2C89.9156 16.2 90.0572 16.2708 90.1572 16.4125L90.7822 17.225C90.5072 17.5667 90.1947 17.8583 89.8447 18.1C89.4947 18.3417 89.1156 18.5458 88.7072 18.7125C88.3072 18.8708 87.8864 18.9875 87.4447 19.0625C87.0031 19.1375 86.5531 19.175 86.0947 19.175C85.3031 19.175 84.5656 19.0292 83.8822 18.7375C83.2072 18.4458 82.6197 18.025 82.1197 17.475C81.6197 16.9167 81.2281 16.2333 80.9447 15.425C80.6614 14.6167 80.5197 13.6958 80.5197 12.6625C80.5197 11.7208 80.6489 10.85 80.9072 10.05C81.1739 9.25 81.5572 8.5625 82.0572 7.9875C82.5656 7.40417 83.1864 6.95 83.9197 6.625C84.6614 6.3 85.5114 6.1375 86.4697 6.1375C87.3614 6.1375 88.1447 6.28333 88.8197 6.575C89.5031 6.85833 90.1072 7.2625 90.6322 7.7875L90.0447 8.5875ZM95.4082 0.587499V11.425H95.9832C96.1499 11.425 96.2874 11.4042 96.3957 11.3625C96.5124 11.3125 96.6332 11.2167 96.7582 11.075L100.758 6.7875C100.875 6.64583 100.996 6.5375 101.121 6.4625C101.254 6.37917 101.429 6.3375 101.646 6.3375H103.658L98.9957 11.3C98.7707 11.5833 98.529 11.8042 98.2707 11.9625C98.4207 12.0625 98.554 12.1792 98.6707 12.3125C98.7957 12.4375 98.9124 12.5833 99.0207 12.75L103.971 19H101.983C101.792 19 101.625 18.9708 101.483 18.9125C101.35 18.8458 101.233 18.7292 101.133 18.5625L96.9707 13.375C96.8457 13.2 96.7207 13.0875 96.5957 13.0375C96.479 12.9792 96.2957 12.95 96.0457 12.95H95.4082V19H93.1707V0.587499H95.4082ZM108.104 15.95C108.512 16.5 108.958 16.8875 109.441 17.1125C109.933 17.3375 110.47 17.45 111.054 17.45C112.245 17.45 113.158 17.0292 113.791 16.1875C114.424 15.3458 114.741 14.0917 114.741 12.425C114.741 10.875 114.458 9.7375 113.891 9.0125C113.333 8.27917 112.533 7.9125 111.491 7.9125C110.766 7.9125 110.133 8.07917 109.591 8.4125C109.058 8.74583 108.562 9.21667 108.104 9.825V15.95ZM108.104 8.1625C108.637 7.54583 109.237 7.05417 109.904 6.6875C110.579 6.32083 111.354 6.1375 112.229 6.1375C112.97 6.1375 113.637 6.27917 114.229 6.5625C114.829 6.84583 115.337 7.25833 115.754 7.8C116.17 8.33333 116.487 8.98333 116.704 9.75C116.929 10.5167 117.041 11.3792 117.041 12.3375C117.041 13.3625 116.916 14.2958 116.666 15.1375C116.416 15.9792 116.054 16.7 115.579 17.3C115.112 17.8917 114.541 18.3542 113.866 18.6875C113.191 19.0125 112.433 19.175 111.591 19.175C110.758 19.175 110.054 19.0208 109.479 18.7125C108.912 18.3958 108.416 17.95 107.991 17.375L107.879 18.525C107.812 18.8417 107.62 19 107.304 19H105.866V0.587499H108.104V8.1625ZM128.33 11.2875C128.33 10.7708 128.255 10.3 128.105 9.875C127.964 9.44167 127.751 9.07083 127.468 8.7625C127.193 8.44583 126.855 8.20417 126.455 8.0375C126.055 7.8625 125.601 7.775 125.093 7.775C124.026 7.775 123.18 8.0875 122.555 8.7125C121.939 9.32917 121.555 10.1875 121.405 11.2875H128.33ZM130.13 17.225C129.855 17.5583 129.526 17.85 129.143 18.1C128.759 18.3417 128.347 18.5417 127.905 18.7C127.472 18.8583 127.022 18.975 126.555 19.05C126.089 19.1333 125.626 19.175 125.168 19.175C124.293 19.175 123.484 19.0292 122.743 18.7375C122.009 18.4375 121.372 18.0042 120.83 17.4375C120.297 16.8625 119.88 16.1542 119.58 15.3125C119.28 14.4708 119.13 13.5042 119.13 12.4125C119.13 11.5292 119.264 10.7042 119.53 9.9375C119.805 9.17083 120.197 8.50833 120.705 7.95C121.214 7.38333 121.834 6.94167 122.568 6.625C123.301 6.3 124.126 6.1375 125.043 6.1375C125.801 6.1375 126.501 6.26667 127.143 6.525C127.793 6.775 128.351 7.14167 128.818 7.625C129.293 8.1 129.664 8.69167 129.93 9.4C130.197 10.1 130.33 10.9 130.33 11.8C130.33 12.15 130.293 12.3833 130.218 12.5C130.143 12.6167 130.001 12.675 129.793 12.675H121.33C121.355 13.475 121.464 14.1708 121.655 14.7625C121.855 15.3542 122.13 15.85 122.48 16.25C122.83 16.6417 123.247 16.9375 123.73 17.1375C124.214 17.3292 124.755 17.425 125.355 17.425C125.914 17.425 126.393 17.3625 126.793 17.2375C127.201 17.1042 127.551 16.9625 127.843 16.8125C128.134 16.6625 128.376 16.525 128.568 16.4C128.768 16.2667 128.939 16.2 129.08 16.2C129.264 16.2 129.405 16.2708 129.505 16.4125L130.13 17.225ZM135.176 8.875C135.576 8.00833 136.067 7.33333 136.651 6.85C137.234 6.35833 137.947 6.1125 138.788 6.1125C139.055 6.1125 139.309 6.14167 139.551 6.2C139.801 6.25833 140.022 6.35 140.213 6.475L140.051 8.1375C140.001 8.34583 139.876 8.45 139.676 8.45C139.559 8.45 139.388 8.425 139.163 8.375C138.938 8.325 138.684 8.3 138.401 8.3C138.001 8.3 137.642 8.35833 137.326 8.475C137.017 8.59167 136.738 8.76667 136.488 9C136.247 9.225 136.026 9.50833 135.826 9.85C135.634 10.1833 135.459 10.5667 135.301 11V19H133.063V6.3375H134.338C134.58 6.3375 134.747 6.38333 134.838 6.475C134.93 6.56667 134.992 6.725 135.026 6.95L135.176 8.875ZM144.282 8.875C144.682 8.00833 145.174 7.33333 145.757 6.85C146.341 6.35833 147.053 6.1125 147.895 6.1125C148.161 6.1125 148.416 6.14167 148.657 6.2C148.907 6.25833 149.128 6.35 149.32 6.475L149.157 8.1375C149.107 8.34583 148.982 8.45 148.782 8.45C148.666 8.45 148.495 8.425 148.27 8.375C148.045 8.325 147.791 8.3 147.507 8.3C147.107 8.3 146.749 8.35833 146.432 8.475C146.124 8.59167 145.845 8.76667 145.595 9C145.353 9.225 145.132 9.50833 144.932 9.85C144.741 10.1833 144.566 10.5667 144.407 11V19H142.17V6.3375H143.445C143.686 6.3375 143.853 6.38333 143.945 6.475C144.036 6.56667 144.099 6.725 144.132 6.95L144.282 8.875ZM162.201 6.3375L155.139 22.7375C155.064 22.9042 154.968 23.0375 154.851 23.1375C154.743 23.2375 154.572 23.2875 154.339 23.2875H152.689L155.001 18.2625L149.776 6.3375H151.701C151.893 6.3375 152.043 6.3875 152.151 6.4875C152.268 6.57917 152.347 6.68333 152.389 6.8L155.776 14.775C155.91 15.125 156.022 15.4917 156.114 15.875C156.23 15.4833 156.355 15.1125 156.489 14.7625L159.776 6.8C159.826 6.66667 159.91 6.55833 160.026 6.475C160.151 6.38333 160.289 6.3375 160.439 6.3375H162.201ZM173.84 19.2C172.84 19.2 172.07 18.9208 171.528 18.3625C170.995 17.8042 170.728 17 170.728 15.95V8.2H169.203C169.07 8.2 168.957 8.1625 168.865 8.0875C168.774 8.00417 168.728 7.87917 168.728 7.7125V6.825L170.803 6.5625L171.315 2.65C171.34 2.525 171.395 2.425 171.478 2.35C171.57 2.26667 171.686 2.225 171.828 2.225H172.953V6.5875H176.615V8.2H172.953V15.8C172.953 16.3333 173.082 16.7292 173.34 16.9875C173.599 17.2458 173.932 17.375 174.34 17.375C174.574 17.375 174.774 17.3458 174.94 17.2875C175.115 17.2208 175.265 17.15 175.39 17.075C175.515 17 175.62 16.9333 175.703 16.875C175.795 16.8083 175.874 16.775 175.94 16.775C176.057 16.775 176.161 16.8458 176.253 16.9875L176.903 18.05C176.52 18.4083 176.057 18.6917 175.515 18.9C174.974 19.1 174.415 19.2 173.84 19.2ZM187.315 11.2875C187.315 10.7708 187.24 10.3 187.09 9.875C186.948 9.44167 186.735 9.07083 186.452 8.7625C186.177 8.44583 185.84 8.20417 185.44 8.0375C185.04 7.8625 184.585 7.775 184.077 7.775C183.01 7.775 182.165 8.0875 181.54 8.7125C180.923 9.32917 180.54 10.1875 180.39 11.2875H187.315ZM189.115 17.225C188.84 17.5583 188.51 17.85 188.127 18.1C187.744 18.3417 187.331 18.5417 186.89 18.7C186.456 18.8583 186.006 18.975 185.54 19.05C185.073 19.1333 184.61 19.175 184.152 19.175C183.277 19.175 182.469 19.0292 181.727 18.7375C180.994 18.4375 180.356 18.0042 179.815 17.4375C179.281 16.8625 178.865 16.1542 178.565 15.3125C178.265 14.4708 178.115 13.5042 178.115 12.4125C178.115 11.5292 178.248 10.7042 178.515 9.9375C178.79 9.17083 179.181 8.50833 179.69 7.95C180.198 7.38333 180.819 6.94167 181.552 6.625C182.285 6.3 183.11 6.1375 184.027 6.1375C184.785 6.1375 185.485 6.26667 186.127 6.525C186.777 6.775 187.335 7.14167 187.802 7.625C188.277 8.1 188.648 8.69167 188.915 9.4C189.181 10.1 189.315 10.9 189.315 11.8C189.315 12.15 189.277 12.3833 189.202 12.5C189.127 12.6167 188.985 12.675 188.777 12.675H180.315C180.34 13.475 180.448 14.1708 180.64 14.7625C180.84 15.3542 181.115 15.85 181.465 16.25C181.815 16.6417 182.231 16.9375 182.715 17.1375C183.198 17.3292 183.74 17.425 184.34 17.425C184.898 17.425 185.377 17.3625 185.777 17.2375C186.185 17.1042 186.535 16.9625 186.827 16.8125C187.119 16.6625 187.36 16.525 187.552 16.4C187.752 16.2667 187.923 16.2 188.065 16.2C188.248 16.2 188.39 16.2708 188.49 16.4125L189.115 17.225ZM198.91 13.3C197.885 13.3333 197.01 13.4167 196.285 13.55C195.568 13.675 194.981 13.8417 194.523 14.05C194.073 14.2583 193.743 14.5042 193.535 14.7875C193.335 15.0708 193.235 15.3875 193.235 15.7375C193.235 16.0708 193.289 16.3583 193.398 16.6C193.506 16.8417 193.652 17.0417 193.835 17.2C194.027 17.35 194.248 17.4625 194.498 17.5375C194.756 17.6042 195.031 17.6375 195.323 17.6375C195.714 17.6375 196.073 17.6 196.398 17.525C196.723 17.4417 197.027 17.325 197.31 17.175C197.602 17.025 197.877 16.8458 198.135 16.6375C198.402 16.4292 198.66 16.1917 198.91 15.925V13.3ZM191.723 8.125C192.423 7.45 193.177 6.94583 193.985 6.6125C194.793 6.27917 195.689 6.1125 196.673 6.1125C197.381 6.1125 198.01 6.22917 198.56 6.4625C199.11 6.69583 199.573 7.02083 199.948 7.4375C200.323 7.85417 200.606 8.35833 200.798 8.95C200.989 9.54167 201.085 10.1917 201.085 10.9V19H200.098C199.881 19 199.714 18.9667 199.598 18.9C199.481 18.825 199.389 18.6833 199.323 18.475L199.073 17.275C198.739 17.5833 198.414 17.8583 198.098 18.1C197.781 18.3333 197.448 18.5333 197.098 18.7C196.748 18.8583 196.373 18.9792 195.973 19.0625C195.581 19.1542 195.143 19.2 194.66 19.2C194.168 19.2 193.706 19.1333 193.273 19C192.839 18.8583 192.46 18.65 192.135 18.375C191.818 18.1 191.564 17.7542 191.373 17.3375C191.189 16.9125 191.098 16.4125 191.098 15.8375C191.098 15.3375 191.235 14.8583 191.51 14.4C191.785 13.9333 192.231 13.5208 192.848 13.1625C193.464 12.8042 194.268 12.5125 195.26 12.2875C196.252 12.0542 197.468 11.9208 198.91 11.8875V10.9C198.91 9.91667 198.698 9.175 198.273 8.675C197.848 8.16667 197.227 7.9125 196.41 7.9125C195.86 7.9125 195.398 7.98333 195.023 8.125C194.656 8.25833 194.335 8.4125 194.06 8.5875C193.793 8.75417 193.56 8.90833 193.36 9.05C193.168 9.18333 192.977 9.25 192.785 9.25C192.635 9.25 192.506 9.2125 192.398 9.1375C192.289 9.05417 192.198 8.95417 192.123 8.8375L191.723 8.125ZM204.474 19V6.3375H205.812C206.129 6.3375 206.324 6.49167 206.399 6.8L206.562 8.1C207.029 7.525 207.554 7.05417 208.137 6.6875C208.72 6.32083 209.395 6.1375 210.162 6.1375C211.012 6.1375 211.699 6.375 212.224 6.85C212.758 7.325 213.141 7.96667 213.374 8.775C213.558 8.31667 213.791 7.92083 214.074 7.5875C214.366 7.25417 214.691 6.97917 215.049 6.7625C215.408 6.54583 215.787 6.3875 216.187 6.2875C216.595 6.1875 217.008 6.1375 217.424 6.1375C218.091 6.1375 218.683 6.24583 219.199 6.4625C219.724 6.67083 220.166 6.97917 220.524 7.3875C220.891 7.79583 221.17 8.3 221.362 8.9C221.554 9.49167 221.649 10.1708 221.649 10.9375V19H219.412V10.9375C219.412 9.94583 219.195 9.19583 218.762 8.6875C218.329 8.17083 217.704 7.9125 216.887 7.9125C216.52 7.9125 216.17 7.97917 215.837 8.1125C215.512 8.2375 215.224 8.425 214.974 8.675C214.724 8.925 214.524 9.24167 214.374 9.625C214.233 10 214.162 10.4375 214.162 10.9375V19H211.924V10.9375C211.924 9.92083 211.72 9.1625 211.312 8.6625C210.904 8.1625 210.308 7.9125 209.524 7.9125C208.974 7.9125 208.466 8.0625 207.999 8.3625C207.533 8.65417 207.104 9.05417 206.712 9.5625V19H204.474ZM248.377 6.3375L244.277 19H242.515C242.298 19 242.148 18.8583 242.065 18.575L239.265 9.9875C239.198 9.79583 239.144 9.60417 239.102 9.4125C239.061 9.2125 239.019 9.01667 238.977 8.825C238.936 9.01667 238.894 9.2125 238.852 9.4125C238.811 9.60417 238.757 9.8 238.69 10L235.84 18.575C235.765 18.8583 235.598 19 235.34 19H233.665L229.565 6.3375H231.315C231.49 6.3375 231.636 6.38333 231.752 6.475C231.877 6.56667 231.961 6.675 232.002 6.8L234.427 14.95C234.569 15.55 234.682 16.1167 234.765 16.65C234.84 16.375 234.915 16.0958 234.99 15.8125C235.073 15.5292 235.161 15.2417 235.252 14.95L237.927 6.75C237.969 6.625 238.04 6.52083 238.14 6.4375C238.248 6.35417 238.377 6.3125 238.527 6.3125H239.502C239.669 6.3125 239.807 6.35417 239.915 6.4375C240.023 6.52083 240.098 6.625 240.14 6.75L242.752 14.95C242.844 15.2417 242.927 15.5292 243.002 15.8125C243.077 16.0958 243.148 16.375 243.215 16.65C243.257 16.375 243.307 16.1 243.365 15.825C243.432 15.5417 243.502 15.25 243.577 14.95L246.052 6.8C246.094 6.66667 246.173 6.55833 246.29 6.475C246.407 6.38333 246.544 6.3375 246.702 6.3375H248.377ZM258.848 11.2875C258.848 10.7708 258.773 10.3 258.623 9.875C258.481 9.44167 258.269 9.07083 257.985 8.7625C257.71 8.44583 257.373 8.20417 256.973 8.0375C256.573 7.8625 256.119 7.775 255.61 7.775C254.544 7.775 253.698 8.0875 253.073 8.7125C252.456 9.32917 252.073 10.1875 251.923 11.2875H258.848ZM260.648 17.225C260.373 17.5583 260.044 17.85 259.66 18.1C259.277 18.3417 258.865 18.5417 258.423 18.7C257.99 18.8583 257.54 18.975 257.073 19.05C256.606 19.1333 256.144 19.175 255.685 19.175C254.81 19.175 254.002 19.0292 253.26 18.7375C252.527 18.4375 251.89 18.0042 251.348 17.4375C250.815 16.8625 250.398 16.1542 250.098 15.3125C249.798 14.4708 249.648 13.5042 249.648 12.4125C249.648 11.5292 249.781 10.7042 250.048 9.9375C250.323 9.17083 250.715 8.50833 251.223 7.95C251.731 7.38333 252.352 6.94167 253.085 6.625C253.819 6.3 254.644 6.1375 255.56 6.1375C256.319 6.1375 257.019 6.26667 257.66 6.525C258.31 6.775 258.869 7.14167 259.335 7.625C259.81 8.1 260.181 8.69167 260.448 9.4C260.715 10.1 260.848 10.9 260.848 11.8C260.848 12.15 260.81 12.3833 260.735 12.5C260.66 12.6167 260.519 12.675 260.31 12.675H251.848C251.873 13.475 251.981 14.1708 252.173 14.7625C252.373 15.3542 252.648 15.85 252.998 16.25C253.348 16.6417 253.765 16.9375 254.248 17.1375C254.731 17.3292 255.273 17.425 255.873 17.425C256.431 17.425 256.91 17.3625 257.31 17.2375C257.719 17.1042 258.069 16.9625 258.36 16.8125C258.652 16.6625 258.894 16.525 259.085 16.4C259.285 16.2667 259.456 16.2 259.598 16.2C259.781 16.2 259.923 16.2708 260.023 16.4125L260.648 17.225ZM265.693 8.875C266.093 8.00833 266.585 7.33333 267.168 6.85C267.752 6.35833 268.464 6.1125 269.306 6.1125C269.573 6.1125 269.827 6.14167 270.068 6.2C270.318 6.25833 270.539 6.35 270.731 6.475L270.568 8.1375C270.518 8.34583 270.393 8.45 270.193 8.45C270.077 8.45 269.906 8.425 269.681 8.375C269.456 8.325 269.202 8.3 268.918 8.3C268.518 8.3 268.16 8.35833 267.843 8.475C267.535 8.59167 267.256 8.76667 267.006 9C266.764 9.225 266.543 9.50833 266.343 9.85C266.152 10.1833 265.977 10.5667 265.818 11V19H263.581V6.3375H264.856C265.098 6.3375 265.264 6.38333 265.356 6.475C265.448 6.56667 265.51 6.725 265.543 6.95L265.693 8.875ZM280.65 11.2875C280.65 10.7708 280.575 10.3 280.425 9.875C280.283 9.44167 280.07 9.07083 279.787 8.7625C279.512 8.44583 279.175 8.20417 278.775 8.0375C278.375 7.8625 277.92 7.775 277.412 7.775C276.345 7.775 275.5 8.0875 274.875 8.7125C274.258 9.32917 273.875 10.1875 273.725 11.2875H280.65ZM282.45 17.225C282.175 17.5583 281.845 17.85 281.462 18.1C281.079 18.3417 280.666 18.5417 280.225 18.7C279.791 18.8583 279.341 18.975 278.875 19.05C278.408 19.1333 277.945 19.175 277.487 19.175C276.612 19.175 275.804 19.0292 275.062 18.7375C274.329 18.4375 273.691 18.0042 273.15 17.4375C272.616 16.8625 272.2 16.1542 271.9 15.3125C271.6 14.4708 271.45 13.5042 271.45 12.4125C271.45 11.5292 271.583 10.7042 271.85 9.9375C272.125 9.17083 272.516 8.50833 273.025 7.95C273.533 7.38333 274.154 6.94167 274.887 6.625C275.62 6.3 276.445 6.1375 277.362 6.1375C278.12 6.1375 278.82 6.26667 279.462 6.525C280.112 6.775 280.67 7.14167 281.137 7.625C281.612 8.1 281.983 8.69167 282.25 9.4C282.516 10.1 282.65 10.9 282.65 11.8C282.65 12.15 282.612 12.3833 282.537 12.5C282.462 12.6167 282.32 12.675 282.112 12.675H273.65C273.675 13.475 273.783 14.1708 273.975 14.7625C274.175 15.3542 274.45 15.85 274.8 16.25C275.15 16.6417 275.566 16.9375 276.05 17.1375C276.533 17.3292 277.075 17.425 277.675 17.425C278.233 17.425 278.712 17.3625 279.112 17.2375C279.52 17.1042 279.87 16.9625 280.162 16.8125C280.454 16.6625 280.695 16.525 280.887 16.4C281.087 16.2667 281.258 16.2 281.4 16.2C281.583 16.2 281.725 16.2708 281.825 16.4125L282.45 17.225ZM293.892 8.875C294.292 8.00833 294.783 7.33333 295.367 6.85C295.95 6.35833 296.662 6.1125 297.504 6.1125C297.771 6.1125 298.025 6.14167 298.267 6.2C298.517 6.25833 298.737 6.35 298.929 6.475L298.767 8.1375C298.717 8.34583 298.592 8.45 298.392 8.45C298.275 8.45 298.104 8.425 297.879 8.375C297.654 8.325 297.4 8.3 297.117 8.3C296.717 8.3 296.358 8.35833 296.042 8.475C295.733 8.59167 295.454 8.76667 295.204 9C294.962 9.225 294.742 9.50833 294.542 9.85C294.35 10.1833 294.175 10.5667 294.017 11V19H291.779V6.3375H293.054C293.296 6.3375 293.462 6.38333 293.554 6.475C293.646 6.56667 293.708 6.725 293.742 6.95L293.892 8.875ZM308.848 11.2875C308.848 10.7708 308.773 10.3 308.623 9.875C308.481 9.44167 308.269 9.07083 307.985 8.7625C307.71 8.44583 307.373 8.20417 306.973 8.0375C306.573 7.8625 306.119 7.775 305.61 7.775C304.544 7.775 303.698 8.0875 303.073 8.7125C302.456 9.32917 302.073 10.1875 301.923 11.2875H308.848ZM310.648 17.225C310.373 17.5583 310.044 17.85 309.66 18.1C309.277 18.3417 308.865 18.5417 308.423 18.7C307.99 18.8583 307.54 18.975 307.073 19.05C306.606 19.1333 306.144 19.175 305.685 19.175C304.81 19.175 304.002 19.0292 303.26 18.7375C302.527 18.4375 301.89 18.0042 301.348 17.4375C300.815 16.8625 300.398 16.1542 300.098 15.3125C299.798 14.4708 299.648 13.5042 299.648 12.4125C299.648 11.5292 299.781 10.7042 300.048 9.9375C300.323 9.17083 300.715 8.50833 301.223 7.95C301.731 7.38333 302.352 6.94167 303.085 6.625C303.819 6.3 304.644 6.1375 305.56 6.1375C306.319 6.1375 307.019 6.26667 307.66 6.525C308.31 6.775 308.869 7.14167 309.335 7.625C309.81 8.1 310.181 8.69167 310.448 9.4C310.715 10.1 310.848 10.9 310.848 11.8C310.848 12.15 310.81 12.3833 310.735 12.5C310.66 12.6167 310.519 12.675 310.31 12.675H301.848C301.873 13.475 301.981 14.1708 302.173 14.7625C302.373 15.3542 302.648 15.85 302.998 16.25C303.348 16.6417 303.765 16.9375 304.248 17.1375C304.731 17.3292 305.273 17.425 305.873 17.425C306.431 17.425 306.91 17.3625 307.31 17.2375C307.719 17.1042 308.069 16.9625 308.36 16.8125C308.652 16.6625 308.894 16.525 309.085 16.4C309.285 16.2667 309.456 16.2 309.598 16.2C309.781 16.2 309.923 16.2708 310.023 16.4125L310.648 17.225ZM315.881 0.587499V19H313.656V0.587499H315.881ZM321.789 0.587499V19H319.564V0.587499H321.789ZM336.322 6.3375L329.26 22.7375C329.185 22.9042 329.089 23.0375 328.972 23.1375C328.864 23.2375 328.693 23.2875 328.46 23.2875H326.81L329.122 18.2625L323.897 6.3375H325.822C326.014 6.3375 326.164 6.3875 326.272 6.4875C326.389 6.57917 326.468 6.68333 326.51 6.8L329.897 14.775C330.031 15.125 330.143 15.4917 330.235 15.875C330.351 15.4833 330.476 15.1125 330.61 14.7625L333.897 6.8C333.947 6.66667 334.031 6.55833 334.147 6.475C334.272 6.38333 334.41 6.3375 334.56 6.3375H336.322ZM346.312 8.025C346.853 7.45 347.453 6.99167 348.112 6.65C348.77 6.30833 349.528 6.1375 350.387 6.1375C351.078 6.1375 351.687 6.25417 352.212 6.4875C352.745 6.7125 353.187 7.0375 353.537 7.4625C353.895 7.87917 354.166 8.38333 354.349 8.975C354.532 9.56667 354.624 10.2208 354.624 10.9375V19H352.387V10.9375C352.387 9.97917 352.166 9.2375 351.724 8.7125C351.291 8.17917 350.628 7.9125 349.737 7.9125C349.078 7.9125 348.462 8.07083 347.887 8.3875C347.32 8.70417 346.795 9.13333 346.312 9.675V19H344.074V0.587499H346.312V8.025ZM366.489 11.2875C366.489 10.7708 366.414 10.3 366.264 9.875C366.123 9.44167 365.91 9.07083 365.627 8.7625C365.352 8.44583 365.014 8.20417 364.614 8.0375C364.214 7.8625 363.76 7.775 363.252 7.775C362.185 7.775 361.339 8.0875 360.714 8.7125C360.098 9.32917 359.714 10.1875 359.564 11.2875H366.489ZM368.289 17.225C368.014 17.5583 367.685 17.85 367.302 18.1C366.919 18.3417 366.506 18.5417 366.064 18.7C365.631 18.8583 365.181 18.975 364.714 19.05C364.248 19.1333 363.785 19.175 363.327 19.175C362.452 19.175 361.644 19.0292 360.902 18.7375C360.169 18.4375 359.531 18.0042 358.989 17.4375C358.456 16.8625 358.039 16.1542 357.739 15.3125C357.439 14.4708 357.289 13.5042 357.289 12.4125C357.289 11.5292 357.423 10.7042 357.689 9.9375C357.964 9.17083 358.356 8.50833 358.864 7.95C359.373 7.38333 359.994 6.94167 360.727 6.625C361.46 6.3 362.285 6.1375 363.202 6.1375C363.96 6.1375 364.66 6.26667 365.302 6.525C365.952 6.775 366.51 7.14167 366.977 7.625C367.452 8.1 367.823 8.69167 368.089 9.4C368.356 10.1 368.489 10.9 368.489 11.8C368.489 12.15 368.452 12.3833 368.377 12.5C368.302 12.6167 368.16 12.675 367.952 12.675H359.489C359.514 13.475 359.623 14.1708 359.814 14.7625C360.014 15.3542 360.289 15.85 360.639 16.25C360.989 16.6417 361.406 16.9375 361.889 17.1375C362.373 17.3292 362.914 17.425 363.514 17.425C364.073 17.425 364.552 17.3625 364.952 17.2375C365.36 17.1042 365.71 16.9625 366.002 16.8125C366.294 16.6625 366.535 16.525 366.727 16.4C366.927 16.2667 367.098 16.2 367.239 16.2C367.423 16.2 367.564 16.2708 367.664 16.4125L368.289 17.225ZM373.522 0.587499V19H371.297V0.587499H373.522ZM379.368 15.95C379.776 16.5 380.222 16.8875 380.706 17.1125C381.189 17.3375 381.731 17.45 382.331 17.45C383.514 17.45 384.422 17.0292 385.056 16.1875C385.689 15.3458 386.006 14.1458 386.006 12.5875C386.006 11.7625 385.931 11.0542 385.781 10.4625C385.639 9.87083 385.431 9.3875 385.156 9.0125C384.881 8.62917 384.543 8.35 384.143 8.175C383.743 8 383.289 7.9125 382.781 7.9125C382.056 7.9125 381.418 8.07917 380.868 8.4125C380.326 8.74583 379.826 9.21667 379.368 9.825V15.95ZM379.256 8.3C379.789 7.64167 380.406 7.1125 381.106 6.7125C381.806 6.3125 382.606 6.1125 383.506 6.1125C384.239 6.1125 384.901 6.25417 385.493 6.5375C386.085 6.8125 386.589 7.225 387.006 7.775C387.422 8.31667 387.743 8.99167 387.968 9.8C388.193 10.6083 388.306 11.5375 388.306 12.5875C388.306 13.5208 388.181 14.3917 387.931 15.2C387.681 16 387.318 16.6958 386.843 17.2875C386.376 17.8708 385.801 18.3333 385.118 18.675C384.443 19.0083 383.681 19.175 382.831 19.175C382.056 19.175 381.389 19.0458 380.831 18.7875C380.281 18.5208 379.793 18.1542 379.368 17.6875V23.2875H377.131V6.3375H378.468C378.785 6.3375 378.981 6.49167 379.056 6.8L379.256 8.3ZM391.774 19V8.2375L390.374 8.075C390.199 8.03333 390.053 7.97083 389.937 7.8875C389.828 7.79583 389.774 7.66667 389.774 7.5V6.5875H391.774V5.3625C391.774 4.6375 391.874 3.99583 392.074 3.4375C392.282 2.87083 392.574 2.39583 392.949 2.0125C393.332 1.62083 393.791 1.325 394.324 1.125C394.857 0.924999 395.457 0.824999 396.124 0.824999C396.691 0.824999 397.212 0.908332 397.687 1.075L397.637 2.1875C397.62 2.3875 397.507 2.49583 397.299 2.5125C397.099 2.52917 396.828 2.5375 396.487 2.5375C396.103 2.5375 395.753 2.5875 395.437 2.6875C395.128 2.7875 394.862 2.95 394.637 3.175C394.412 3.4 394.237 3.69583 394.112 4.0625C393.995 4.42917 393.937 4.88333 393.937 5.425V6.5875H397.587V8.2H394.012V19H391.774ZM410.126 6.3375V19H408.801C408.485 19 408.285 18.8458 408.201 18.5375L408.026 17.175C407.476 17.7833 406.86 18.275 406.176 18.65C405.493 19.0167 404.71 19.2 403.826 19.2C403.135 19.2 402.522 19.0875 401.989 18.8625C401.464 18.6292 401.022 18.3042 400.664 17.8875C400.305 17.4708 400.035 16.9667 399.851 16.375C399.676 15.7833 399.589 15.1292 399.589 14.4125V6.3375H401.814V14.4125C401.814 15.3708 402.03 16.1125 402.464 16.6375C402.905 17.1625 403.576 17.425 404.476 17.425C405.135 17.425 405.747 17.2708 406.314 16.9625C406.889 16.6458 407.418 16.2125 407.901 15.6625V6.3375H410.126ZM415.954 0.587499V19H413.729V0.587499H415.954ZM4.48066 36.3375V49H2.25566V36.3375H4.48066ZM4.95566 32.3625C4.95566 32.5792 4.90983 32.7833 4.81816 32.975C4.73483 33.1583 4.61816 33.325 4.46816 33.475C4.3265 33.6167 4.15566 33.7292 3.95566 33.8125C3.764 33.8958 3.55983 33.9375 3.34316 33.9375C3.1265 33.9375 2.92233 33.8958 2.73066 33.8125C2.54733 33.7292 2.38483 33.6167 2.24316 33.475C2.1015 33.325 1.989 33.1583 1.90566 32.975C1.82233 32.7833 1.78066 32.5792 1.78066 32.3625C1.78066 32.1458 1.82233 31.9417 1.90566 31.75C1.989 31.55 2.1015 31.3792 2.24316 31.2375C2.38483 31.0875 2.54733 30.9708 2.73066 30.8875C2.92233 30.8042 3.1265 30.7625 3.34316 30.7625C3.55983 30.7625 3.764 30.8042 3.95566 30.8875C4.15566 30.9708 4.3265 31.0875 4.46816 31.2375C4.61816 31.3792 4.73483 31.55 4.81816 31.75C4.90983 31.9417 4.95566 32.1458 4.95566 32.3625ZM10.2365 38.175C10.5115 37.8667 10.8032 37.5875 11.1115 37.3375C11.4199 37.0875 11.7449 36.875 12.0865 36.7C12.4365 36.5167 12.8032 36.3792 13.1865 36.2875C13.5782 36.1875 13.999 36.1375 14.449 36.1375C15.1407 36.1375 15.749 36.2542 16.274 36.4875C16.8074 36.7125 17.249 37.0375 17.599 37.4625C17.9574 37.8792 18.2282 38.3833 18.4115 38.975C18.5949 39.5667 18.6865 40.2208 18.6865 40.9375V49H16.449V40.9375C16.449 39.9792 16.2282 39.2375 15.7865 38.7125C15.3532 38.1792 14.6907 37.9125 13.799 37.9125C13.1407 37.9125 12.524 38.0708 11.949 38.3875C11.3824 38.7042 10.8574 39.1333 10.374 39.675V49H8.13652V36.3375H9.47402C9.79069 36.3375 9.98652 36.4917 10.0615 36.8L10.2365 38.175ZM30.7109 38.025C31.2526 37.45 31.8526 36.9917 32.5109 36.65C33.1693 36.3083 33.9276 36.1375 34.7859 36.1375C35.4776 36.1375 36.0859 36.2542 36.6109 36.4875C37.1443 36.7125 37.5859 37.0375 37.9359 37.4625C38.2943 37.8792 38.5651 38.3833 38.7484 38.975C38.9318 39.5667 39.0234 40.2208 39.0234 40.9375V49H36.7859V40.9375C36.7859 39.9792 36.5651 39.2375 36.1234 38.7125C35.6901 38.1792 35.0276 37.9125 34.1359 37.9125C33.4776 37.9125 32.8609 38.0708 32.2859 38.3875C31.7193 38.7042 31.1943 39.1333 30.7109 39.675V49H28.4734V30.5875H30.7109V38.025ZM50.8889 41.2875C50.8889 40.7708 50.8139 40.3 50.6639 39.875C50.5222 39.4417 50.3097 39.0708 50.0264 38.7625C49.7514 38.4458 49.4139 38.2042 49.0139 38.0375C48.6139 37.8625 48.1597 37.775 47.6514 37.775C46.5847 37.775 45.7389 38.0875 45.1139 38.7125C44.4972 39.3292 44.1139 40.1875 43.9639 41.2875H50.8889ZM52.6889 47.225C52.4139 47.5583 52.0847 47.85 51.7014 48.1C51.318 48.3417 50.9055 48.5417 50.4639 48.7C50.0305 48.8583 49.5805 48.975 49.1139 49.05C48.6472 49.1333 48.1847 49.175 47.7264 49.175C46.8514 49.175 46.043 49.0292 45.3014 48.7375C44.568 48.4375 43.9305 48.0042 43.3889 47.4375C42.8555 46.8625 42.4389 46.1542 42.1389 45.3125C41.8389 44.4708 41.6889 43.5042 41.6889 42.4125C41.6889 41.5292 41.8222 40.7042 42.0889 39.9375C42.3639 39.1708 42.7555 38.5083 43.2639 37.95C43.7722 37.3833 44.393 36.9417 45.1264 36.625C45.8597 36.3 46.6847 36.1375 47.6014 36.1375C48.3597 36.1375 49.0597 36.2667 49.7014 36.525C50.3514 36.775 50.9097 37.1417 51.3764 37.625C51.8514 38.1 52.2222 38.6917 52.4889 39.4C52.7555 40.1 52.8889 40.9 52.8889 41.8C52.8889 42.15 52.8514 42.3833 52.7764 42.5C52.7014 42.6167 52.5597 42.675 52.3514 42.675H43.8889C43.9139 43.475 44.0222 44.1708 44.2139 44.7625C44.4139 45.3542 44.6889 45.85 45.0389 46.25C45.3889 46.6417 45.8055 46.9375 46.2889 47.1375C46.7722 47.3292 47.3139 47.425 47.9139 47.425C48.4722 47.425 48.9514 47.3625 49.3514 47.2375C49.7597 47.1042 50.1097 46.9625 50.4014 46.8125C50.693 46.6625 50.9347 46.525 51.1264 46.4C51.3264 46.2667 51.4972 46.2 51.6389 46.2C51.8222 46.2 51.9639 46.2708 52.0639 46.4125L52.6889 47.225ZM57.9219 30.5875V49H55.6969V30.5875H57.9219ZM63.7676 45.95C64.1759 46.5 64.6217 46.8875 65.1051 47.1125C65.5884 47.3375 66.1301 47.45 66.7301 47.45C67.9134 47.45 68.8217 47.0292 69.4551 46.1875C70.0884 45.3458 70.4051 44.1458 70.4051 42.5875C70.4051 41.7625 70.3301 41.0542 70.1801 40.4625C70.0384 39.8708 69.8301 39.3875 69.5551 39.0125C69.2801 38.6292 68.9426 38.35 68.5426 38.175C68.1426 38 67.6884 37.9125 67.1801 37.9125C66.4551 37.9125 65.8176 38.0792 65.2676 38.4125C64.7259 38.7458 64.2259 39.2167 63.7676 39.825V45.95ZM63.6551 38.3C64.1884 37.6417 64.8051 37.1125 65.5051 36.7125C66.2051 36.3125 67.0051 36.1125 67.9051 36.1125C68.6384 36.1125 69.3009 36.2542 69.8926 36.5375C70.4842 36.8125 70.9884 37.225 71.4051 37.775C71.8217 38.3167 72.1426 38.9917 72.3676 39.8C72.5926 40.6083 72.7051 41.5375 72.7051 42.5875C72.7051 43.5208 72.5801 44.3917 72.3301 45.2C72.0801 46 71.7176 46.6958 71.2426 47.2875C70.7759 47.8708 70.2009 48.3333 69.5176 48.675C68.8426 49.0083 68.0801 49.175 67.2301 49.175C66.4551 49.175 65.7884 49.0458 65.2301 48.7875C64.6801 48.5208 64.1926 48.1542 63.7676 47.6875V53.2875H61.5301V36.3375H62.8676C63.1842 36.3375 63.3801 36.4917 63.4551 36.8L63.6551 38.3ZM76.1734 49V38.2375L74.7734 38.075C74.5984 38.0333 74.4526 37.9708 74.3359 37.8875C74.2276 37.7958 74.1734 37.6667 74.1734 37.5V36.5875H76.1734V35.3625C76.1734 34.6375 76.2734 33.9958 76.4734 33.4375C76.6818 32.8708 76.9734 32.3958 77.3484 32.0125C77.7318 31.6208 78.1901 31.325 78.7234 31.125C79.2568 30.925 79.8568 30.825 80.5234 30.825C81.0901 30.825 81.6109 30.9083 82.0859 31.075L82.0359 32.1875C82.0193 32.3875 81.9068 32.4958 81.6984 32.5125C81.4984 32.5292 81.2276 32.5375 80.8859 32.5375C80.5026 32.5375 80.1526 32.5875 79.8359 32.6875C79.5276 32.7875 79.2609 32.95 79.0359 33.175C78.8109 33.4 78.6359 33.6958 78.5109 34.0625C78.3943 34.4292 78.3359 34.8833 78.3359 35.425V36.5875H81.9859V38.2H78.4109V49H76.1734ZM94.5256 36.3375V49H93.2006C92.8839 49 92.6839 48.8458 92.6006 48.5375L92.4256 47.175C91.8756 47.7833 91.2589 48.275 90.5756 48.65C89.8923 49.0167 89.1089 49.2 88.2256 49.2C87.5339 49.2 86.9214 49.0875 86.3881 48.8625C85.8631 48.6292 85.4214 48.3042 85.0631 47.8875C84.7048 47.4708 84.4339 46.9667 84.2506 46.375C84.0756 45.7833 83.9881 45.1292 83.9881 44.4125V36.3375H86.2131V44.4125C86.2131 45.3708 86.4298 46.1125 86.8631 46.6375C87.3048 47.1625 87.9756 47.425 88.8756 47.425C89.5339 47.425 90.1464 47.2708 90.7131 46.9625C91.2881 46.6458 91.8173 46.2125 92.3006 45.6625V36.3375H94.5256ZM100.354 30.5875V49H98.1285V30.5875H100.354ZM106.312 36.3375V49H104.087V36.3375H106.312ZM106.787 32.3625C106.787 32.5792 106.741 32.7833 106.649 32.975C106.566 33.1583 106.449 33.325 106.299 33.475C106.158 33.6167 105.987 33.7292 105.787 33.8125C105.595 33.8958 105.391 33.9375 105.174 33.9375C104.958 33.9375 104.753 33.8958 104.562 33.8125C104.378 33.7292 104.216 33.6167 104.074 33.475C103.933 33.325 103.82 33.1583 103.737 32.975C103.653 32.7833 103.612 32.5792 103.612 32.3625C103.612 32.1458 103.653 31.9417 103.737 31.75C103.82 31.55 103.933 31.3792 104.074 31.2375C104.216 31.0875 104.378 30.9708 104.562 30.8875C104.753 30.8042 104.958 30.7625 105.174 30.7625C105.391 30.7625 105.595 30.8042 105.787 30.8875C105.987 30.9708 106.158 31.0875 106.299 31.2375C106.449 31.3792 106.566 31.55 106.649 31.75C106.741 31.9417 106.787 32.1458 106.787 32.3625ZM112.068 38.175C112.343 37.8667 112.634 37.5875 112.943 37.3375C113.251 37.0875 113.576 36.875 113.918 36.7C114.268 36.5167 114.634 36.3792 115.018 36.2875C115.409 36.1875 115.83 36.1375 116.28 36.1375C116.972 36.1375 117.58 36.2542 118.105 36.4875C118.638 36.7125 119.08 37.0375 119.43 37.4625C119.788 37.8792 120.059 38.3833 120.243 38.975C120.426 39.5667 120.518 40.2208 120.518 40.9375V49H118.28V40.9375C118.28 39.9792 118.059 39.2375 117.618 38.7125C117.184 38.1792 116.522 37.9125 115.63 37.9125C114.972 37.9125 114.355 38.0708 113.78 38.3875C113.213 38.7042 112.688 39.1333 112.205 39.675V49H109.968V36.3375H111.305C111.622 36.3375 111.818 36.4917 111.893 36.8L112.068 38.175ZM128.321 42.8125C128.771 42.8125 129.166 42.75 129.508 42.625C129.85 42.5 130.137 42.325 130.371 42.1C130.604 41.875 130.779 41.6083 130.896 41.3C131.012 40.9833 131.071 40.6375 131.071 40.2625C131.071 39.4875 130.833 38.8708 130.358 38.4125C129.891 37.9542 129.212 37.725 128.321 37.725C127.421 37.725 126.733 37.9542 126.258 38.4125C125.791 38.8708 125.558 39.4875 125.558 40.2625C125.558 40.6375 125.616 40.9833 125.733 41.3C125.858 41.6083 126.037 41.875 126.271 42.1C126.504 42.325 126.791 42.5 127.133 42.625C127.475 42.75 127.871 42.8125 128.321 42.8125ZM132.333 49.6875C132.333 49.3792 132.246 49.1292 132.071 48.9375C131.896 48.7458 131.658 48.5958 131.358 48.4875C131.066 48.3792 130.725 48.3042 130.333 48.2625C129.941 48.2125 129.525 48.175 129.083 48.15C128.65 48.125 128.208 48.1 127.758 48.075C127.308 48.05 126.875 48.0083 126.458 47.95C125.991 48.1667 125.608 48.4417 125.308 48.775C125.016 49.1 124.871 49.4833 124.871 49.925C124.871 50.2083 124.941 50.4708 125.083 50.7125C125.233 50.9625 125.458 51.175 125.758 51.35C126.058 51.5333 126.433 51.675 126.883 51.775C127.341 51.8833 127.879 51.9375 128.496 51.9375C129.096 51.9375 129.633 51.8833 130.108 51.775C130.583 51.6667 130.983 51.5125 131.308 51.3125C131.641 51.1125 131.896 50.875 132.071 50.6C132.246 50.325 132.333 50.0208 132.333 49.6875ZM134.596 36.8375V37.6625C134.596 37.9375 134.421 38.1125 134.071 38.1875L132.633 38.375C132.916 38.925 133.058 39.5333 133.058 40.2C133.058 40.8167 132.937 41.3792 132.696 41.8875C132.462 42.3875 132.137 42.8167 131.721 43.175C131.304 43.5333 130.804 43.8083 130.221 44C129.637 44.1917 129.004 44.2875 128.321 44.2875C127.729 44.2875 127.171 44.2167 126.646 44.075C126.379 44.2417 126.175 44.4208 126.033 44.6125C125.891 44.7958 125.821 44.9833 125.821 45.175C125.821 45.475 125.941 45.7042 126.183 45.8625C126.433 46.0125 126.758 46.1208 127.158 46.1875C127.558 46.2542 128.012 46.2958 128.521 46.3125C129.037 46.3292 129.562 46.3583 130.096 46.4C130.637 46.4333 131.162 46.4958 131.671 46.5875C132.187 46.6792 132.646 46.8292 133.046 47.0375C133.446 47.2458 133.766 47.5333 134.008 47.9C134.258 48.2667 134.383 48.7417 134.383 49.325C134.383 49.8667 134.246 50.3917 133.971 50.9C133.704 51.4083 133.316 51.8583 132.808 52.25C132.3 52.65 131.675 52.9667 130.933 53.2C130.2 53.4417 129.371 53.5625 128.446 53.5625C127.521 53.5625 126.712 53.4708 126.021 53.2875C125.329 53.1042 124.754 52.8583 124.296 52.55C123.837 52.2417 123.491 51.8833 123.258 51.475C123.033 51.075 122.921 50.6542 122.921 50.2125C122.921 49.5875 123.116 49.0583 123.508 48.625C123.9 48.1917 124.437 47.8458 125.121 47.5875C124.746 47.4208 124.446 47.2 124.221 46.925C124.004 46.6417 123.896 46.2625 123.896 45.7875C123.896 45.6042 123.929 45.4167 123.996 45.225C124.062 45.025 124.162 44.8292 124.296 44.6375C124.437 44.4375 124.608 44.25 124.808 44.075C125.008 43.9 125.241 43.7458 125.508 43.6125C124.883 43.2625 124.396 42.8 124.046 42.225C123.696 41.6417 123.521 40.9667 123.521 40.2C123.521 39.5833 123.637 39.025 123.871 38.525C124.112 38.0167 124.446 37.5875 124.871 37.2375C125.296 36.8792 125.8 36.6042 126.383 36.4125C126.975 36.2208 127.621 36.125 128.321 36.125C128.871 36.125 129.383 36.1875 129.858 36.3125C130.333 36.4292 130.766 36.6042 131.158 36.8375H134.596ZM143.293 49V36.3375H144.63C144.947 36.3375 145.143 36.4917 145.218 36.8L145.38 38.1C145.847 37.525 146.372 37.0542 146.955 36.6875C147.539 36.3208 148.214 36.1375 148.98 36.1375C149.83 36.1375 150.518 36.375 151.043 36.85C151.576 37.325 151.959 37.9667 152.193 38.775C152.376 38.3167 152.609 37.9208 152.893 37.5875C153.184 37.2542 153.509 36.9792 153.868 36.7625C154.226 36.5458 154.605 36.3875 155.005 36.2875C155.414 36.1875 155.826 36.1375 156.243 36.1375C156.909 36.1375 157.501 36.2458 158.018 36.4625C158.543 36.6708 158.984 36.9792 159.343 37.3875C159.709 37.7958 159.989 38.3 160.18 38.9C160.372 39.4917 160.468 40.1708 160.468 40.9375V49H158.23V40.9375C158.23 39.9458 158.014 39.1958 157.58 38.6875C157.147 38.1708 156.522 37.9125 155.705 37.9125C155.339 37.9125 154.989 37.9792 154.655 38.1125C154.33 38.2375 154.043 38.425 153.793 38.675C153.543 38.925 153.343 39.2417 153.193 39.625C153.051 40 152.98 40.4375 152.98 40.9375V49H150.743V40.9375C150.743 39.9208 150.539 39.1625 150.13 38.6625C149.722 38.1625 149.126 37.9125 148.343 37.9125C147.793 37.9125 147.284 38.0625 146.818 38.3625C146.351 38.6542 145.922 39.0542 145.53 39.5625V49H143.293ZM172.324 41.2875C172.324 40.7708 172.249 40.3 172.099 39.875C171.958 39.4417 171.745 39.0708 171.462 38.7625C171.187 38.4458 170.849 38.2042 170.449 38.0375C170.049 37.8625 169.595 37.775 169.087 37.775C168.02 37.775 167.174 38.0875 166.549 38.7125C165.933 39.3292 165.549 40.1875 165.399 41.2875H172.324ZM174.124 47.225C173.849 47.5583 173.52 47.85 173.137 48.1C172.754 48.3417 172.341 48.5417 171.899 48.7C171.466 48.8583 171.016 48.975 170.549 49.05C170.083 49.1333 169.62 49.175 169.162 49.175C168.287 49.175 167.479 49.0292 166.737 48.7375C166.004 48.4375 165.366 48.0042 164.824 47.4375C164.291 46.8625 163.874 46.1542 163.574 45.3125C163.274 44.4708 163.124 43.5042 163.124 42.4125C163.124 41.5292 163.258 40.7042 163.524 39.9375C163.799 39.1708 164.191 38.5083 164.699 37.95C165.208 37.3833 165.829 36.9417 166.562 36.625C167.295 36.3 168.12 36.1375 169.037 36.1375C169.795 36.1375 170.495 36.2667 171.137 36.525C171.787 36.775 172.345 37.1417 172.812 37.625C173.287 38.1 173.658 38.6917 173.924 39.4C174.191 40.1 174.324 40.9 174.324 41.8C174.324 42.15 174.287 42.3833 174.212 42.5C174.137 42.6167 173.995 42.675 173.787 42.675H165.324C165.349 43.475 165.458 44.1708 165.649 44.7625C165.849 45.3542 166.124 45.85 166.474 46.25C166.824 46.6417 167.241 46.9375 167.724 47.1375C168.208 47.3292 168.749 47.425 169.349 47.425C169.908 47.425 170.387 47.3625 170.787 47.2375C171.195 47.1042 171.545 46.9625 171.837 46.8125C172.129 46.6625 172.37 46.525 172.562 46.4C172.762 46.2667 172.933 46.2 173.074 46.2C173.258 46.2 173.399 46.2708 173.499 46.4125L174.124 47.225ZM190.829 38.425C190.729 38.6083 190.575 38.7 190.366 38.7C190.241 38.7 190.1 38.6542 189.941 38.5625C189.783 38.4708 189.587 38.3708 189.354 38.2625C189.129 38.1458 188.858 38.0417 188.541 37.95C188.225 37.85 187.85 37.8 187.416 37.8C187.041 37.8 186.704 37.85 186.404 37.95C186.104 38.0417 185.846 38.1708 185.629 38.3375C185.421 38.5042 185.258 38.7 185.141 38.925C185.033 39.1417 184.979 39.3792 184.979 39.6375C184.979 39.9625 185.071 40.2333 185.254 40.45C185.446 40.6667 185.696 40.8542 186.004 41.0125C186.312 41.1708 186.662 41.3125 187.054 41.4375C187.446 41.5542 187.846 41.6833 188.254 41.825C188.671 41.9583 189.075 42.1083 189.466 42.275C189.858 42.4417 190.208 42.65 190.516 42.9C190.825 43.15 191.071 43.4583 191.254 43.825C191.446 44.1833 191.541 44.6167 191.541 45.125C191.541 45.7083 191.437 46.25 191.229 46.75C191.021 47.2417 190.712 47.6708 190.304 48.0375C189.896 48.3958 189.396 48.6792 188.804 48.8875C188.212 49.0958 187.529 49.2 186.754 49.2C185.871 49.2 185.071 49.0583 184.354 48.775C183.637 48.4833 183.029 48.1125 182.529 47.6625L183.054 46.8125C183.121 46.7042 183.2 46.6208 183.291 46.5625C183.383 46.5042 183.5 46.475 183.641 46.475C183.791 46.475 183.95 46.5333 184.116 46.65C184.283 46.7667 184.483 46.8958 184.716 47.0375C184.958 47.1792 185.25 47.3083 185.591 47.425C185.933 47.5417 186.358 47.6 186.866 47.6C187.3 47.6 187.679 47.5458 188.004 47.4375C188.329 47.3208 188.6 47.1667 188.816 46.975C189.033 46.7833 189.191 46.5625 189.291 46.3125C189.4 46.0625 189.454 45.7958 189.454 45.5125C189.454 45.1625 189.358 44.875 189.166 44.65C188.983 44.4167 188.737 44.2208 188.429 44.0625C188.121 43.8958 187.766 43.7542 187.366 43.6375C186.975 43.5125 186.571 43.3833 186.154 43.25C185.746 43.1167 185.341 42.9667 184.941 42.8C184.55 42.625 184.2 42.4083 183.891 42.15C183.583 41.8917 183.333 41.575 183.141 41.2C182.958 40.8167 182.866 40.3542 182.866 39.8125C182.866 39.3292 182.966 38.8667 183.166 38.425C183.366 37.975 183.658 37.5833 184.041 37.25C184.425 36.9083 184.896 36.6375 185.454 36.4375C186.012 36.2375 186.65 36.1375 187.366 36.1375C188.2 36.1375 188.946 36.2708 189.604 36.5375C190.271 36.7958 190.846 37.1542 191.329 37.6125L190.829 38.425ZM202.744 41.2875C202.744 40.7708 202.669 40.3 202.519 39.875C202.378 39.4417 202.165 39.0708 201.882 38.7625C201.607 38.4458 201.269 38.2042 200.869 38.0375C200.469 37.8625 200.015 37.775 199.507 37.775C198.44 37.775 197.594 38.0875 196.969 38.7125C196.353 39.3292 195.969 40.1875 195.819 41.2875H202.744ZM204.544 47.225C204.269 47.5583 203.94 47.85 203.557 48.1C203.174 48.3417 202.761 48.5417 202.319 48.7C201.886 48.8583 201.436 48.975 200.969 49.05C200.503 49.1333 200.04 49.175 199.582 49.175C198.707 49.175 197.899 49.0292 197.157 48.7375C196.424 48.4375 195.786 48.0042 195.244 47.4375C194.711 46.8625 194.294 46.1542 193.994 45.3125C193.694 44.4708 193.544 43.5042 193.544 42.4125C193.544 41.5292 193.678 40.7042 193.944 39.9375C194.219 39.1708 194.611 38.5083 195.119 37.95C195.628 37.3833 196.249 36.9417 196.982 36.625C197.715 36.3 198.54 36.1375 199.457 36.1375C200.215 36.1375 200.915 36.2667 201.557 36.525C202.207 36.775 202.765 37.1417 203.232 37.625C203.707 38.1 204.078 38.6917 204.344 39.4C204.611 40.1 204.744 40.9 204.744 41.8C204.744 42.15 204.707 42.3833 204.632 42.5C204.557 42.6167 204.415 42.675 204.207 42.675H195.744C195.769 43.475 195.878 44.1708 196.069 44.7625C196.269 45.3542 196.544 45.85 196.894 46.25C197.244 46.6417 197.661 46.9375 198.144 47.1375C198.628 47.3292 199.169 47.425 199.769 47.425C200.328 47.425 200.807 47.3625 201.207 47.2375C201.615 47.1042 201.965 46.9625 202.257 46.8125C202.549 46.6625 202.79 46.525 202.982 46.4C203.182 46.2667 203.353 46.2 203.494 46.2C203.678 46.2 203.819 46.2708 203.919 46.4125L204.544 47.225ZM211.267 49.2C210.267 49.2 209.496 48.9208 208.955 48.3625C208.421 47.8042 208.155 47 208.155 45.95V38.2H206.63C206.496 38.2 206.384 38.1625 206.292 38.0875C206.201 38.0042 206.155 37.8792 206.155 37.7125V36.825L208.23 36.5625L208.742 32.65C208.767 32.525 208.821 32.425 208.905 32.35C208.996 32.2667 209.113 32.225 209.255 32.225H210.38V36.5875H214.042V38.2H210.38V45.8C210.38 46.3333 210.509 46.7292 210.767 46.9875C211.026 47.2458 211.359 47.375 211.767 47.375C212.001 47.375 212.201 47.3458 212.367 47.2875C212.542 47.2208 212.692 47.15 212.817 47.075C212.942 47 213.046 46.9333 213.13 46.875C213.221 46.8083 213.301 46.775 213.367 46.775C213.484 46.775 213.588 46.8458 213.68 46.9875L214.33 48.05C213.946 48.4083 213.484 48.6917 212.942 48.9C212.401 49.1 211.842 49.2 211.267 49.2ZM233.149 36.3375V49H231.824C231.507 49 231.307 48.8458 231.224 48.5375L231.049 47.175C230.499 47.7833 229.882 48.275 229.199 48.65C228.515 49.0167 227.732 49.2 226.849 49.2C226.157 49.2 225.544 49.0875 225.011 48.8625C224.486 48.6292 224.044 48.3042 223.686 47.8875C223.328 47.4708 223.057 46.9667 222.874 46.375C222.699 45.7833 222.611 45.1292 222.611 44.4125V36.3375H224.836V44.4125C224.836 45.3708 225.053 46.1125 225.486 46.6375C225.928 47.1625 226.599 47.425 227.499 47.425C228.157 47.425 228.769 47.2708 229.336 46.9625C229.911 46.6458 230.44 46.2125 230.924 45.6625V36.3375H233.149ZM238.914 45.95C239.322 46.5 239.768 46.8875 240.252 47.1125C240.735 47.3375 241.277 47.45 241.877 47.45C243.06 47.45 243.968 47.0292 244.602 46.1875C245.235 45.3458 245.552 44.1458 245.552 42.5875C245.552 41.7625 245.477 41.0542 245.327 40.4625C245.185 39.8708 244.977 39.3875 244.702 39.0125C244.427 38.6292 244.089 38.35 243.689 38.175C243.289 38 242.835 37.9125 242.327 37.9125C241.602 37.9125 240.964 38.0792 240.414 38.4125C239.872 38.7458 239.372 39.2167 238.914 39.825V45.95ZM238.802 38.3C239.335 37.6417 239.952 37.1125 240.652 36.7125C241.352 36.3125 242.152 36.1125 243.052 36.1125C243.785 36.1125 244.447 36.2542 245.039 36.5375C245.631 36.8125 246.135 37.225 246.552 37.775C246.968 38.3167 247.289 38.9917 247.514 39.8C247.739 40.6083 247.852 41.5375 247.852 42.5875C247.852 43.5208 247.727 44.3917 247.477 45.2C247.227 46 246.864 46.6958 246.389 47.2875C245.922 47.8708 245.347 48.3333 244.664 48.675C243.989 49.0083 243.227 49.175 242.377 49.175C241.602 49.175 240.935 49.0458 240.377 48.7875C239.827 48.5208 239.339 48.1542 238.914 47.6875V53.2875H236.677V36.3375H238.014C238.331 36.3375 238.527 36.4917 238.602 36.8L238.802 38.3ZM257.087 49V36.3375H258.424C258.741 36.3375 258.937 36.4917 259.012 36.8L259.174 38.1C259.641 37.525 260.166 37.0542 260.749 36.6875C261.333 36.3208 262.008 36.1375 262.774 36.1375C263.624 36.1375 264.312 36.375 264.837 36.85C265.37 37.325 265.753 37.9667 265.987 38.775C266.17 38.3167 266.403 37.9208 266.687 37.5875C266.978 37.2542 267.303 36.9792 267.662 36.7625C268.02 36.5458 268.399 36.3875 268.799 36.2875C269.208 36.1875 269.62 36.1375 270.037 36.1375C270.703 36.1375 271.295 36.2458 271.812 36.4625C272.337 36.6708 272.778 36.9792 273.137 37.3875C273.503 37.7958 273.783 38.3 273.974 38.9C274.166 39.4917 274.262 40.1708 274.262 40.9375V49H272.024V40.9375C272.024 39.9458 271.808 39.1958 271.374 38.6875C270.941 38.1708 270.316 37.9125 269.499 37.9125C269.133 37.9125 268.783 37.9792 268.449 38.1125C268.124 38.2375 267.837 38.425 267.587 38.675C267.337 38.925 267.137 39.2417 266.987 39.625C266.845 40 266.774 40.4375 266.774 40.9375V49H264.537V40.9375C264.537 39.9208 264.333 39.1625 263.924 38.6625C263.516 38.1625 262.92 37.9125 262.137 37.9125C261.587 37.9125 261.078 38.0625 260.612 38.3625C260.145 38.6542 259.716 39.0542 259.324 39.5625V49H257.087ZM288.251 36.3375L281.188 52.7375C281.113 52.9042 281.018 53.0375 280.901 53.1375C280.793 53.2375 280.622 53.2875 280.388 53.2875H278.738L281.051 48.2625L275.826 36.3375H277.751C277.943 36.3375 278.093 36.3875 278.201 36.4875C278.318 36.5792 278.397 36.6833 278.438 36.8L281.826 44.775C281.959 45.125 282.072 45.4917 282.163 45.875C282.28 45.4833 282.405 45.1125 282.538 44.7625L285.826 36.8C285.876 36.6667 285.959 36.5583 286.076 36.475C286.201 36.3833 286.338 36.3375 286.488 36.3375H288.251ZM305.69 33.8875C305.615 34.0125 305.532 34.1083 305.44 34.175C305.357 34.2333 305.253 34.2625 305.128 34.2625C304.986 34.2625 304.819 34.1917 304.628 34.05C304.436 33.9083 304.194 33.7542 303.903 33.5875C303.619 33.4125 303.274 33.2542 302.865 33.1125C302.465 32.9708 301.978 32.9 301.403 32.9C300.861 32.9 300.382 32.975 299.965 33.125C299.557 33.2667 299.211 33.4625 298.928 33.7125C298.653 33.9625 298.444 34.2583 298.303 34.6C298.161 34.9333 298.09 35.2958 298.09 35.6875C298.09 36.1875 298.211 36.6042 298.453 36.9375C298.703 37.2625 299.028 37.5417 299.428 37.775C299.836 38.0083 300.294 38.2125 300.803 38.3875C301.319 38.5542 301.844 38.7292 302.378 38.9125C302.919 39.0958 303.444 39.3042 303.953 39.5375C304.469 39.7625 304.928 40.05 305.328 40.4C305.736 40.75 306.061 41.1792 306.303 41.6875C306.553 42.1958 306.678 42.8208 306.678 43.5625C306.678 44.3458 306.544 45.0833 306.278 45.775C306.011 46.4583 305.619 47.0542 305.103 47.5625C304.594 48.0708 303.965 48.4708 303.215 48.7625C302.474 49.0542 301.628 49.2 300.678 49.2C299.511 49.2 298.453 48.9917 297.503 48.575C296.553 48.15 295.74 47.5792 295.065 46.8625L295.765 45.7125C295.832 45.6208 295.911 45.5458 296.003 45.4875C296.103 45.4208 296.211 45.3875 296.328 45.3875C296.436 45.3875 296.557 45.4333 296.69 45.525C296.832 45.6083 296.99 45.7167 297.165 45.85C297.34 45.9833 297.54 46.1292 297.765 46.2875C297.99 46.4458 298.244 46.5917 298.528 46.725C298.819 46.8583 299.149 46.9708 299.515 47.0625C299.882 47.1458 300.294 47.1875 300.753 47.1875C301.328 47.1875 301.84 47.1083 302.29 46.95C302.74 46.7917 303.119 46.5708 303.428 46.2875C303.744 45.9958 303.986 45.65 304.153 45.25C304.319 44.85 304.403 44.4042 304.403 43.9125C304.403 43.3708 304.278 42.9292 304.028 42.5875C303.786 42.2375 303.465 41.9458 303.065 41.7125C302.665 41.4792 302.207 41.2833 301.69 41.125C301.174 40.9583 300.649 40.7917 300.115 40.625C299.582 40.45 299.057 40.25 298.54 40.025C298.024 39.8 297.565 39.5083 297.165 39.15C296.765 38.7917 296.44 38.3458 296.19 37.8125C295.949 37.2708 295.828 36.6042 295.828 35.8125C295.828 35.1792 295.949 34.5667 296.19 33.975C296.44 33.3833 296.799 32.8583 297.265 32.4C297.74 31.9417 298.319 31.575 299.003 31.3C299.694 31.025 300.486 30.8875 301.378 30.8875C302.378 30.8875 303.286 31.0458 304.103 31.3625C304.928 31.6792 305.653 32.1375 306.278 32.7375L305.69 33.8875ZM328.739 31.0875V49H326.614V35.8375C326.614 35.6625 326.619 35.475 326.627 35.275C326.644 35.075 326.66 34.8708 326.677 34.6625L320.527 45.8625C320.335 46.2375 320.044 46.425 319.652 46.425H319.302C318.91 46.425 318.619 46.2375 318.427 45.8625L312.152 34.6125C312.202 35.0542 312.227 35.4625 312.227 35.8375V49H310.102V31.0875H311.889C312.106 31.0875 312.273 31.1083 312.389 31.15C312.506 31.1917 312.619 31.3083 312.727 31.5L318.914 42.525C319.014 42.725 319.11 42.9333 319.202 43.15C319.302 43.3667 319.394 43.5875 319.477 43.8125C319.56 43.5875 319.648 43.3667 319.739 43.15C319.831 42.925 319.931 42.7125 320.039 42.5125L326.114 31.5C326.214 31.3083 326.323 31.1917 326.439 31.15C326.564 31.1083 326.735 31.0875 326.952 31.0875H328.739ZM342.482 33.8875C342.407 34.0125 342.324 34.1083 342.232 34.175C342.149 34.2333 342.045 34.2625 341.92 34.2625C341.778 34.2625 341.611 34.1917 341.42 34.05C341.228 33.9083 340.986 33.7542 340.695 33.5875C340.411 33.4125 340.066 33.2542 339.657 33.1125C339.257 32.9708 338.77 32.9 338.195 32.9C337.653 32.9 337.174 32.975 336.757 33.125C336.349 33.2667 336.003 33.4625 335.72 33.7125C335.445 33.9625 335.236 34.2583 335.095 34.6C334.953 34.9333 334.882 35.2958 334.882 35.6875C334.882 36.1875 335.003 36.6042 335.245 36.9375C335.495 37.2625 335.82 37.5417 336.22 37.775C336.628 38.0083 337.086 38.2125 337.595 38.3875C338.111 38.5542 338.636 38.7292 339.17 38.9125C339.711 39.0958 340.236 39.3042 340.745 39.5375C341.261 39.7625 341.72 40.05 342.12 40.4C342.528 40.75 342.853 41.1792 343.095 41.6875C343.345 42.1958 343.47 42.8208 343.47 43.5625C343.47 44.3458 343.336 45.0833 343.07 45.775C342.803 46.4583 342.411 47.0542 341.895 47.5625C341.386 48.0708 340.757 48.4708 340.007 48.7625C339.266 49.0542 338.42 49.2 337.47 49.2C336.303 49.2 335.245 48.9917 334.295 48.575C333.345 48.15 332.532 47.5792 331.857 46.8625L332.557 45.7125C332.624 45.6208 332.703 45.5458 332.795 45.4875C332.895 45.4208 333.003 45.3875 333.12 45.3875C333.228 45.3875 333.349 45.4333 333.482 45.525C333.624 45.6083 333.782 45.7167 333.957 45.85C334.132 45.9833 334.332 46.1292 334.557 46.2875C334.782 46.4458 335.036 46.5917 335.32 46.725C335.611 46.8583 335.941 46.9708 336.307 47.0625C336.674 47.1458 337.086 47.1875 337.545 47.1875C338.12 47.1875 338.632 47.1083 339.082 46.95C339.532 46.7917 339.911 46.5708 340.22 46.2875C340.536 45.9958 340.778 45.65 340.945 45.25C341.111 44.85 341.195 44.4042 341.195 43.9125C341.195 43.3708 341.07 42.9292 340.82 42.5875C340.578 42.2375 340.257 41.9458 339.857 41.7125C339.457 41.4792 338.999 41.2833 338.482 41.125C337.966 40.9583 337.441 40.7917 336.907 40.625C336.374 40.45 335.849 40.25 335.332 40.025C334.816 39.8 334.357 39.5083 333.957 39.15C333.557 38.7917 333.232 38.3458 332.982 37.8125C332.741 37.2708 332.62 36.6042 332.62 35.8125C332.62 35.1792 332.741 34.5667 332.982 33.975C333.232 33.3833 333.591 32.8583 334.057 32.4C334.532 31.9417 335.111 31.575 335.795 31.3C336.486 31.025 337.278 30.8875 338.17 30.8875C339.17 30.8875 340.078 31.0458 340.895 31.3625C341.72 31.6792 342.445 32.1375 343.07 32.7375L342.482 33.8875ZM349.319 33.0625V39.325H356.681V41.3H349.319V49H346.894V31.0875H357.931V33.0625H349.319ZM375.523 42.35L372.71 35.0625C372.627 34.8458 372.539 34.5958 372.448 34.3125C372.356 34.0208 372.268 33.7125 372.185 33.3875C372.01 34.0625 371.831 34.625 371.648 35.075L368.835 42.35H375.523ZM380.573 49H378.698C378.481 49 378.306 48.9458 378.173 48.8375C378.039 48.7292 377.939 48.5917 377.873 48.425L376.198 44.1H368.16L366.485 48.425C366.435 48.575 366.339 48.7083 366.198 48.825C366.056 48.9417 365.881 49 365.673 49H363.798L370.96 31.0875H373.41L380.573 49ZM384.455 38.175C384.73 37.8667 385.022 37.5875 385.33 37.3375C385.639 37.0875 385.964 36.875 386.305 36.7C386.655 36.5167 387.022 36.3792 387.405 36.2875C387.797 36.1875 388.218 36.1375 388.668 36.1375C389.359 36.1375 389.968 36.2542 390.493 36.4875C391.026 36.7125 391.468 37.0375 391.818 37.4625C392.176 37.8792 392.447 38.3833 392.63 38.975C392.814 39.5667 392.905 40.2208 392.905 40.9375V49H390.668V40.9375C390.668 39.9792 390.447 39.2375 390.005 38.7125C389.572 38.1792 388.909 37.9125 388.018 37.9125C387.359 37.9125 386.743 38.0708 386.168 38.3875C385.601 38.7042 385.076 39.1333 384.593 39.675V49H382.355V36.3375H383.693C384.009 36.3375 384.205 36.4917 384.28 36.8L384.455 38.175ZM404.546 39.35C404.129 38.7917 403.679 38.4042 403.196 38.1875C402.712 37.9625 402.171 37.85 401.571 37.85C400.396 37.85 399.492 38.2708 398.858 39.1125C398.225 39.9542 397.908 41.1542 397.908 42.7125C397.908 43.5375 397.979 44.2458 398.121 44.8375C398.262 45.4208 398.471 45.9042 398.746 46.2875C399.021 46.6625 399.358 46.9375 399.758 47.1125C400.158 47.2875 400.612 47.375 401.121 47.375C401.854 47.375 402.492 47.2083 403.033 46.875C403.583 46.5417 404.087 46.0708 404.546 45.4625V39.35ZM406.771 30.5875V49H405.446C405.129 49 404.929 48.8458 404.846 48.5375L404.646 47C404.104 47.65 403.487 48.175 402.796 48.575C402.104 48.975 401.304 49.175 400.396 49.175C399.671 49.175 399.012 49.0375 398.421 48.7625C397.829 48.4792 397.325 48.0667 396.908 47.525C396.492 46.9833 396.171 46.3083 395.946 45.5C395.721 44.6917 395.608 43.7625 395.608 42.7125C395.608 41.7792 395.733 40.9125 395.983 40.1125C396.233 39.3042 396.592 38.6042 397.058 38.0125C397.525 37.4208 398.096 36.9583 398.771 36.625C399.454 36.2833 400.221 36.1125 401.071 36.1125C401.846 36.1125 402.508 36.2458 403.058 36.5125C403.617 36.7708 404.112 37.1333 404.546 37.6V30.5875H406.771ZM13.7057 77.025L13.6932 79H2.65566V61.0875H13.6932V63.0625H5.08066V69.0125H12.0557V70.9125H5.08066V77.025H13.7057ZM26.9594 79H24.8219C24.6385 79 24.4927 78.9542 24.3844 78.8625C24.2844 78.7625 24.201 78.6542 24.1344 78.5375L20.9469 73.575C20.9135 73.6917 20.876 73.8083 20.8344 73.925C20.801 74.0333 20.751 74.1333 20.6844 74.225L17.7344 78.5375C17.651 78.6542 17.5594 78.7625 17.4594 78.8625C17.3677 78.9542 17.2385 79 17.0719 79H15.0844L19.5219 72.5L15.2594 66.3375H17.3969C17.5802 66.3375 17.7135 66.3667 17.7969 66.425C17.8802 66.4833 17.9552 66.5667 18.0219 66.675L21.1344 71.425C21.201 71.1833 21.3052 70.95 21.4469 70.725L24.1719 66.725C24.2469 66.6083 24.326 66.5167 24.4094 66.45C24.501 66.375 24.6094 66.3375 24.7344 66.3375H26.7844L22.5219 72.3875L26.9594 79ZM31.248 75.95C31.6564 76.5 32.1022 76.8875 32.5855 77.1125C33.0689 77.3375 33.6105 77.45 34.2105 77.45C35.3939 77.45 36.3022 77.0292 36.9355 76.1875C37.5689 75.3458 37.8855 74.1458 37.8855 72.5875C37.8855 71.7625 37.8105 71.0542 37.6605 70.4625C37.5189 69.8708 37.3105 69.3875 37.0355 69.0125C36.7605 68.6292 36.423 68.35 36.023 68.175C35.623 68 35.1689 67.9125 34.6605 67.9125C33.9355 67.9125 33.298 68.0792 32.748 68.4125C32.2064 68.7458 31.7064 69.2167 31.248 69.825V75.95ZM31.1355 68.3C31.6689 67.6417 32.2855 67.1125 32.9855 66.7125C33.6855 66.3125 34.4855 66.1125 35.3855 66.1125C36.1189 66.1125 36.7814 66.2542 37.373 66.5375C37.9647 66.8125 38.4689 67.225 38.8855 67.775C39.3022 68.3167 39.623 68.9917 39.848 69.8C40.073 70.6083 40.1855 71.5375 40.1855 72.5875C40.1855 73.5208 40.0605 74.3917 39.8105 75.2C39.5605 76 39.198 76.6958 38.723 77.2875C38.2564 77.8708 37.6814 78.3333 36.998 78.675C36.323 79.0083 35.5605 79.175 34.7105 79.175C33.9355 79.175 33.2689 79.0458 32.7105 78.7875C32.1605 78.5208 31.673 78.1542 31.248 77.6875V83.2875H29.0105V66.3375H30.348C30.6647 66.3375 30.8605 66.4917 30.9355 66.8L31.1355 68.3ZM45.3242 60.5875V79H43.0992V60.5875H45.3242ZM55.7949 73.3C54.7699 73.3333 53.8949 73.4167 53.1699 73.55C52.4533 73.675 51.8658 73.8417 51.4074 74.05C50.9574 74.2583 50.6283 74.5042 50.4199 74.7875C50.2199 75.0708 50.1199 75.3875 50.1199 75.7375C50.1199 76.0708 50.1741 76.3583 50.2824 76.6C50.3908 76.8417 50.5366 77.0417 50.7199 77.2C50.9116 77.35 51.1324 77.4625 51.3824 77.5375C51.6408 77.6042 51.9158 77.6375 52.2074 77.6375C52.5991 77.6375 52.9574 77.6 53.2824 77.525C53.6074 77.4417 53.9116 77.325 54.1949 77.175C54.4866 77.025 54.7616 76.8458 55.0199 76.6375C55.2866 76.4292 55.5449 76.1917 55.7949 75.925V73.3ZM48.6074 68.125C49.3074 67.45 50.0616 66.9458 50.8699 66.6125C51.6783 66.2792 52.5741 66.1125 53.5574 66.1125C54.2658 66.1125 54.8949 66.2292 55.4449 66.4625C55.9949 66.6958 56.4574 67.0208 56.8324 67.4375C57.2074 67.8542 57.4908 68.3583 57.6824 68.95C57.8741 69.5417 57.9699 70.1917 57.9699 70.9V79H56.9824C56.7658 79 56.5991 78.9667 56.4824 78.9C56.3658 78.825 56.2741 78.6833 56.2074 78.475L55.9574 77.275C55.6241 77.5833 55.2991 77.8583 54.9824 78.1C54.6658 78.3333 54.3324 78.5333 53.9824 78.7C53.6324 78.8583 53.2574 78.9792 52.8574 79.0625C52.4658 79.1542 52.0283 79.2 51.5449 79.2C51.0533 79.2 50.5908 79.1333 50.1574 79C49.7241 78.8583 49.3449 78.65 49.0199 78.375C48.7033 78.1 48.4491 77.7542 48.2574 77.3375C48.0741 76.9125 47.9824 76.4125 47.9824 75.8375C47.9824 75.3375 48.1199 74.8583 48.3949 74.4C48.6699 73.9333 49.1158 73.5208 49.7324 73.1625C50.3491 72.8042 51.1533 72.5125 52.1449 72.2875C53.1366 72.0542 54.3533 71.9208 55.7949 71.8875V70.9C55.7949 69.9167 55.5824 69.175 55.1574 68.675C54.7324 68.1667 54.1116 67.9125 53.2949 67.9125C52.7449 67.9125 52.2824 67.9833 51.9074 68.125C51.5408 68.2583 51.2199 68.4125 50.9449 68.5875C50.6783 68.7542 50.4449 68.9083 50.2449 69.05C50.0533 69.1833 49.8616 69.25 49.6699 69.25C49.5199 69.25 49.3908 69.2125 49.2824 69.1375C49.1741 69.0542 49.0824 68.9542 49.0074 68.8375L48.6074 68.125ZM63.7092 66.3375V79H61.4842V66.3375H63.7092ZM64.1842 62.3625C64.1842 62.5792 64.1383 62.7833 64.0467 62.975C63.9633 63.1583 63.8467 63.325 63.6967 63.475C63.555 63.6167 63.3842 63.7292 63.1842 63.8125C62.9925 63.8958 62.7883 63.9375 62.5717 63.9375C62.355 63.9375 62.1508 63.8958 61.9592 63.8125C61.7758 63.7292 61.6133 63.6167 61.4717 63.475C61.33 63.325 61.2175 63.1583 61.1342 62.975C61.0508 62.7833 61.0092 62.5792 61.0092 62.3625C61.0092 62.1458 61.0508 61.9417 61.1342 61.75C61.2175 61.55 61.33 61.3792 61.4717 61.2375C61.6133 61.0875 61.7758 60.9708 61.9592 60.8875C62.1508 60.8042 62.355 60.7625 62.5717 60.7625C62.7883 60.7625 62.9925 60.8042 63.1842 60.8875C63.3842 60.9708 63.555 61.0875 63.6967 61.2375C63.8467 61.3792 63.9633 61.55 64.0467 61.75C64.1383 61.9417 64.1842 62.1458 64.1842 62.3625ZM69.465 68.175C69.74 67.8667 70.0317 67.5875 70.34 67.3375C70.6484 67.0875 70.9734 66.875 71.315 66.7C71.665 66.5167 72.0317 66.3792 72.415 66.2875C72.8067 66.1875 73.2275 66.1375 73.6775 66.1375C74.3692 66.1375 74.9775 66.2542 75.5025 66.4875C76.0359 66.7125 76.4775 67.0375 76.8275 67.4625C77.1859 67.8792 77.4567 68.3833 77.64 68.975C77.8234 69.5667 77.915 70.2208 77.915 70.9375V79H75.6775V70.9375C75.6775 69.9792 75.4567 69.2375 75.015 68.7125C74.5817 68.1792 73.9192 67.9125 73.0275 67.9125C72.3692 67.9125 71.7525 68.0708 71.1775 68.3875C70.6109 68.7042 70.0859 69.1333 69.6025 69.675V79H67.365V66.3375H68.7025C69.0192 66.3375 69.215 66.4917 69.29 66.8L69.465 68.175ZM89.7805 71.2875C89.7805 70.7708 89.7055 70.3 89.5555 69.875C89.4138 69.4417 89.2013 69.0708 88.918 68.7625C88.643 68.4458 88.3055 68.2042 87.9055 68.0375C87.5055 67.8625 87.0513 67.775 86.543 67.775C85.4763 67.775 84.6305 68.0875 84.0055 68.7125C83.3888 69.3292 83.0055 70.1875 82.8555 71.2875H89.7805ZM91.5805 77.225C91.3055 77.5583 90.9763 77.85 90.593 78.1C90.2096 78.3417 89.7971 78.5417 89.3555 78.7C88.9221 78.8583 88.4721 78.975 88.0055 79.05C87.5388 79.1333 87.0763 79.175 86.618 79.175C85.743 79.175 84.9346 79.0292 84.193 78.7375C83.4596 78.4375 82.8221 78.0042 82.2805 77.4375C81.7471 76.8625 81.3305 76.1542 81.0305 75.3125C80.7305 74.4708 80.5805 73.5042 80.5805 72.4125C80.5805 71.5292 80.7138 70.7042 80.9805 69.9375C81.2555 69.1708 81.6471 68.5083 82.1555 67.95C82.6638 67.3833 83.2846 66.9417 84.018 66.625C84.7513 66.3 85.5763 66.1375 86.493 66.1375C87.2513 66.1375 87.9513 66.2667 88.593 66.525C89.243 66.775 89.8013 67.1417 90.268 67.625C90.743 68.1 91.1138 68.6917 91.3805 69.4C91.6471 70.1 91.7805 70.9 91.7805 71.8C91.7805 72.15 91.743 72.3833 91.668 72.5C91.593 72.6167 91.4513 72.675 91.243 72.675H82.7805C82.8055 73.475 82.9138 74.1708 83.1055 74.7625C83.3055 75.3542 83.5805 75.85 83.9305 76.25C84.2805 76.6417 84.6971 76.9375 85.1805 77.1375C85.6638 77.3292 86.2055 77.425 86.8055 77.425C87.3638 77.425 87.843 77.3625 88.243 77.2375C88.6513 77.1042 89.0013 76.9625 89.293 76.8125C89.5846 76.6625 89.8263 76.525 90.018 76.4C90.218 76.2667 90.3888 76.2 90.5305 76.2C90.7138 76.2 90.8555 76.2708 90.9555 76.4125L91.5805 77.225ZM102.763 69.35C102.347 68.7917 101.897 68.4042 101.413 68.1875C100.93 67.9625 100.388 67.85 99.7885 67.85C98.6135 67.85 97.7093 68.2708 97.076 69.1125C96.4426 69.9542 96.126 71.1542 96.126 72.7125C96.126 73.5375 96.1968 74.2458 96.3385 74.8375C96.4801 75.4208 96.6885 75.9042 96.9635 76.2875C97.2385 76.6625 97.576 76.9375 97.976 77.1125C98.376 77.2875 98.8301 77.375 99.3385 77.375C100.072 77.375 100.709 77.2083 101.251 76.875C101.801 76.5417 102.305 76.0708 102.763 75.4625V69.35ZM104.988 60.5875V79H103.663C103.347 79 103.147 78.8458 103.063 78.5375L102.863 77C102.322 77.65 101.705 78.175 101.013 78.575C100.322 78.975 99.5218 79.175 98.6135 79.175C97.8885 79.175 97.2301 79.0375 96.6385 78.7625C96.0468 78.4792 95.5426 78.0667 95.126 77.525C94.7093 76.9833 94.3885 76.3083 94.1635 75.5C93.9385 74.6917 93.826 73.7625 93.826 72.7125C93.826 71.7792 93.951 70.9125 94.201 70.1125C94.451 69.3042 94.8093 68.6042 95.276 68.0125C95.7426 67.4208 96.3135 66.9583 96.9885 66.625C97.6718 66.2833 98.4385 66.1125 99.2885 66.1125C100.063 66.1125 100.726 66.2458 101.276 66.5125C101.834 66.7708 102.33 67.1333 102.763 67.6V60.5875H104.988Z" fill="#002845"/>
</svg>
